<svg xmlns="http://www.w3.org/2000/svg" xmlns:xlink="http://www.w3.org/1999/xlink" width="97.92" height="107" viewBox="0 0 97.92 107">
  <defs>
    <clipPath id="clip-path">
      <rect id="Rectángulo_403805" data-name="Rectángulo 403805" width="70" height="70" transform="translate(345.19 873)" fill="#fff" stroke="#707070" stroke-width="1"/>
    </clipPath>
  </defs>
  <g id="Grupo_1103324" data-name="Grupo 1103324" transform="translate(-331.19 -859.502)">
    <path id="Trazado_876162" data-name="Trazado 876162" d="M-17834.732-9565.178v97.92h81.432l25.568-50.035-25.568-47.885Z" transform="translate(-9136.067 18694.234) rotate(90)" fill="#ffa06f"/>
    <g id="Enmascarar_grupo_1098697" data-name="Enmascarar grupo 1098697" clip-path="url(#clip-path)">
      <g id="machu-picchu" transform="translate(345.19 870.267)">
        <path id="Trazado_878659" data-name="Trazado 878659" d="M30.624,51.406H41.561v4.375H30.624Z" fill="#b3b3b3"/>
        <path id="Trazado_878660" data-name="Trazado 878660" d="M30.624,48.125l-5.469-1.094-4.375,1.094H17.5v7.656H30.624V48.125Z" fill="#e6e6e6"/>
        <path id="Trazado_878661" data-name="Trazado 878661" d="M14.218,64.53v4.375H0V61.249l6.562-1.094,7.656,1.094Z" fill="#ccc"/>
        <path id="Trazado_878662" data-name="Trazado 878662" d="M22.968,63.437l3.281,5.469H14.218V64.53Z" fill="#e6e6e6"/>
        <path id="Trazado_878663" data-name="Trazado 878663" d="M35,68.905h-8.75l-3.281-5.469,1.094-2.187H29.53L35,60.155l6.562,1.094v7.656Z" fill="#ccc"/>
        <path id="Trazado_878664" data-name="Trazado 878664" d="M53.592,61.249h5.469l3.281,7.656H41.561V61.249Z" fill="#b3b3b3"/>
        <path id="Trazado_878665" data-name="Trazado 878665" d="M64.529,55.781,70,68.905H62.342l-3.281-7.656h-17.5L35,60.155,29.53,61.249H24.062l-1.094,2.187-8.75,1.094V61.249L6.562,60.155,0,61.249V55.781H64.529Z" fill="#68aa22"/>
        <path id="Trazado_878666" data-name="Trazado 878666" d="M64.529,51.406v4.375H52.5L51.4,48.125l8.75,3.281Z" fill="#b3b3b3"/>
        <path id="Trazado_878667" data-name="Trazado 878667" d="M51.4,48.125,52.5,55.781H41.561V51.406l4.375-3.281Z" fill="#ccc"/>
        <path id="Trazado_878668" data-name="Trazado 878668" d="M4.375,55.781H0V48.125H5.469l6.562-1.094L17.5,48.125v7.656Z" fill="#ccc"/>
        <path id="Trazado_878669" data-name="Trazado 878669" d="M47.03,42.656,51.4,48.125H45.936l-4.375,3.281H30.624V48.125l-5.469-1.094-4.375,1.094H17.5l-5.469-1.094L5.469,48.125H0V42.656H47.03Z" fill="#8cbf43"/>
        <path id="Trazado_878670" data-name="Trazado 878670" d="M45.936,38.281l1.094,4.375H36.093V38.281h9.843Z" fill="#e6e6e6"/>
        <path id="Trazado_878671" data-name="Trazado 878671" d="M8.75,42.656H0V35H5.469l2.187-1.094L14.218,35v7.656Z" fill="#b3b3b3"/>
        <path id="Trazado_878672" data-name="Trazado 878672" d="M28.437,32.813,36.093,35v7.656H14.218V35h8.75Z" fill="#ccc"/>
        <path id="Trazado_878673" data-name="Trazado 878673" d="M40.5,33.436l2.155,4.844H36.093V35l-7.656-2.187L22.968,35h-8.75L7.656,33.905,5.469,35H0V28.437H32.811a8.433,8.433,0,0,1,4.583,1.356A8.346,8.346,0,0,1,40.5,33.436Z" fill="#afd372"/>
        <path id="Trazado_878674" data-name="Trazado 878674" d="M0,21.875H9.843v6.562H0Z" fill="#e6e6e6"/>
        <path id="Trazado_878675" data-name="Trazado 878675" d="M15.312,28.438H9.843V21.875l5.469-3.281,5.469,3.281v6.562Z" fill="#ccc"/>
        <path id="Trazado_878676" data-name="Trazado 878676" d="M26.249,21.875h4.375l2.187,6.562H20.781V21.875Z" fill="#b3b3b3"/>
        <path id="Trazado_878677" data-name="Trazado 878677" d="M70,45.937V68.905L64.529,55.781V51.406H60.154L54.686,40.469l2.187-10.937,7.656,4.375Z" fill="#2c842c"/>
        <path id="Trazado_878678" data-name="Trazado 878678" d="M70,24.063V45.937L64.529,33.906l-7.656-4.375L52.28,19.9Z" fill="#419947"/>
        <path id="Trazado_878679" data-name="Trazado 878679" d="M54.686,40.467,60.154,51.4,51.4,48.124,47.03,42.655,45.936,38.28H42.655L40.5,33.435a8.346,8.346,0,0,0-3.106-3.642,8.433,8.433,0,0,0-4.583-1.356l-2.187-6.562H20.781l7.656-7.656h5.469l3.281,8.75,7.656,4.375Z" fill="#419947"/>
        <path id="Trazado_878680" data-name="Trazado 878680" d="M52.28,19.9l4.594,9.635L54.686,40.467,44.842,27.343l-7.656-4.375-3.281-8.75,3.751-5.261a5.733,5.733,0,0,1,9.833.864Z" fill="#64b269"/>
        <g id="Grupo_1103330" data-name="Grupo 1103330">
          <circle id="Elipse_11556" data-name="Elipse 11556" cx="1.094" cy="1.094" r="1.094" transform="translate(50.311 27.344)" fill="#252525"/>
          <circle id="Elipse_11557" data-name="Elipse 11557" cx="1.094" cy="1.094" r="1.094" transform="translate(63.436 45.937)" fill="#252525"/>
          <path id="Trazado_878681" data-name="Trazado 878681" d="M27.343,36.094H29.53v3.281H27.343Z" fill="#252525"/>
          <path id="Trazado_878682" data-name="Trazado 878682" d="M3.281,52.5v2.187H1.094a1.094,1.094,0,1,0,0,2.187H63.8l2.454,5.89a1.143,1.143,0,0,0,1.431.588,1.094,1.094,0,0,0,.588-1.431l-2.65-6.36V51.4a1.094,1.094,0,0,0-1.094-1.094h-3.7L55.621,39.892,52.28,35.436a1.094,1.094,0,1,0-1.75,1.312l3.222,4.3L57.931,49.4l-5.86-2.2-4.038-5.047L47,38.015a1.094,1.094,0,0,0-1.061-.829h-2.57L41.507,33a9.413,9.413,0,0,0-7.882-5.6l-1.958-5.872a1.094,1.094,0,0,0-1.042-.748h-7.2l5.469-5.469h5.016a1.094,1.094,0,0,0,.889-.458L38.543,9.6a4.638,4.638,0,0,1,7.958.693l9.531,20.015,7.647,4.375,4.229,9.3a1.133,1.133,0,0,0,1.448.547,1.094,1.094,0,0,0,.547-1.448l-4.375-9.625a1.094,1.094,0,0,0-.453-.5l-7.359-4.205-3.468-7.273S68.822,24.9,68.9,24.9a1.094,1.094,0,0,0,.249-2.158L53.045,18.953,48.473,9.347A6.826,6.826,0,0,0,36.766,8.323l-3.424,4.8H28.437a1.094,1.094,0,0,0-.773.32L20.611,20.5l-4.736-2.844a1.094,1.094,0,0,0-1.127,0L9.54,20.781H1.094a1.094,1.094,0,0,0,0,2.187H8.75v4.375H1.094a1.094,1.094,0,1,0,0,2.187h31.53a7.634,7.634,0,0,1,3.505.791A7.3,7.3,0,0,1,39.5,33.879l1.471,3.307H37.186V35a1.094,1.094,0,0,0-.793-1.051L28.737,31.76a1.094,1.094,0,0,0-.707.036l-5.273,2.109H14.309L7.484,32.768,5.21,33.905H1.094a1.094,1.094,0,1,0,0,2.187H5.727l2.1-1.05,5.3.884v5.635H9.843V39.374H7.656v2.187H1.094a1.094,1.094,0,1,0,0,2.187H46.5l2.625,3.281H45.936a1.094,1.094,0,0,0-.656.219L41.2,50.311H31.718V48.124a1.094,1.094,0,0,0-.875-1.073l-5.709-1.142L20.646,47.03H17.609l-5.559-1.112L5.378,47.03H1.094a1.094,1.094,0,1,0,0,2.187H5.559l6.453-1.076,4.393.875v5.67H5.469V52.5ZM31.293,27.343H21.874V22.968h3.281v2.187h2.187V22.968h2.493ZM10.937,22.494l4.375-2.625,4.375,2.625v4.848H16.406V25.155a1.094,1.094,0,0,0-2.187,0v2.187H10.937Zm4.375,13.6h7.867L28.5,33.966,35,35.825v5.737H20.781V39.374H18.593v2.187H15.312Zm21.874,5.469V39.374h7.9l.547,2.187ZM63.436,54.686H53.447l-.7-4.891s7.285,2.7,7.407,2.7h3.281ZM46.3,49.217h4.156l.781,5.469H42.655V51.952ZM40.467,52.5v2.187h-8.75V52.5ZM18.593,49.217h2.322l3.147-.786v1.88a1.094,1.094,0,0,0,2.187,0V48.364l3.281.656v5.665H18.593Z" fill="#252525"/>
          <path id="Trazado_878683" data-name="Trazado 878683" d="M68.9,67.81H63.063l-3-6.993a1.094,1.094,0,0,0-1.005-.663H41.652L34.98,59.042l-5.559,1.112H24.062a1.094,1.094,0,0,0-.979.6l-.831,1.664-6.94.868V61.248a1.094,1.094,0,0,0-.939-1.083L6.55,59.049l-5.637.94a1.094,1.094,0,0,0,.361,2.157l5.3-.883,6.549.935V67.81H1.094a1.094,1.094,0,1,0,0,2.187H68.9a1.094,1.094,0,1,0,0-2.187ZM15.312,65.5,22.4,64.61l1.921,3.2H15.312ZM36.093,67.81V64.529H33.905V67.81H26.868l-2.653-4.422.523-1.047h4.9l5.379-1.076,5.449.91V67.81Zm6.562-5.469H52.5v2.187a1.094,1.094,0,1,0,2.187,0V62.342H58.34l2.344,5.469H42.655Z" fill="#252525"/>
          <path id="Trazado_878684" data-name="Trazado 878684" d="M49.661,25.063a1.094,1.094,0,0,0,.556-1.444l-4.375-9.843a1.094,1.094,0,1,0-2,.888l4.375,9.843A1.124,1.124,0,0,0,49.661,25.063Z" fill="#252525"/>
          <path id="Trazado_878685" data-name="Trazado 878685" d="M42.309,19.745a1.094,1.094,0,0,0-.692,1.382L43.8,27.69a1.039,1.039,0,0,0,1.384.691A1.094,1.094,0,0,0,45.88,27l-2.187-6.562A1.094,1.094,0,0,0,42.309,19.745Z" fill="#252525"/>
          <path id="Trazado_878686" data-name="Trazado 878686" d="M63.873,43.261l-2.734-5.469a1.094,1.094,0,1,0-1.958.978l2.734,5.469a1.117,1.117,0,0,0,1.468.489,1.072,1.072,0,0,0,.49-1.467Z" fill="#252525"/>
        </g>
      </g>
    </g>
  </g>
</svg>
