<svg xmlns="http://www.w3.org/2000/svg" xmlns:xlink="http://www.w3.org/1999/xlink" width="97.92" height="107" viewBox="0 0 97.92 107">
  <defs>
    <clipPath id="clip-path">
      <rect id="Rectángulo_403805" data-name="Rectángulo 403805" width="70" height="70" transform="translate(345.19 873)" fill="#fff" stroke="#707070" stroke-width="1"/>
    </clipPath>
  </defs>
  <g id="Grupo_1103328" data-name="Grupo 1103328" transform="translate(-331.19 -859.502)">
    <path id="Trazado_876162" data-name="Trazado 876162" d="M-17834.732-9565.178v97.92h81.432l25.568-50.035-25.568-47.885Z" transform="translate(-9136.067 18694.234) rotate(90)" fill="#ffa06f"/>
    <g id="Enmascarar_grupo_1098698" data-name="Enmascarar grupo 1098698" clip-path="url(#clip-path)">
      <g id="castillo" transform="translate(345.19 873)">
        <g id="Grupo_1103331" data-name="Grupo 1103331">
          <path id="Trazado_878687" data-name="Trazado 878687" d="M43.246,30.215V40.8h1.1a.684.684,0,0,1,.684.684v2.481a.684.684,0,0,0,.684.684h3.512a.684.684,0,0,0,.684-.684V41.483A.684.684,0,0,1,50.6,40.8h2.752v-5.36h-.282A1.367,1.367,0,0,1,51.7,34.072V30.215Z" fill="#5a5a5a"/>
          <path id="Trazado_878688" data-name="Trazado 878688" d="M43.246,30.215V40.8h1.1a.684.684,0,0,1,.684.684v2.481a.684.684,0,0,0,.684.684h3.512a.684.684,0,0,0,.684-.684V41.483A.684.684,0,0,1,50.6,40.8h2.752v-5.36h-.282A1.367,1.367,0,0,1,51.7,34.072V30.215Z" fill="none" stroke="#000" stroke-linecap="round" stroke-linejoin="round" stroke-miterlimit="10" stroke-width="2.051"/>
          <path id="Trazado_878689" data-name="Trazado 878689" d="M20.771,44.648h3.512a.684.684,0,0,0,.684-.684V41.483a.684.684,0,0,1,.684-.684h1.1V30.215H18.3v3.857a1.367,1.367,0,0,1-1.367,1.367h-.282V40.8H19.4a.684.684,0,0,1,.684.684v2.481A.684.684,0,0,0,20.771,44.648Z" fill="#5a5a5a"/>
          <path id="Trazado_878690" data-name="Trazado 878690" d="M20.771,44.648h3.512a.684.684,0,0,0,.684-.684V41.483a.684.684,0,0,1,.684-.684h1.1V30.215H18.3v3.857a1.367,1.367,0,0,1-1.367,1.367h-.282V40.8H19.4a.684.684,0,0,1,.684.684v2.481A.684.684,0,0,0,20.771,44.648Z" fill="none" stroke="#000" stroke-linecap="round" stroke-linejoin="round" stroke-miterlimit="10" stroke-width="2.051"/>
        </g>
        <g id="Grupo_1103351" data-name="Grupo 1103351">
          <path id="Trazado_878691" data-name="Trazado 878691" d="M54.018,6.488,52.176,4.506a.41.41,0,0,0-.3-.131H47.031V5.4a.41.41,0,0,1-.41.41H43.2V8.75a.41.41,0,0,0,.41.41h8.262a.41.41,0,0,0,.3-.131l1.842-1.982A.41.41,0,0,0,54.018,6.488Z" fill="#fb2b3a"/>
          <path id="Trazado_878692" data-name="Trazado 878692" d="M54.018,6.488,52.176,4.506a.41.41,0,0,0-.3-.131H47.031V5.4a.41.41,0,0,1-.41.41H43.2V8.75a.41.41,0,0,0,.41.41h8.262a.41.41,0,0,0,.3-.131l1.842-1.982A.41.41,0,0,0,54.018,6.488Z" fill="none" stroke="#000" stroke-linecap="round" stroke-linejoin="round" stroke-miterlimit="10" stroke-width="2.051"/>
          <line id="Línea_601" data-name="Línea 601" y1="8.812" transform="translate(35 1.025)" fill="none" stroke="#000" stroke-linecap="round" stroke-linejoin="round" stroke-miterlimit="10" stroke-width="2.051"/>
          <path id="Trazado_878693" data-name="Trazado 878693" d="M46.621,5.811H35V1.025H46.621a.41.41,0,0,1,.41.41V5.4A.41.41,0,0,1,46.621,5.811Z" fill="#fd4755"/>
          <rect id="Rectángulo_403822" data-name="Rectángulo 403822" width="4.375" height="4.785" transform="translate(35 1.025)" fill="#fb2b3a"/>
          <path id="Trazado_878694" data-name="Trazado 878694" d="M46.621,5.811H35V1.025H46.621a.41.41,0,0,1,.41.41V5.4A.41.41,0,0,1,46.621,5.811Z" fill="none" stroke="#000" stroke-linecap="round" stroke-linejoin="round" stroke-miterlimit="10" stroke-width="2.051"/>
          <path id="Trazado_878695" data-name="Trazado 878695" d="M28.544,15.155a.684.684,0,0,1,.684.684v1.244a.684.684,0,0,0,.684.684h2.481a.684.684,0,0,0,.684-.684V15.838a.684.684,0,0,1,.684-.684h2.481a.684.684,0,0,1,.684.684v1.244a.684.684,0,0,0,.684.684h2.481a.684.684,0,0,0,.684-.684V15.838a.684.684,0,0,1,.684-.684H42.95L37.8,10.036a.684.684,0,0,0-.482-.2H32.684a.684.684,0,0,0-.482.2L27.05,15.155h1.494Z" fill="#8795de"/>
          <g id="Grupo_1103332" data-name="Grupo 1103332">
            <path id="Trazado_878696" data-name="Trazado 878696" d="M29.227,15.838v1.244a.677.677,0,0,0,.044.234l7.306-7.28a.684.684,0,0,1,.482-.2H32.684a.684.684,0,0,0-.482.2L27.05,15.155h1.494A.684.684,0,0,1,29.227,15.838Z" fill="#6c7fd8"/>
          </g>
          <path id="Trazado_878697" data-name="Trazado 878697" d="M28.544,15.155a.684.684,0,0,1,.684.684v1.244a.684.684,0,0,0,.684.684h2.481a.684.684,0,0,0,.684-.684V15.838a.684.684,0,0,1,.684-.684h2.481a.684.684,0,0,1,.684.684v1.244a.684.684,0,0,0,.684.684h2.481a.684.684,0,0,0,.684-.684V15.838a.684.684,0,0,1,.684-.684H42.95L37.8,10.036a.684.684,0,0,0-.482-.2H32.684a.684.684,0,0,0-.482.2L27.05,15.155h1.494Z" fill="none" stroke="#000" stroke-linecap="round" stroke-linejoin="round" stroke-miterlimit="10" stroke-width="2.051"/>
          <path id="Trazado_878698" data-name="Trazado 878698" d="M27.719,40.8a.684.684,0,0,1,.684.684v2.481a.684.684,0,0,0,.684.684H32.6a.684.684,0,0,0,.684-.684V41.483a.684.684,0,0,1,.684-.684h2.069a.684.684,0,0,1,.684.684v2.481a.684.684,0,0,0,.684.684h3.512a.684.684,0,0,0,.684-.684V41.483a.684.684,0,0,1,.684-.684h.966V23.126H26.754V40.8Z" fill="#acacac"/>
          <g id="Grupo_1103333" data-name="Grupo 1103333">
            <path id="Trazado_878699" data-name="Trazado 878699" d="M30.582,23.126H26.754V40.8h.966a.684.684,0,0,1,.684.684v2.481a.684.684,0,0,0,.684.684h1.5Z" fill="#838383"/>
          </g>
          <path id="Trazado_878700" data-name="Trazado 878700" d="M27.719,40.8a.684.684,0,0,1,.684.684v2.481a.684.684,0,0,0,.684.684H32.6a.684.684,0,0,0,.684-.684V41.483a.684.684,0,0,1,.684-.684h2.069a.684.684,0,0,1,.684.684v2.481a.684.684,0,0,0,.684.684h3.512a.684.684,0,0,0,.684-.684V41.483a.684.684,0,0,1,.684-.684h.966V19.845H26.754V40.8Z" fill="none" stroke="#000" stroke-linecap="round" stroke-linejoin="round" stroke-miterlimit="10" stroke-width="2.051"/>
          <path id="Trazado_878701" data-name="Trazado 878701" d="M40.773,15.838v1.244a.684.684,0,0,1-.684.684H37.608a.684.684,0,0,1-.684-.684V15.838a.684.684,0,0,0-.684-.684H33.759a.684.684,0,0,0-.684.684v1.244a.684.684,0,0,1-.684.684H29.911a.684.684,0,0,1-.684-.684V15.838a.684.684,0,0,0-.684-.684H26.063a.684.684,0,0,0-.684.684v5.921a1.367,1.367,0,0,0,1.367,1.367H43.254a1.367,1.367,0,0,0,1.367-1.367V15.838a.684.684,0,0,0-.684-.684H41.456A.684.684,0,0,0,40.773,15.838Z" fill="#e2e2e2"/>
          <g id="Grupo_1103334" data-name="Grupo 1103334">
            <path id="Trazado_878702" data-name="Trazado 878702" d="M29.754,21.759V17.746a.683.683,0,0,1-.527-.664V15.838a.684.684,0,0,0-.684-.684H26.063a.684.684,0,0,0-.684.684v5.921a1.367,1.367,0,0,0,1.367,1.367h4.375A1.367,1.367,0,0,1,29.754,21.759Z" fill="#cecece"/>
          </g>
          <path id="Trazado_878703" data-name="Trazado 878703" d="M40.264,23.126h2.99a1.367,1.367,0,0,0,1.367-1.367V15.838a.684.684,0,0,0-.684-.684H41.456a.684.684,0,0,0-.684.684v1.244a.684.684,0,0,1-.684.684H37.608a.684.684,0,0,1-.684-.684V15.838a.684.684,0,0,0-.684-.684H33.759a.684.684,0,0,0-.684.684v1.244a.684.684,0,0,1-.684.684H29.911a.684.684,0,0,1-.684-.684V15.838a.684.684,0,0,0-.684-.684H26.063a.684.684,0,0,0-.684.684v5.921a1.367,1.367,0,0,0,1.367,1.367h8.732" fill="none" stroke="#000" stroke-linecap="round" stroke-linejoin="round" stroke-miterlimit="10" stroke-width="2.051"/>
          <path id="Trazado_878704" data-name="Trazado 878704" d="M49.912,41.483v2.481a.684.684,0,0,1-.684.684H45.717a.684.684,0,0,1-.684-.684V41.483a.684.684,0,0,0-.684-.684H42.281a.684.684,0,0,0-.684.684v2.481a.684.684,0,0,1-.684.684H37.4a.684.684,0,0,1-.684-.684V41.483a.684.684,0,0,0-.684-.684H33.966a.684.684,0,0,0-.684.684v2.481a.684.684,0,0,1-.684.684H29.087a.684.684,0,0,1-.684-.684V41.483a.684.684,0,0,0-.684-.684H25.651a.684.684,0,0,0-.684.684v2.481a.684.684,0,0,1-.684.684H20.772a.684.684,0,0,1-.684-.684V41.483A.684.684,0,0,0,19.4,40.8H16.652V68.975h36.7V40.8H50.6A.684.684,0,0,0,49.912,41.483Z" fill="#e2e2e2"/>
          <g id="Grupo_1103335" data-name="Grupo 1103335">
            <path id="Trazado_878705" data-name="Trazado 878705" d="M20.771,44.648a.684.684,0,0,1-.684-.684V41.483A.684.684,0,0,0,19.4,40.8H16.652V68.975h4.375V44.648Z" fill="#cecece"/>
          </g>
          <path id="Trazado_878706" data-name="Trazado 878706" d="M49.912,41.483v2.481a.684.684,0,0,1-.684.684H45.717a.684.684,0,0,1-.684-.684V41.483a.684.684,0,0,0-.684-.684H42.281a.684.684,0,0,0-.684.684v2.481a.684.684,0,0,1-.684.684H37.4a.684.684,0,0,1-.684-.684V41.483a.684.684,0,0,0-.684-.684H33.966a.684.684,0,0,0-.684.684v2.481a.684.684,0,0,1-.684.684H29.087a.684.684,0,0,1-.684-.684V41.483a.684.684,0,0,0-.684-.684H25.651a.684.684,0,0,0-.684.684v2.481a.684.684,0,0,1-.684.684H20.772a.684.684,0,0,1-.684-.684V41.483A.684.684,0,0,0,19.4,40.8H16.652V68.975h36.7V40.8H50.6A.684.684,0,0,0,49.912,41.483Z" fill="none" stroke="#000" stroke-linecap="round" stroke-linejoin="round" stroke-miterlimit="10" stroke-width="2.051"/>
          <g id="Grupo_1103336" data-name="Grupo 1103336">
            <path id="Trazado_878707" data-name="Trazado 878707" d="M38.123,53.444h2.069a.684.684,0,0,0,.684-.684V49.18a.684.684,0,0,0-.684-.684H38.123a.684.684,0,0,0-.684.684V52.76A.684.684,0,0,0,38.123,53.444Z" fill="#6c7fd8"/>
            <path id="Trazado_878708" data-name="Trazado 878708" d="M46.438,53.444h2.069a.684.684,0,0,0,.684-.684V49.18a.684.684,0,0,0-.684-.684H46.438a.684.684,0,0,0-.684.684V52.76A.684.684,0,0,0,46.438,53.444Z" fill="#6c7fd8"/>
            <path id="Trazado_878709" data-name="Trazado 878709" d="M21.493,53.444h2.069a.684.684,0,0,0,.684-.684V49.18a.684.684,0,0,0-.684-.684H21.493a.684.684,0,0,0-.684.684V52.76A.684.684,0,0,0,21.493,53.444Z" fill="#6c7fd8"/>
            <path id="Trazado_878710" data-name="Trazado 878710" d="M29.808,53.444h2.069a.684.684,0,0,0,.684-.684V49.18a.684.684,0,0,0-.684-.684H29.808a.684.684,0,0,0-.684.684V52.76A.684.684,0,0,0,29.808,53.444Z" fill="#6c7fd8"/>
          </g>
          <g id="Grupo_1103337" data-name="Grupo 1103337">
            <path id="Trazado_878711" data-name="Trazado 878711" d="M38.123,53.444h2.069a.684.684,0,0,0,.684-.684V49.18a.684.684,0,0,0-.684-.684H38.123a.684.684,0,0,0-.684.684V52.76A.684.684,0,0,0,38.123,53.444Z" fill="none" stroke="#000" stroke-linecap="round" stroke-linejoin="round" stroke-miterlimit="10" stroke-width="2.051"/>
            <path id="Trazado_878712" data-name="Trazado 878712" d="M46.438,53.444h2.069a.684.684,0,0,0,.684-.684V49.18a.684.684,0,0,0-.684-.684H46.438a.684.684,0,0,0-.684.684V52.76A.684.684,0,0,0,46.438,53.444Z" fill="none" stroke="#000" stroke-linecap="round" stroke-linejoin="round" stroke-miterlimit="10" stroke-width="2.051"/>
            <path id="Trazado_878713" data-name="Trazado 878713" d="M21.493,53.444h2.069a.684.684,0,0,0,.684-.684V49.18a.684.684,0,0,0-.684-.684H21.493a.684.684,0,0,0-.684.684V52.76A.684.684,0,0,0,21.493,53.444Z" fill="none" stroke="#000" stroke-linecap="round" stroke-linejoin="round" stroke-miterlimit="10" stroke-width="2.051"/>
            <path id="Trazado_878714" data-name="Trazado 878714" d="M29.808,53.444h2.069a.684.684,0,0,0,.684-.684V49.18a.684.684,0,0,0-.684-.684H29.808a.684.684,0,0,0-.684.684V52.76A.684.684,0,0,0,29.808,53.444Z" fill="none" stroke="#000" stroke-linecap="round" stroke-linejoin="round" stroke-miterlimit="10" stroke-width="2.051"/>
          </g>
          <path id="Trazado_878715" data-name="Trazado 878715" d="M35,56.6h0A4.4,4.4,0,0,0,30.6,61v7.972h8.8V61A4.4,4.4,0,0,0,35,56.6Z" fill="#d6694b"/>
          <path id="Trazado_878716" data-name="Trazado 878716" d="M36.641,56.922A4.383,4.383,0,0,0,35,56.6h0A4.4,4.4,0,0,0,30.6,61v7.972h3.281V61A4.4,4.4,0,0,1,36.641,56.922Z" fill="#c4573a"/>
          <path id="Trazado_878717" data-name="Trazado 878717" d="M35,56.6h0A4.4,4.4,0,0,0,30.6,61v7.972h8.8V61A4.4,4.4,0,0,0,35,56.6Z" fill="none" stroke="#000" stroke-linecap="round" stroke-linejoin="round" stroke-miterlimit="10" stroke-width="2.051"/>
          <rect id="Rectángulo_403823" data-name="Rectángulo 403823" width="8.796" height="3.848" transform="translate(30.602 61.553)" fill="none" stroke="#000" stroke-linecap="round" stroke-linejoin="round" stroke-miterlimit="10" stroke-width="2.051"/>
          <path id="Trazado_878718" data-name="Trazado 878718" d="M53.348,35.439V68.975H65.175a1.367,1.367,0,0,0,1.367-1.367V35.439Z" fill="#acacac"/>
          <rect id="Rectángulo_403824" data-name="Rectángulo 403824" width="3.691" height="33.535" transform="translate(53.348 35.439)" fill="#838383"/>
          <path id="Trazado_878719" data-name="Trazado 878719" d="M53.348,68.975H65.175a1.367,1.367,0,0,0,1.367-1.367V62.754H53.348v6.221Z" fill="#8795de"/>
          <rect id="Rectángulo_403825" data-name="Rectángulo 403825" width="3.691" height="6.221" transform="translate(53.348 62.754)" fill="#6c7fd8"/>
          <path id="Trazado_878720" data-name="Trazado 878720" d="M66.543,54.71V35.439H53.348V68.975H65.175a1.367,1.367,0,0,0,1.367-1.367V59.5" fill="none" stroke="#000" stroke-linecap="round" stroke-linejoin="round" stroke-miterlimit="10" stroke-width="2.051"/>
          <path id="Trazado_878721" data-name="Trazado 878721" d="M61.253,45.335H58.638a.41.41,0,0,1-.41-.41V41.83a1.718,1.718,0,0,1,1.718-1.718h0a1.718,1.718,0,0,1,1.718,1.718v3.095A.41.41,0,0,1,61.253,45.335Z" fill="#6c7fd8"/>
          <path id="Trazado_878722" data-name="Trazado 878722" d="M59.959,44.925V41.83a1.716,1.716,0,0,1,.852-1.482,1.716,1.716,0,0,0-2.584,1.482v3.095a.41.41,0,0,0,.41.41h1.732A.41.41,0,0,1,59.959,44.925Z" fill="#4f66d0"/>
          <path id="Trazado_878723" data-name="Trazado 878723" d="M61.253,45.335H58.638a.41.41,0,0,1-.41-.41V41.83a1.718,1.718,0,0,1,1.718-1.718h0a1.718,1.718,0,0,1,1.718,1.718v3.095A.41.41,0,0,1,61.253,45.335Z" fill="none" stroke="#000" stroke-linecap="round" stroke-linejoin="round" stroke-miterlimit="10" stroke-width="2.051"/>
          <path id="Trazado_878724" data-name="Trazado 878724" d="M54.314,27.468a.684.684,0,0,1,.684.684V29.4a.684.684,0,0,0,.684.684h1.931A.684.684,0,0,0,58.3,29.4V28.151a.684.684,0,0,1,.684-.684h1.931a.684.684,0,0,1,.684.684V29.4a.684.684,0,0,0,.684.684H64.21a.684.684,0,0,0,.684-.684V28.151a.684.684,0,0,1,.684-.684h.274L60.315,15.926a.41.41,0,0,0-.74,0L54.04,27.468Z" fill="#8795de"/>
          <g id="Grupo_1103338" data-name="Grupo 1103338">
            <path id="Trazado_878725" data-name="Trazado 878725" d="M57.96,27.468h-.274l4.083-8.512-1.453-3.03a.41.41,0,0,0-.74,0L54.04,27.468h.274a.684.684,0,0,1,.684.684V29.4a.684.684,0,0,0,.684.684h1.931A.684.684,0,0,0,58.3,29.4V28.151a.678.678,0,0,1,.174-.451A.68.68,0,0,0,57.96,27.468Z" fill="#6c7fd8"/>
          </g>
          <path id="Trazado_878726" data-name="Trazado 878726" d="M54.314,27.468a.684.684,0,0,1,.684.684V29.4a.684.684,0,0,0,.684.684h1.931A.684.684,0,0,0,58.3,29.4V28.151a.684.684,0,0,1,.684-.684h1.931a.684.684,0,0,1,.684.684V29.4a.684.684,0,0,0,.684.684H64.21a.684.684,0,0,0,.684-.684V28.151a.684.684,0,0,1,.684-.684h.274L60.315,15.926a.41.41,0,0,0-.74,0L54.04,27.468Z" fill="none" stroke="#000" stroke-linecap="round" stroke-linejoin="round" stroke-miterlimit="10" stroke-width="2.051"/>
          <path id="Trazado_878727" data-name="Trazado 878727" d="M64.893,28.151V29.4a.684.684,0,0,1-.684.684H62.278a.684.684,0,0,1-.684-.684V28.151a.684.684,0,0,0-.684-.684H58.98a.684.684,0,0,0-.684.684V29.4a.684.684,0,0,1-.684.684H55.681A.684.684,0,0,1,55,29.4V28.151a.684.684,0,0,0-.684-.684H52.382a.684.684,0,0,0-.684.684v5.921a1.367,1.367,0,0,0,1.367,1.367H66.824a1.367,1.367,0,0,0,1.367-1.367V28.151a.684.684,0,0,0-.684-.684H65.577A.684.684,0,0,0,64.893,28.151Z" fill="#e2e2e2"/>
          <g id="Grupo_1103339" data-name="Grupo 1103339">
            <path id="Trazado_878728" data-name="Trazado 878728" d="M56.074,34.072V30.079h-.393A.684.684,0,0,1,55,29.4V28.151a.684.684,0,0,0-.684-.684H52.383a.684.684,0,0,0-.684.684v5.921a1.367,1.367,0,0,0,1.367,1.367h4.375A1.367,1.367,0,0,1,56.074,34.072Z" fill="#cecece"/>
          </g>
          <path id="Trazado_878729" data-name="Trazado 878729" d="M64.893,28.151V29.4a.684.684,0,0,1-.684.684H62.278a.684.684,0,0,1-.684-.684V28.151a.684.684,0,0,0-.684-.684H58.98a.684.684,0,0,0-.684.684V29.4a.684.684,0,0,1-.684.684H55.681A.684.684,0,0,1,55,29.4V28.151a.684.684,0,0,0-.684-.684H52.382a.684.684,0,0,0-.684.684v5.921a1.367,1.367,0,0,0,1.367,1.367H66.824a1.367,1.367,0,0,0,1.367-1.367V28.151a.684.684,0,0,0-.684-.684H65.577A.684.684,0,0,0,64.893,28.151Z" fill="none" stroke="#000" stroke-linecap="round" stroke-linejoin="round" stroke-miterlimit="10" stroke-width="2.051"/>
          <g id="Grupo_1103345" data-name="Grupo 1103345">
            <path id="Trazado_878730" data-name="Trazado 878730" d="M3.457,35.439V67.607a1.367,1.367,0,0,0,1.367,1.367H16.652V35.439Z" fill="#acacac"/>
            <path id="Trazado_878731" data-name="Trazado 878731" d="M7.656,67.607V35.439h-4.2V67.607a1.367,1.367,0,0,0,1.367,1.367h4.2A1.367,1.367,0,0,1,7.656,67.607Z" fill="#838383"/>
            <path id="Trazado_878732" data-name="Trazado 878732" d="M3.457,67.607a1.367,1.367,0,0,0,1.367,1.367H16.652V62.754H3.457Z" fill="#8795de"/>
            <path id="Trazado_878733" data-name="Trazado 878733" d="M7.656,67.607V62.754h-4.2v4.854a1.367,1.367,0,0,0,1.367,1.367h4.2A1.367,1.367,0,0,1,7.656,67.607Z" fill="#6c7fd8"/>
            <path id="Trazado_878734" data-name="Trazado 878734" d="M3.457,32.158v35.45a1.367,1.367,0,0,0,1.367,1.367H16.652V32.158Z" fill="none" stroke="#000" stroke-linecap="round" stroke-linejoin="round" stroke-miterlimit="10" stroke-width="2.051"/>
            <line id="Línea_602" data-name="Línea 602" x1="13.194" transform="translate(53.348 62.754)" fill="none" stroke="#000" stroke-linecap="round" stroke-linejoin="round" stroke-miterlimit="10" stroke-width="2.051"/>
            <g id="Grupo_1103340" data-name="Grupo 1103340">
              <line id="Línea_603" data-name="Línea 603" x1="13.194" transform="translate(3.457 62.754)" fill="none" stroke="#000" stroke-linecap="round" stroke-linejoin="round" stroke-miterlimit="10" stroke-width="2.051"/>
            </g>
            <g id="Grupo_1103342" data-name="Grupo 1103342">
              <line id="Línea_604" data-name="Línea 604" x2="1.979" transform="translate(14.673 49.733)" fill="none" stroke="#000" stroke-linecap="round" stroke-linejoin="round" stroke-miterlimit="10" stroke-width="2.051"/>
              <line id="Línea_605" data-name="Línea 605" x2="1.099" transform="translate(9.505 49.733)" fill="none" stroke="#000" stroke-linecap="round" stroke-linejoin="round" stroke-miterlimit="10" stroke-width="2.051"/>
              <line id="Línea_606" data-name="Línea 606" x2="1.979" transform="translate(3.457 49.733)" fill="none" stroke="#000" stroke-linecap="round" stroke-linejoin="round" stroke-miterlimit="10" stroke-width="2.051"/>
              <g id="Grupo_1103341" data-name="Grupo 1103341">
                <line id="Línea_607" data-name="Línea 607" x2="1.099" transform="translate(6.903 54.543)" fill="none" stroke="#000" stroke-linecap="round" stroke-linejoin="round" stroke-miterlimit="10" stroke-width="2.051"/>
                <line id="Línea_608" data-name="Línea 608" x2="1.1" transform="translate(12.107 54.543)" fill="none" stroke="#000" stroke-linecap="round" stroke-linejoin="round" stroke-miterlimit="10" stroke-width="2.051"/>
              </g>
            </g>
            <path id="Trazado_878735" data-name="Trazado 878735" d="M11.362,45.335H8.747a.41.41,0,0,1-.41-.41V41.83a1.718,1.718,0,0,1,1.718-1.718h0a1.718,1.718,0,0,1,1.718,1.718v3.095A.41.41,0,0,1,11.362,45.335Z" fill="#6c7fd8"/>
            <path id="Trazado_878736" data-name="Trazado 878736" d="M10.068,44.925V41.83a1.716,1.716,0,0,1,.852-1.482A1.716,1.716,0,0,0,8.337,41.83v3.095a.41.41,0,0,0,.41.41h1.732A.41.41,0,0,1,10.068,44.925Z" fill="#4f66d0"/>
            <path id="Trazado_878737" data-name="Trazado 878737" d="M11.362,45.335H8.747a.41.41,0,0,1-.41-.41V41.83a1.718,1.718,0,0,1,1.718-1.718h0a1.718,1.718,0,0,1,1.718,1.718v3.095A.41.41,0,0,1,11.362,45.335Z" fill="none" stroke="#000" stroke-linecap="round" stroke-linejoin="round" stroke-miterlimit="10" stroke-width="2.051"/>
            <path id="Trazado_878738" data-name="Trazado 878738" d="M4.423,27.468a.684.684,0,0,1,.684.684V29.4a.684.684,0,0,0,.684.684H7.722a.684.684,0,0,0,.684-.684V28.151a.684.684,0,0,1,.684-.684H11.02a.684.684,0,0,1,.684.684V29.4a.684.684,0,0,0,.684.684h1.931A.684.684,0,0,0,15,29.4V28.151a.684.684,0,0,1,.684-.684h.274L10.425,15.926a.41.41,0,0,0-.74,0L4.149,27.468Z" fill="#8795de"/>
            <g id="Grupo_1103343" data-name="Grupo 1103343">
              <path id="Trazado_878739" data-name="Trazado 878739" d="M8.069,27.468H7.795l4.083-8.512-1.453-3.03a.41.41,0,0,0-.74,0L4.149,27.468h.274a.684.684,0,0,1,.684.684V29.4a.684.684,0,0,0,.684.684H7.722a.684.684,0,0,0,.684-.684V28.151a.678.678,0,0,1,.174-.451A.68.68,0,0,0,8.069,27.468Z" fill="#6c7fd8"/>
            </g>
            <path id="Trazado_878740" data-name="Trazado 878740" d="M4.423,27.468a.684.684,0,0,1,.684.684V29.4a.684.684,0,0,0,.684.684H7.722a.684.684,0,0,0,.684-.684V28.151a.684.684,0,0,1,.684-.684H11.02a.684.684,0,0,1,.684.684V29.4a.684.684,0,0,0,.684.684h1.931A.684.684,0,0,0,15,29.4V28.151a.684.684,0,0,1,.684-.684h.274L10.425,15.926a.41.41,0,0,0-.74,0L4.149,27.468Z" fill="none" stroke="#000" stroke-linecap="round" stroke-linejoin="round" stroke-miterlimit="10" stroke-width="2.051"/>
            <path id="Trazado_878741" data-name="Trazado 878741" d="M15,28.151V29.4a.684.684,0,0,1-.684.684H12.388A.684.684,0,0,1,11.7,29.4V28.151a.684.684,0,0,0-.684-.684H9.089a.684.684,0,0,0-.684.684V29.4a.684.684,0,0,1-.684.684H5.79a.684.684,0,0,1-.684-.684V28.151a.684.684,0,0,0-.684-.684H2.492a.684.684,0,0,0-.684.684v5.921a1.367,1.367,0,0,0,1.367,1.367H16.934A1.367,1.367,0,0,0,18.3,34.072V28.151a.684.684,0,0,0-.684-.684H15.686A.684.684,0,0,0,15,28.151Z" fill="#e2e2e2"/>
            <g id="Grupo_1103344" data-name="Grupo 1103344">
              <path id="Trazado_878742" data-name="Trazado 878742" d="M6.183,34.072V30.079H5.79a.684.684,0,0,1-.684-.684V28.151a.684.684,0,0,0-.684-.684H2.492a.684.684,0,0,0-.684.684v5.921a1.367,1.367,0,0,0,1.367,1.367H7.55A1.367,1.367,0,0,1,6.183,34.072Z" fill="#cecece"/>
            </g>
            <path id="Trazado_878743" data-name="Trazado 878743" d="M14.492,35.439h2.442A1.367,1.367,0,0,0,18.3,34.072V28.151a.684.684,0,0,0-.684-.684H15.686a.684.684,0,0,0-.684.684V29.4a.684.684,0,0,1-.684.684H12.388A.684.684,0,0,1,11.7,29.4V28.151a.684.684,0,0,0-.684-.684H9.089a.684.684,0,0,0-.684.684V29.4a.684.684,0,0,1-.684.684H5.79a.684.684,0,0,1-.684-.684V28.151a.684.684,0,0,0-.684-.684H2.492a.684.684,0,0,0-.684.684v5.921a1.367,1.367,0,0,0,1.367,1.367H9.707" fill="none" stroke="#000" stroke-linecap="round" stroke-linejoin="round" stroke-miterlimit="10" stroke-width="2.051"/>
          </g>
          <g id="Grupo_1103346" data-name="Grupo 1103346">
            <path id="Trazado_878744" data-name="Trazado 878744" d="M37.461,33H32.539V29.308A2.461,2.461,0,0,1,35,26.847h0a2.461,2.461,0,0,1,2.461,2.461Z" fill="#6c7fd8"/>
            <path id="Trazado_878745" data-name="Trazado 878745" d="M36.094,27.106a2.457,2.457,0,0,0-3.555,2.2V33h2.188V29.308A2.459,2.459,0,0,1,36.094,27.106Z" fill="#4f66d0"/>
            <path id="Trazado_878746" data-name="Trazado 878746" d="M37.461,33H32.539V29.308A2.461,2.461,0,0,1,35,26.847h0a2.461,2.461,0,0,1,2.461,2.461Z" fill="none" stroke="#000" stroke-linecap="round" stroke-linejoin="round" stroke-miterlimit="10" stroke-width="2.051"/>
            <line id="Línea_609" data-name="Línea 609" x1="6.152" transform="translate(31.924 33)" fill="none" stroke="#000" stroke-linecap="round" stroke-linejoin="round" stroke-miterlimit="10" stroke-width="2.051"/>
          </g>
          <line id="Línea_610" data-name="Línea 610" x2="2.474" transform="translate(40.773 36.094)" fill="none" stroke="#000" stroke-linecap="round" stroke-linejoin="round" stroke-miterlimit="10" stroke-width="2.051"/>
          <line id="Línea_611" data-name="Línea 611" x2="1.374" transform="translate(34.313 37.188)" fill="none" stroke="#000" stroke-linecap="round" stroke-linejoin="round" stroke-miterlimit="10" stroke-width="2.051"/>
          <g id="Grupo_1103347" data-name="Grupo 1103347">
            <line id="Línea_612" data-name="Línea 612" x2="1.374" transform="translate(20.5 60.178)" fill="none" stroke="#000" stroke-linecap="round" stroke-linejoin="round" stroke-miterlimit="10" stroke-width="2.051"/>
            <line id="Línea_613" data-name="Línea 613" x2="1.374" transform="translate(25.86 60.178)" fill="none" stroke="#000" stroke-linecap="round" stroke-linejoin="round" stroke-miterlimit="10" stroke-width="2.051"/>
            <line id="Línea_614" data-name="Línea 614" x2="1.374" transform="translate(42.765 60.178)" fill="none" stroke="#000" stroke-linecap="round" stroke-linejoin="round" stroke-miterlimit="10" stroke-width="2.051"/>
            <line id="Línea_615" data-name="Línea 615" x2="1.374" transform="translate(48.126 60.178)" fill="none" stroke="#000" stroke-linecap="round" stroke-linejoin="round" stroke-miterlimit="10" stroke-width="2.051"/>
          </g>
          <g id="Grupo_1103348" data-name="Grupo 1103348">
            <line id="Línea_616" data-name="Línea 616" x2="1.374" transform="translate(23.18 64.714)" fill="none" stroke="#000" stroke-linecap="round" stroke-linejoin="round" stroke-miterlimit="10" stroke-width="2.051"/>
            <line id="Línea_617" data-name="Línea 617" x2="1.374" transform="translate(45.445 64.714)" fill="none" stroke="#000" stroke-linecap="round" stroke-linejoin="round" stroke-miterlimit="10" stroke-width="2.051"/>
          </g>
          <line id="Línea_618" data-name="Línea 618" x2="2.474" transform="translate(26.754 36.094)" fill="none" stroke="#000" stroke-linecap="round" stroke-linejoin="round" stroke-miterlimit="10" stroke-width="2.051"/>
          <g id="Grupo_1103350" data-name="Grupo 1103350">
            <line id="Línea_619" data-name="Línea 619" x2="1.979" transform="translate(64.563 49.733)" fill="none" stroke="#000" stroke-linecap="round" stroke-linejoin="round" stroke-miterlimit="10" stroke-width="2.051"/>
            <line id="Línea_620" data-name="Línea 620" x2="1.099" transform="translate(59.396 49.733)" fill="none" stroke="#000" stroke-linecap="round" stroke-linejoin="round" stroke-miterlimit="10" stroke-width="2.051"/>
            <line id="Línea_621" data-name="Línea 621" x2="1.979" transform="translate(53.348 49.733)" fill="none" stroke="#000" stroke-linecap="round" stroke-linejoin="round" stroke-miterlimit="10" stroke-width="2.051"/>
            <g id="Grupo_1103349" data-name="Grupo 1103349">
              <line id="Línea_622" data-name="Línea 622" x2="1.1" transform="translate(56.793 54.543)" fill="none" stroke="#000" stroke-linecap="round" stroke-linejoin="round" stroke-miterlimit="10" stroke-width="2.051"/>
              <line id="Línea_623" data-name="Línea 623" x2="1.099" transform="translate(61.998 54.543)" fill="none" stroke="#000" stroke-linecap="round" stroke-linejoin="round" stroke-miterlimit="10" stroke-width="2.051"/>
            </g>
          </g>
        </g>
        <g id="Grupo_1103354" data-name="Grupo 1103354">
          <g id="Grupo_1103352" data-name="Grupo 1103352">
            <line id="Línea_624" data-name="Línea 624" y2="2.871" transform="translate(21.123 27.344)" fill="none" stroke="#000" stroke-linecap="round" stroke-linejoin="round" stroke-miterlimit="10" stroke-width="2.051"/>
            <line id="Línea_625" data-name="Línea 625" y2="2.871" transform="translate(23.994 27.344)" fill="none" stroke="#000" stroke-linecap="round" stroke-linejoin="round" stroke-miterlimit="10" stroke-width="2.051"/>
          </g>
          <g id="Grupo_1103353" data-name="Grupo 1103353">
            <line id="Línea_626" data-name="Línea 626" y2="2.871" transform="translate(46.006 27.344)" fill="none" stroke="#000" stroke-linecap="round" stroke-linejoin="round" stroke-miterlimit="10" stroke-width="2.051"/>
            <line id="Línea_627" data-name="Línea 627" y2="2.871" transform="translate(48.877 27.344)" fill="none" stroke="#000" stroke-linecap="round" stroke-linejoin="round" stroke-miterlimit="10" stroke-width="2.051"/>
          </g>
        </g>
      </g>
    </g>
  </g>
</svg>
