<svg xmlns="http://www.w3.org/2000/svg" xmlns:xlink="http://www.w3.org/1999/xlink" width="97.92" height="107" viewBox="0 0 97.92 107">
  <defs>
    <clipPath id="clip-path">
      <rect id="Rectángulo_403805" data-name="Rectángulo 403805" width="70" height="70" transform="translate(345.19 873)" fill="#fff" stroke="#707070" stroke-width="1"/>
    </clipPath>
  </defs>
  <g id="Grupo_1103326" data-name="Grupo 1103326" transform="translate(-331.19 -859.502)">
    <path id="Trazado_876162" data-name="Trazado 876162" d="M-17834.732-9565.178v97.92h81.432l25.568-50.035-25.568-47.885Z" transform="translate(-9136.067 18694.234) rotate(90)" fill="#ffa06f"/>
    <g id="Enmascarar_grupo_1098700" data-name="Enmascarar grupo 1098700" clip-path="url(#clip-path)">
      <g id="mujer" transform="translate(345.19 873)">
        <g id="Grupo_1103358" data-name="Grupo 1103358">
          <path id="Trazado_878771" data-name="Trazado 878771" d="M50.59,39.052H18.878l4.331,29.922,20.678,0L45.8,67.96l.847,1.014h7.879Z" fill="#d97b7b"/>
          <path id="Trazado_878772" data-name="Trazado 878772" d="M19.419,26.5l3.79,42.471H11.37Z" fill="#d16161"/>
          <path id="Trazado_878773" data-name="Trazado 878773" d="M43.887,68.972l2.762,0c1.265-1.635,1.94-4.133,3.85-14.966l4.029,14.966h4.1S50.351,29.681,50.5,26.5c-.825-5.33-6.2-10.954-8.466-11-4.922-.1-4.07,11.253-4.07,20.2,0,10.479,5.49,11.963,5.924,33.273" fill="#d16161"/>
          <path id="Trazado_878774" data-name="Trazado 878774" d="M35,40.933a28.734,28.734,0,0,1-8.86-1.091v6.836s3.036,2.458,8.86,2.458a17.761,17.761,0,0,0,5.749-.9c-.891-2.71-.393-4.9-.917-7.437C38.816,40.879,36.294,40.933,35,40.933Z" fill="#f8e883"/>
          <path id="Trazado_878775" data-name="Trazado 878775" d="M43.86,39.842a23.239,23.239,0,0,1-5.4.953,66.878,66.878,0,0,0,2.284,7.437,10.921,10.921,0,0,0,3.112-1.554Z" fill="#eec06b"/>
          <path id="Trazado_878776" data-name="Trazado 878776" d="M27.509,36.772v5.8S29.352,45.035,35,45.035a14.212,14.212,0,0,0,4.452-.638l-.2-8.26Z" fill="#e3a76f"/>
          <path id="Trazado_878777" data-name="Trazado 878777" d="M42.491,42.577v-11.5H27.509v5.694a10.984,10.984,0,0,0,6.124,2.233,9.9,9.9,0,0,0,4.411-1.186A27,27,0,0,0,39.452,44.4a6.39,6.39,0,0,0,3.039-1.82Z" fill="#ab7b64"/>
          <path id="Trazado_878778" data-name="Trazado 878778" d="M50.411,36.137a123.909,123.909,0,0,0-1.18-13.044c-.157,3.369-2.877,8.19-7.139,11.138.412,9.161,6.622,11.483,7.228,30.657,2.322-4.782,4.783-13.981,1.09-28.751Z" fill="#8c818f"/>
          <path id="Trazado_878779" data-name="Trazado 878779" d="M49.232,23.092c-.825-5.33-2.2-10.278-4.464-10.323-4.922-.1-4.07,11.253-4.07,20.2,0,10.911,5.951,12.07,5.951,36.01a15.74,15.74,0,0,0,2.672-4.087c-.585-18.5-5.113-21.311-5.8-29.711a1.7,1.7,0,0,1,.638-1.465,14.49,14.49,0,0,0,5.073-10.618Z" fill="#655e67"/>
          <path id="Trazado_878780" data-name="Trazado 878780" d="M23.5,29.565s-2.254,5.411-2.545,6.571c-3.693,14.77.136,23.969,2.458,28.751.524-16.573,4.214-20.556,5.471-27.248-.468-.257-5.383-8.074-5.383-8.074Z" fill="#8c818f"/>
          <path id="Trazado_878781" data-name="Trazado 878781" d="M22.323,36.137c.161-.645.507-1.741.782-2.586a.646.646,0,0,1,1.127-.193,17.99,17.99,0,0,0,3.277,3.415,13.634,13.634,0,0,0,1.375.867,24.935,24.935,0,0,0,.418-4.675c0-8.942.852-20.294-4.07-20.2s-5.644,23.367-5.644,23.367c-5.855,23.42,3.762,32.838,3.762,32.838,0-1.443.022-2.8.062-4.087-2.322-4.782-4.783-13.981-1.09-28.751Z" fill="#655e67"/>
          <path id="Trazado_878782" data-name="Trazado 878782" d="M26,16.406v7.219C26,29.854,30.627,34.9,35,34.9c4.8,0,11.279-5.05,11.279-11.279V10.309L35,5.128C34.9,5.194,26,10.218,26,16.406Z" fill="#e3a76f"/>
          <path id="Trazado_878783" data-name="Trazado 878783" d="M27.369,23.625V16.406c0-6.188,7.53-11.212,7.629-11.278l0,0L23.721,10.309V23.625C23.721,29.854,30.2,34.9,35,34.9,31.753,34.9,27.369,29.854,27.369,23.625Z" fill="#ab7b64"/>
          <path id="Trazado_878784" data-name="Trazado 878784" d="M24.543,16.478c1.085-4.326,4.96-9.3,10.457-9.3s9.372,4.974,10.457,9.3l13.172,52.5h5.754L50.874,15.143C49.227,8.576,45.259,1.025,35,1.025a15.688,15.688,0,0,0-7.417,1.689A33.631,33.631,0,0,0,20.9,15.143C19.566,20.47,8.761,68.974,8.761,68.974H11.37l13.172-52.5Z" fill="#e7afaf"/>
          <path id="Trazado_878785" data-name="Trazado 878785" d="M27.583,2.714c-4.942,2.6-7.286,7.761-8.457,12.429L5.617,68.974H8.761L22.27,15.143c.974-3.88,2.286-8.938,5.313-12.429Z" fill="#d97b7b"/>
        </g>
        <g id="Grupo_1103359" data-name="Grupo 1103359">
          <path id="Trazado_878786" data-name="Trazado 878786" d="M12.365,69.224a1.025,1.025,0,0,1-1.989-.5l8.238-32.832v0h0a1.025,1.025,0,0,1,1.989.5l0,.006c-2.941,11.768-1.835,19.81-.389,24.484a23.9,23.9,0,0,0,2.146,4.976,86.169,86.169,0,0,1,.993-11.774,1.025,1.025,0,0,1,2.024.328,91.45,91.45,0,0,0-1,14.569,1.025,1.025,0,0,1-1.744.732c-.105-.1-2.6-2.6-4.326-8.059a36.566,36.566,0,0,1-1.578-9.813ZM28.685,42.3c.73.6,2.589,1.713,6.315,1.713s5.587-1.119,6.315-1.713a28.211,28.211,0,0,1-1.59-7.578A10.774,10.774,0,0,1,35,35.929a10.8,10.8,0,0,1-4.724-1.216A28.2,28.2,0,0,1,28.685,42.3ZM35,32.641a1.025,1.025,0,0,1,1.025,1.025V33.8a11.514,11.514,0,0,0,5.72-2.95q.415-.381.784-.784a3.023,3.023,0,0,1-1.227-.43,2.761,2.761,0,0,1-1.237-3.165,2.322,2.322,0,0,1,2.143-1.817,1.025,1.025,0,0,1,.027,2.051.749.749,0,0,0,.146,1.187,1.093,1.093,0,0,0,.977.062,2.917,2.917,0,0,0,1.548-1.972,2.787,2.787,0,0,0-.2-2.5A2.523,2.523,0,0,0,42.6,22.6a12.139,12.139,0,0,0-2.266.47,25.808,25.808,0,0,1-4.3.852v1.542a1.025,1.025,0,1,1-2.051,0V23.921a25.818,25.818,0,0,1-4.3-.852A12.139,12.139,0,0,0,27.4,22.6a2.523,2.523,0,0,0-2.113.875,2.788,2.788,0,0,0-.2,2.5,2.917,2.917,0,0,0,1.548,1.972,1.094,1.094,0,0,0,.977-.062.749.749,0,0,0,.146-1.188,1.025,1.025,0,0,1,.027-2.05,2.322,2.322,0,0,1,2.143,1.817A2.761,2.761,0,0,1,28.7,29.633a3.025,3.025,0,0,1-1.236.431,12.032,12.032,0,0,0,6.513,3.729v-.126A1.025,1.025,0,0,1,35,32.641ZM31.333,21.377a19.6,19.6,0,0,0,2.641.485V18.3a1.025,1.025,0,1,1,2.051,0v3.558a20.369,20.369,0,0,0,2.827-.53V19.746a1.025,1.025,0,1,1,2.051,0v1.061a7.591,7.591,0,0,1,1.693-.259,5.021,5.021,0,0,1,2.658.694s0-1.3.006-1.339c0,0-.824-3.283-.838-3.336a1.026,1.026,0,0,1-1.694.388c-.664-.664-3.284-.776-4.06,0a1.025,1.025,0,0,1-1.45-1.45,5.165,5.165,0,0,1,3.515-1.137,5.268,5.268,0,0,1,3.3,1C42.611,11.687,39.237,8.2,35,8.2s-7.61,3.484-9.03,7.165c1.619-1.391,5.331-1.345,6.813.137a1.025,1.025,0,0,1-1.45,1.45c-.776-.776-3.4-.664-4.061,0a1.026,1.026,0,0,1-1.694-.388c-.014.053-.838,3.336-.838,3.336,0,.037.006,1.339.006,1.339a5.02,5.02,0,0,1,2.658-.694,8.245,8.245,0,0,1,1.879.3V19.746a1.025,1.025,0,0,1,2.051,0ZM65.378,68.725a1.025,1.025,0,0,1-1.989.5L49.88,15.392a20.252,20.252,0,0,0-4.809-9.435,1.025,1.025,0,1,1,1.462-1.438,22.24,22.24,0,0,1,5.336,10.375Zm-5.754,0a1.025,1.025,0,0,1-1.989.5l-4.363-17.39a36.564,36.564,0,0,1-1.578,9.813c-1.724,5.463-4.221,7.956-4.326,8.059a1.025,1.025,0,0,1-1.744-.732c0-10.281-1.11-16.307-2.362-20.712a15.654,15.654,0,0,1-4.047,1.459,1.025,1.025,0,0,1-.438-2,13.2,13.2,0,0,0,3.874-1.465c-.217-.674-.434-1.313-.645-1.93a12.63,12.63,0,0,1-7,1.738,12.615,12.615,0,0,1-7.005-1.736c-.215.626-.431,1.263-.646,1.929A15.007,15.007,0,0,0,35,48.111a1.025,1.025,0,0,1,0,2.051,17.342,17.342,0,0,1-8.264-1.9c-.181.635-.358,1.3-.531,2.018a1.025,1.025,0,1,1-1.993-.482c.637-2.633,1.361-4.74,2-6.6a28.57,28.57,0,0,0,2.06-9.7,15.214,15.214,0,0,1-1.406-1.146,12.86,12.86,0,0,1-3.772-5.9l-1.543,6.149a1.025,1.025,0,0,1-1.989-.5l3.985-15.882C24.8,11.221,29.141,6.152,35,6.152s10.2,5.069,11.452,10.076ZM46.9,26.457a12.867,12.867,0,0,1-3.771,5.9A15.253,15.253,0,0,1,41.728,33.5a28.58,28.58,0,0,0,2.06,9.7c1.6,4.661,3.565,10.375,3.851,22.651a23.9,23.9,0,0,0,2.147-4.976c1.446-4.675,2.553-12.719-.39-24.49l0-.009ZM6.611,69.224a1.025,1.025,0,1,1-1.989-.5L18.131,14.893a22.732,22.732,0,0,1,4.946-9.964A15.461,15.461,0,0,1,35,0a16.811,16.811,0,0,1,7.872,1.793,1.025,1.025,0,1,1-.951,1.817A14.789,14.789,0,0,0,35,2.051c-7.652,0-12.658,4.489-14.88,13.341L6.611,69.224ZM35,30.59a6.134,6.134,0,0,1-3.224-.985,1.025,1.025,0,0,1,1.156-1.694,3.72,3.72,0,0,0,4.136,0,1.025,1.025,0,0,1,1.156,1.694A6.135,6.135,0,0,1,35,30.59Z"/>
        </g>
      </g>
    </g>
  </g>
</svg>
