<svg xmlns="http://www.w3.org/2000/svg" xmlns:xlink="http://www.w3.org/1999/xlink" width="97.92" height="107" viewBox="0 0 97.92 107">
  <defs>
    <clipPath id="clip-path">
      <rect id="Rectángulo_403805" data-name="Rectángulo 403805" width="70" height="70" transform="translate(345.19 873)" fill="#fff" stroke="#707070" stroke-width="1"/>
    </clipPath>
  </defs>
  <g id="Grupo_1103838" data-name="Grupo 1103838" transform="translate(-331.19 -872.498)">
    <g id="Grupo_1103277" data-name="Grupo 1103277" transform="translate(0 12.997)">
      <path id="Trazado_876162" data-name="Trazado 876162" d="M-17834.732-9565.178v97.92h81.432l25.568-50.035-25.568-47.885Z" transform="translate(-9136.067 18694.234) rotate(90)" fill="#8ca7b8"/>
      <g id="Enmascarar_grupo_1098690" data-name="Enmascarar grupo 1098690" clip-path="url(#clip-path)">
        <g id="bosque" transform="translate(345.19 873)">
          <g id="Grupo_1103281" data-name="Grupo 1103281">
            <g id="Grupo_1103280" data-name="Grupo 1103280">
              <path id="Trazado_878603" data-name="Trazado 878603" d="M65.466,30.242a2.1,2.1,0,0,0-1.393-3.664H59.542a4.325,4.325,0,0,0-6.653-3,5.8,5.8,0,0,0-9.466,6.662H65.466Z" fill="#a6e7f0"/>
            </g>
          </g>
          <g id="Grupo_1103283" data-name="Grupo 1103283">
            <g id="Grupo_1103282" data-name="Grupo 1103282">
              <path id="Trazado_878604" data-name="Trazado 878604" d="M68.976,67.087,47.683,8.416a1.832,1.832,0,0,0-3.394-.034L35.842,33.257a1.832,1.832,0,0,1-3.274.215l-.87-1.5a1.832,1.832,0,0,0-3.209.075L7.938,67.087Z" fill="#a8d3d8"/>
            </g>
          </g>
          <g id="Grupo_1103285" data-name="Grupo 1103285">
            <g id="Grupo_1103284" data-name="Grupo 1103284">
              <path id="Trazado_878605" data-name="Trazado 878605" d="M47.683,8.416a1.832,1.832,0,0,0-3.394-.034L43.942,9.4,64.876,67.087h4.1Z" fill="#8ebac5"/>
            </g>
          </g>
          <g id="Grupo_1103287" data-name="Grupo 1103287">
            <g id="Grupo_1103286" data-name="Grupo 1103286">
              <path id="Trazado_878606" data-name="Trazado 878606" d="M52.676,22.173,47.683,8.416a1.832,1.832,0,0,0-3.394-.034L39.605,22.173,42.218,25.4l3.572-5.328,4.039,7.816Z" fill="#fff9f0"/>
            </g>
          </g>
          <g id="Grupo_1103289" data-name="Grupo 1103289">
            <g id="Grupo_1103288" data-name="Grupo 1103288">
              <path id="Trazado_878607" data-name="Trazado 878607" d="M47.683,8.416a1.832,1.832,0,0,0-3.394-.034L43.942,9.4l4.634,12.77-.835,1.676,2.087,4.039,2.847-5.715Z" fill="#ffefe1"/>
            </g>
          </g>
          <g id="Grupo_1103291" data-name="Grupo 1103291">
            <g id="Grupo_1103290" data-name="Grupo 1103290">
              <path id="Trazado_878608" data-name="Trazado 878608" d="M17.6,53.25h5.406V66.963H17.6Z" fill="#d6694b"/>
            </g>
          </g>
          <g id="Grupo_1103293" data-name="Grupo 1103293">
            <g id="Grupo_1103292" data-name="Grupo 1103292">
              <path id="Trazado_878609" data-name="Trazado 878609" d="M26.679,42.257l-.536-.937,4.5.018L25.5,32.347l-1.253-2.191,2.593.01L23.6,24.489l-3.248-5.678-3.293,5.652-3.294,5.652,2.657.011-1.271,2.181L9.933,41.254l4.566.018-.544.933L7.549,53.2l12.724.051L33,53.3Z" fill="#46cc8d"/>
            </g>
          </g>
          <g id="Grupo_1103295" data-name="Grupo 1103295">
            <g id="Grupo_1103294" data-name="Grupo 1103294">
              <path id="Trazado_878610" data-name="Trazado 878610" d="M26.679,42.257l-.527-.921-3.029-.012a.624.624,0,0,0-.544.933l6.308,11.028L33,53.3Z" fill="#08b865"/>
            </g>
          </g>
          <g id="Grupo_1103297" data-name="Grupo 1103297">
            <g id="Grupo_1103296" data-name="Grupo 1103296">
              <path id="Trazado_878611" data-name="Trazado 878611" d="M19.5,24.489l2.6,4.552a.749.749,0,0,1-.653,1.12.749.749,0,0,0-.653,1.12l.609,1.065,5.133,8.974,4.109.017L25.5,32.347l-1.253-2.191,2.593.011L23.6,24.489l-3.248-5.678-2.069,3.55Z" fill="#08b865"/>
            </g>
          </g>
          <g id="Grupo_1103299" data-name="Grupo 1103299">
            <g id="Grupo_1103298" data-name="Grupo 1103298">
              <path id="Trazado_878612" data-name="Trazado 878612" d="M29.49,11.678a2.09,2.09,0,0,0,.7-1.507,2.142,2.142,0,0,0-2.156-2.157H23.566a4.325,4.325,0,0,0-6.653-3A5.8,5.8,0,0,0,6.585,8.731c0,.025,0,.049,0,.074a2.976,2.976,0,0,0,2.983,2.874H29.49Z" fill="#a6e7f0"/>
            </g>
          </g>
          <g id="Grupo_1103301" data-name="Grupo 1103301">
            <g id="Grupo_1103300" data-name="Grupo 1103300">
              <path id="Trazado_878613" data-name="Trazado 878613" d="M13.131,57.23v9.989H8.117V57.6" fill="#d6694b"/>
            </g>
          </g>
          <g id="Grupo_1103303" data-name="Grupo 1103303">
            <g id="Grupo_1103302" data-name="Grupo 1103302">
              <path id="Trazado_878614" data-name="Trazado 878614" d="M15.269,49.222l-.391-.683,3.28.013L14.413,42l-.913-1.6,1.889.008L13.023,36.28l-2.366-4.136-2.4,4.117-2.4,4.117,1.935.008-.926,1.588-3.8,6.518L6.4,48.5l-.4.68L1.334,57.192l9.268.037,9.268.037Z" fill="#46cc8d"/>
            </g>
          </g>
          <g id="Grupo_1103305" data-name="Grupo 1103305">
            <g id="Grupo_1103304" data-name="Grupo 1103304">
              <path id="Trazado_878615" data-name="Trazado 878615" d="M8.924,36.28,10.9,39.733a.454.454,0,0,1-.4.68h-.316a.454.454,0,0,0-.4.68l.522.913,3.355,5.866a.454.454,0,0,1-.4.68l-1.707-.007a.454.454,0,0,0-.4.68l4.592,8.028,4.109.017-4.6-8.045-.391-.683,3.28.013L14.413,42l-.913-1.6,1.889.008L13.023,36.28l-2.366-4.136-2.069,3.55Z" fill="#08b865"/>
            </g>
          </g>
          <g id="Grupo_1103307" data-name="Grupo 1103307">
            <g id="Grupo_1103306" data-name="Grupo 1103306">
              <path id="Trazado_878616" data-name="Trazado 878616" d="M58.65,58.5h4.375v8.715H58.65Z" fill="#d6694b"/>
            </g>
          </g>
          <g id="Grupo_1103309" data-name="Grupo 1103309">
            <g id="Grupo_1103308" data-name="Grupo 1103308">
              <path id="Trazado_878617" data-name="Trazado 878617" d="M64.89,51.517l-.341-.6,2.862.011-3.268-5.713-.8-1.393L65,43.833l-2.064-3.608-2.064-3.608-2.093,3.592L56.681,43.8l1.688.007-.808,1.386-3.314,5.687,2.9.012-.346.593-4.071,6.987,8.086.033,8.086.033Z" fill="#46cc8d"/>
            </g>
          </g>
          <g id="Grupo_1103311" data-name="Grupo 1103311">
            <g id="Grupo_1103310" data-name="Grupo 1103310">
              <path id="Trazado_878618" data-name="Trazado 878618" d="M58.831,40.225l1.655,2.893a.476.476,0,0,1-.415.712.476.476,0,0,0-.415.712l.387.677,2.188,3.825a1.256,1.256,0,0,1-1.1,1.88.4.4,0,0,0-.346.593l4.005,7,4.109.017L64.89,51.517l-.341-.6,2.862.011-3.268-5.713-.8-1.392,1.648.007-2.064-3.608-2.064-3.608L58.8,40.167Z" fill="#08b865"/>
            </g>
          </g>
          <g id="Grupo_1103313" data-name="Grupo 1103313">
            <g id="Grupo_1103312" data-name="Grupo 1103312">
              <path id="Trazado_878619" data-name="Trazado 878619" d="M33.848,67.218a4.822,4.822,0,0,0-9.642,0Z" fill="#08b865"/>
            </g>
          </g>
          <g id="Grupo_1103315" data-name="Grupo 1103315">
            <g id="Grupo_1103314" data-name="Grupo 1103314">
              <path id="Trazado_878620" data-name="Trazado 878620" d="M60.143,67.218a4.822,4.822,0,0,0-9.642,0Z" fill="#46cc8d"/>
            </g>
          </g>
          <g id="Grupo_1103317" data-name="Grupo 1103317">
            <g id="Grupo_1103316" data-name="Grupo 1103316">
              <path id="Trazado_878621" data-name="Trazado 878621" d="M24.674,67.126a6.377,6.377,0,0,0-12.752,0Z" fill="#46cc8d"/>
            </g>
          </g>
          <g id="Grupo_1103318" data-name="Grupo 1103318">
            <path id="Trazado_878622" data-name="Trazado 878622" d="M69.939,66.737l-2.607-7.183,1.569.006h0a1.025,1.025,0,0,0,.889-1.534L66.32,51.953l1.087,0h0a1.025,1.025,0,0,0,.89-1.534l-3.187-5.572a1.025,1.025,0,0,0,.771-1.527l-4.128-7.217a1.024,1.024,0,0,0-.885-.516h0a1.025,1.025,0,0,0-.886.509l-.716,1.228-2.2-6.061h8.4a1.025,1.025,0,0,0,.681-.259,3.121,3.121,0,0,0-2.074-5.455H60.352a5.351,5.351,0,0,0-6.624-3.482l-5.082-14-.01-.026a2.856,2.856,0,0,0-5.294-.053q-.014.032-.025.065L37.269,25.866a1.025,1.025,0,1,0,1.941.659l.768-2.262,1.443,1.783a1.025,1.025,0,0,0,1.648-.074l2.606-3.888,3.243,6.275a1.025,1.025,0,0,0,.911.554h.008a1.025,1.025,0,0,0,.91-.568l1.782-3.576,5.395,14.865L55.8,43.284a1.025,1.025,0,0,0,.8,1.537l-3.23,5.543a1.025,1.025,0,0,0,.881,1.541l1.127,0-3.523,6.046a1.025,1.025,0,0,0,.881,1.541l4.9.02v2.4a5.835,5.835,0,0,0-8.02,4.143H34.743a5.846,5.846,0,0,0-10.09-2.654,7.341,7.341,0,0,0-.623-.889V54.29l8.962.036h0a1.025,1.025,0,0,0,.89-1.534L27.914,42.351l2.728.011h0a1.025,1.025,0,0,0,.89-1.534l-3.46-6.05,1.3-2.212.025-.046a.807.807,0,0,1,1.413-.033l.87,1.5a2.856,2.856,0,0,0,5.106-.335q.013-.032.025-.065l1.077-3.173a1.025,1.025,0,1,0-1.941-.659l-1.064,3.134a.807.807,0,0,1-1.43.068l-.87-1.5a2.856,2.856,0,0,0-4.99.091L26.9,32.727l-.88-1.539.818,0h0a1.025,1.025,0,0,0,.89-1.534L21.238,18.3a1.025,1.025,0,0,0-.886-.516h0a1.025,1.025,0,0,0-.886.509L12.876,29.6a1.025,1.025,0,0,0,.881,1.541l.881,0-1.7,2.922-1.389-2.429a1.025,1.025,0,0,0-.886-.516h0a1.025,1.025,0,0,0-.886.509l-4.8,8.233A1.025,1.025,0,0,0,5.855,41.4h.16l-3.83,6.572a1.025,1.025,0,0,0,.881,1.541l1.551.006L.449,56.676a1.025,1.025,0,0,0,.881,1.541l5.761.023v1.643a1.025,1.025,0,0,0,2.05,0V58.249l2.964.012v4.886a7.379,7.379,0,0,0-1.119,2.915H9.141V63.983a1.025,1.025,0,0,0-2.05,0v2.158H1.025a1.025,1.025,0,1,0,0,2.05H68.942a1.112,1.112,0,0,0,1-1.453ZM55.261,23.9a3.314,3.314,0,0,1,3.267,2.827,1.025,1.025,0,0,0,1.015.879h4.532a1.074,1.074,0,0,1,1.073,1.073,1.055,1.055,0,0,1-.147.541H56.323L54.429,24a3.3,3.3,0,0,1,.831-.106Zm-5.449,1.728L46.7,19.6a1.025,1.025,0,0,0-1.762-.1l-2.8,4.174-1.383-1.709L45.246,8.751a.807.807,0,0,1,1.479.03L51.562,22.11Zm17.7,40.438H64.05V59.541l1.1,0ZM58.035,51.407a1.025,1.025,0,0,0-.881-1.541l-1.127,0,3.228-5.539a1.025,1.025,0,0,0-.8-1.537l2.4-4.12,2.37,4.143a1.025,1.025,0,0,0-.771,1.527L65.641,49.9l-1.087,0h0a1.025,1.025,0,0,0-.89,1.534l.341.6h0L67.134,57.5l-12.622-.051ZM62,59.533v6.529h-.962A5.812,5.812,0,0,0,59.675,63.4V59.524ZM55.322,63.49a3.82,3.82,0,0,1,3.594,2.572H51.728A3.785,3.785,0,0,1,55.322,63.49Zm-26.3,0a3.818,3.818,0,0,1,3.594,2.572H25.609c-.016-.1-.034-.208-.054-.31A3.8,3.8,0,0,1,29.027,63.49Zm-7.047-2.7a7.4,7.4,0,0,0-3.356-.964V58.287l1.242.005h0a1.025,1.025,0,0,0,.89-1.534l-1.422-2.487,2.643.011v6.5ZM17.3,30.641a1.025,1.025,0,0,0-.881-1.541l-.881,0,4.8-8.236,4.733,8.274-.818,0h0a1.025,1.025,0,0,0-.89,1.534l5.514,9.64-2.728-.011h0a1.025,1.025,0,0,0-.89,1.534l5.972,10.441-13.063-.053L16.65,49.571l1.5.006h0a1.025,1.025,0,0,0,.89-1.534l-3.777-6.6h.118a1.025,1.025,0,0,0,.89-1.534l-2.167-3.788ZM7.282,49.021A1.025,1.025,0,0,0,6.4,47.48L4.85,47.474,8.68,40.9A1.025,1.025,0,0,0,7.8,39.36h-.16l3.01-5.166,2.969,5.19H13.5a1.025,1.025,0,0,0-.89,1.534l3.777,6.6-1.5-.006a1.008,1.008,0,0,0-.89.509,1.025,1.025,0,0,0,0,1.025L18.1,56.235,3.114,56.174Zm9.292,9.258v1.736a7.364,7.364,0,0,0-2.418,1.057v-2.8ZM18.3,61.865a5.326,5.326,0,0,1,5.226,4.2H13.072A5.326,5.326,0,0,1,18.3,61.865Z"/>
            <path id="Trazado_878623" data-name="Trazado 878623" d="M9.569,12.7h6.506a1.025,1.025,0,1,0,0-2.05H9.569A1.962,1.962,0,0,1,7.611,8.774v-.06a4.8,4.8,0,0,1,4.577-4.85,4.739,4.739,0,0,1,3.927,1.793,1.025,1.025,0,0,0,1.363.217,3.3,3.3,0,0,1,5.075,2.287,1.025,1.025,0,0,0,1.015.879h4.473a1.164,1.164,0,0,1,.83.353,1.033,1.033,0,0,1,.3.751,1.055,1.055,0,0,1-.147.511H20.174a1.025,1.025,0,0,0,0,2.05H29.49a1.025,1.025,0,0,0,.681-.259A3.133,3.133,0,0,0,31.219,10.2a3.066,3.066,0,0,0-.882-2.237,3.226,3.226,0,0,0-2.3-.973H24.376a5.351,5.351,0,0,0-7.244-3.255A6.762,6.762,0,0,0,12.1,1.815,6.863,6.863,0,0,0,5.56,8.75l0,.084A3.978,3.978,0,0,0,9.569,12.7Z"/>
          </g>
        </g>
      </g>
    </g>
  </g>
</svg>
