<svg xmlns="http://www.w3.org/2000/svg" xmlns:xlink="http://www.w3.org/1999/xlink" width="97.92" height="107" viewBox="0 0 97.92 107">
  <defs>
    <clipPath id="clip-path">
      <rect id="Rectángulo_403805" data-name="Rectángulo 403805" width="70" height="70" transform="translate(345.19 873)" fill="#fff" stroke="#707070" stroke-width="1"/>
    </clipPath>
    <clipPath id="clip-path-2">
      <path id="path3201" d="M0-70H70V0H0Z"/>
    </clipPath>
  </defs>
  <g id="Grupo_1103839" data-name="Grupo 1103839" transform="translate(-751.04 -872.498)">
    <g id="Grupo_1103278" data-name="Grupo 1103278" transform="translate(419.85 12.997)">
      <path id="Trazado_876162" data-name="Trazado 876162" d="M-17834.732-9565.178v97.92h81.432l25.568-50.035-25.568-47.885Z" transform="translate(-9136.067 18694.234) rotate(90)" fill="#8ca7b8"/>
      <g id="Enmascarar_grupo_1098691" data-name="Enmascarar grupo 1098691" clip-path="url(#clip-path)">
        <g id="g3195" transform="translate(345.19 943)">
          <g id="g3197">
            <g id="g3199" clip-path="url(#clip-path-2)">
              <g id="g3205" transform="translate(12.777 -44.505)">
                <path id="path3207" d="M0,0A2.742,2.742,0,0,0,2.742-2.742,2.742,2.742,0,0,0,0-5.485a2.763,2.763,0,0,0-.467.04c0-.013,0-.027,0-.04A4.039,4.039,0,0,0-4.5-9.524,4.039,4.039,0,0,0-8.544-5.485c0,.014,0,.027,0,.04a2.764,2.764,0,0,0-.467-.04,2.742,2.742,0,0,0-2.742,2.742A2.742,2.742,0,0,0-9.01,0Z" fill="#d5e8ed"/>
              </g>
              <g id="g3209" transform="translate(13.48 -49.894)">
                <path id="path3211" d="M0,0A2.653,2.653,0,0,0-1.169-.055c0-.014,0-.027,0-.04A4.039,4.039,0,0,0-5.207-4.135,4.024,4.024,0,0,0-7.942-3.068,4.047,4.047,0,0,1-6.833-1.333,1.967,1.967,0,0,0-5.5-.007L-5.469,0A2.773,2.773,0,0,1-3.432,2.531a2.742,2.742,0,0,1-2.74,2.858H-.7a2.742,2.742,0,0,0,2.74-2.858A2.773,2.773,0,0,0,0,0" fill="#bae1eb"/>
              </g>
              <g id="g3213" transform="translate(53.764 -59.451)">
                <path id="path3215" d="M0,0A2.742,2.742,0,0,0,2.742-2.742,2.742,2.742,0,0,0,0-5.485a2.766,2.766,0,0,0-.467.04c0-.013,0-.027,0-.04A4.039,4.039,0,0,0-4.5-9.524,4.039,4.039,0,0,0-8.544-5.485c0,.014,0,.027,0,.04a2.765,2.765,0,0,0-.467-.04,2.742,2.742,0,0,0-2.742,2.742A2.742,2.742,0,0,0-9.01,0Z" fill="#d5e8ed"/>
              </g>
              <g id="g3217" transform="translate(54.463 -64.841)">
                <path id="path3219" d="M0,0A2.655,2.655,0,0,0-1.166-.054c0-.014,0-.027,0-.04A4.039,4.039,0,0,0-5.2-4.134,4.024,4.024,0,0,0-7.938-3.067,4.048,4.048,0,0,1-6.827-1.325,1.95,1.95,0,0,0-5.5-.007L-5.469,0A2.772,2.772,0,0,1-3.428,2.527,2.742,2.742,0,0,1-6.168,5.39H-.7a2.742,2.742,0,0,0,2.74-2.863A2.772,2.772,0,0,0,0,0" fill="#bae1eb"/>
              </g>
              <g id="g3221" transform="translate(66.232 -47.311)">
                <path id="path3223" d="M0,0A2.742,2.742,0,0,0,2.742-2.742,2.742,2.742,0,0,0,0-5.485a2.763,2.763,0,0,0-.467.04c0-.013,0-.027,0-.04A4.039,4.039,0,0,0-4.5-9.524,4.039,4.039,0,0,0-8.544-5.485c0,.014,0,.027,0,.04a2.764,2.764,0,0,0-.467-.04,2.742,2.742,0,0,0-2.742,2.742A2.742,2.742,0,0,0-9.01,0Z" fill="#d5e8ed"/>
              </g>
              <g id="g3225" transform="translate(66.937 -52.7)">
                <path id="path3227" d="M0,0A2.656,2.656,0,0,0-1.171-.056c0-.014,0-.027,0-.04A4.039,4.039,0,0,0-5.209-4.135,4.024,4.024,0,0,0-7.944-3.069,4.047,4.047,0,0,1-6.833-1.327,1.945,1.945,0,0,0-5.505-.01l.037.01A2.773,2.773,0,0,1-3.433,2.533a2.743,2.743,0,0,1-2.74,2.855H-.7a2.743,2.743,0,0,0,2.74-2.855A2.773,2.773,0,0,0,0,0" fill="#bae1eb"/>
              </g>
              <g id="g3229" transform="translate(68.975 -32.074)">
                <path id="path3231" d="M0,0A7.192,7.192,0,0,0-7.053,5.79,5.512,5.512,0,0,0-9.48,5.23a5.537,5.537,0,0,0-5.537,5.537V31.048H0Z" fill="#66b399"/>
              </g>
              <g id="g3233" transform="translate(1.025 -32.074)">
                <path id="path3235" d="M0,0A7.192,7.192,0,0,1,7.053,5.79a5.538,5.538,0,0,1,7.963,4.977V31.048H0Z" fill="#66b399"/>
              </g>
              <g id="g3237" transform="translate(35 -7.769)">
                <path id="path3239" d="M0,0H-32.6l-1.376,6.744H33.975L32.6,0Z" fill="#f7b681"/>
              </g>
              <g id="g3241" transform="translate(65.032 -7.786)">
                <path id="path3243" d="M0,0-1.376-6.744H-58.688L-60.063,0H0Z" fill="#ea9955"/>
              </g>
              <g id="g3245" transform="translate(61.088 -14.546)">
                <path id="path3247" d="M0,0-1.376-6.744H-50.8L-52.177,0H0Z" fill="#f7b681"/>
              </g>
              <g id="g3249" transform="translate(57.145 -21.306)">
                <path id="path3251" d="M0,0-1.376-6.744h-41.54L-44.291,0H0Z" fill="#ea9955"/>
              </g>
              <g id="g3253" transform="translate(53.202 -28.067)">
                <path id="path3255" d="M0,0-1.376-6.744H-35.029L-36.4,0H0Z" fill="#f7b681"/>
              </g>
              <g id="g3257" transform="translate(49.259 -34.827)">
                <path id="path3259" d="M0,0-1.376-6.744H-27.143L-28.519,0H0Z" fill="#ea9955"/>
              </g>
              <path id="path3261" d="M43.666-41.571H26.334V-54.815H43.666Z" fill="#f7b681"/>
              <path id="path3263" d="M36.83-41.571h6.836V-54.815H36.83Z" fill="#f7a867"/>
              <path id="path3265" d="M37.629-40.7H32.371v-6.061h5.258Z" fill="#85667d"/>
              <path id="path3267" d="M41.292-1.025H28.708V-41.571H41.292Z" fill="#fff4c7"/>
              <g id="g3269" transform="translate(12.352 -44.505)">
                <path id="path3271" d="M0,0H.425A2.742,2.742,0,0,0,3.168-2.742,2.742,2.742,0,0,0,.425-5.485a2.75,2.75,0,0,0-.467.04c0-.014,0-.027,0-.04A4.039,4.039,0,0,0-4.079-9.524,4.039,4.039,0,0,0-8.118-5.485c0,.014,0,.027,0,.04a2.75,2.75,0,0,0-.467-.04,2.742,2.742,0,0,0-2.742,2.742A2.742,2.742,0,0,0-8.584,0H-5.46" fill="none" stroke="#000" stroke-linecap="round" stroke-linejoin="round" stroke-miterlimit="10" stroke-width="2.051"/>
              </g>
              <g id="g3273" transform="translate(53.764 -59.451)">
                <path id="path3275" d="M0,0A2.742,2.742,0,0,0,2.742-2.742,2.742,2.742,0,0,0,0-5.485a2.766,2.766,0,0,0-.467.04c0-.013,0-.027,0-.04A4.039,4.039,0,0,0-4.5-9.524,4.039,4.039,0,0,0-8.544-5.485c0,.014,0,.027,0,.04a2.765,2.765,0,0,0-.467-.04,2.742,2.742,0,0,0-2.742,2.742A2.742,2.742,0,0,0-9.01,0Z" fill="none" stroke="#000" stroke-linecap="round" stroke-linejoin="round" stroke-miterlimit="10" stroke-width="2.051"/>
              </g>
              <g id="g3277" transform="translate(66.232 -47.311)">
                <path id="path3279" d="M0,0A2.742,2.742,0,0,0,2.742-2.742,2.742,2.742,0,0,0,0-5.485a2.763,2.763,0,0,0-.467.04c0-.013,0-.027,0-.04A4.039,4.039,0,0,0-4.5-9.524,4.039,4.039,0,0,0-8.544-5.485c0,.014,0,.027,0,.04a2.764,2.764,0,0,0-.467-.04,2.742,2.742,0,0,0-2.742,2.742A2.742,2.742,0,0,0-9.01,0Z" fill="none" stroke="#000" stroke-linecap="round" stroke-linejoin="round" stroke-miterlimit="10" stroke-width="2.051"/>
              </g>
              <g id="g3281" transform="translate(68.975 -32.074)">
                <path id="path3283" d="M0,0A7.192,7.192,0,0,0-7.053,5.79,5.512,5.512,0,0,0-9.48,5.23a5.512,5.512,0,0,0-3.263,1.063" fill="none" stroke="#000" stroke-linecap="round" stroke-linejoin="round" stroke-miterlimit="10" stroke-width="2.051"/>
              </g>
              <g id="g3285" transform="translate(1.025 -32.074)">
                <path id="path3287" d="M0,0A7.192,7.192,0,0,1,7.053,5.79a5.541,5.541,0,0,1,5.522.386" fill="none" stroke="#000" stroke-linecap="round" stroke-linejoin="round" stroke-miterlimit="10" stroke-width="2.051"/>
              </g>
              <g id="g3289" transform="translate(28.708 -7.769)">
                <path id="path3291" d="M0,0H-26.307l-1.376,6.744H40.266L38.891,0H12.763" fill="none" stroke="#000" stroke-linecap="round" stroke-linejoin="round" stroke-miterlimit="10" stroke-width="2.051"/>
              </g>
              <g id="g3293" transform="translate(28.708 -14.529)">
                <path id="path3295" d="M0,0H-22.364L-23.74,6.744" fill="none" stroke="#000" stroke-linecap="round" stroke-linejoin="round" stroke-miterlimit="10" stroke-width="2.051"/>
              </g>
              <g id="g3297" transform="translate(50.176 -14.529)">
                <path id="path3299" d="M0,0H-8.7" fill="none" stroke="#000" stroke-linecap="round" stroke-linejoin="round" stroke-miterlimit="10" stroke-width="2.051"/>
              </g>
              <g id="g3301" transform="translate(65.032 -7.786)">
                <path id="path3303" d="M0,0-1.376-6.744H-9.569" fill="none" stroke="#000" stroke-linecap="round" stroke-linejoin="round" stroke-miterlimit="10" stroke-width="2.051"/>
              </g>
              <g id="g3305" transform="translate(28.708 -21.29)">
                <path id="path3307" d="M0,0H-18.421L-19.8,6.744" fill="none" stroke="#000" stroke-linecap="round" stroke-linejoin="round" stroke-miterlimit="10" stroke-width="2.051"/>
              </g>
              <g id="g3309" transform="translate(61.088 -14.546)">
                <path id="path3311" d="M0,0-1.376-6.744H-19.8" fill="none" stroke="#000" stroke-linecap="round" stroke-linejoin="round" stroke-miterlimit="10" stroke-width="2.051"/>
              </g>
              <g id="g3313" transform="translate(28.392 -28.05)">
                <path id="path3315" d="M0,0H-14.162l-1.376,6.744" fill="none" stroke="#000" stroke-linecap="round" stroke-linejoin="round" stroke-miterlimit="10" stroke-width="2.051"/>
              </g>
              <g id="g3317" transform="translate(57.145 -21.306)">
                <path id="path3319" d="M0,0-1.376-6.744H-15.537" fill="none" stroke="#000" stroke-linecap="round" stroke-linejoin="round" stroke-miterlimit="10" stroke-width="2.051"/>
              </g>
              <g id="g3321" transform="translate(28.708 -34.81)">
                <path id="path3323" d="M0,0H-10.535l-1.376,6.744" fill="none" stroke="#000" stroke-linecap="round" stroke-linejoin="round" stroke-miterlimit="10" stroke-width="2.051"/>
              </g>
              <g id="g3325" transform="translate(53.202 -28.067)">
                <path id="path3327" d="M0,0-1.376-6.744H-11.731" fill="none" stroke="#000" stroke-linecap="round" stroke-linejoin="round" stroke-miterlimit="10" stroke-width="2.051"/>
              </g>
              <g id="g3329" transform="translate(49.259 -34.827)">
                <path id="path3331" d="M0,0-1.376-6.744H-27.143L-28.519,0" fill="none" stroke="#000" stroke-linecap="round" stroke-linejoin="round" stroke-miterlimit="10" stroke-width="2.051"/>
              </g>
              <path id="path3333" d="M43.666-41.571H26.334V-54.815H43.666Z" fill="none" stroke="#000" stroke-linecap="round" stroke-linejoin="round" stroke-miterlimit="10" stroke-width="2.051"/>
              <path id="path3335" d="M37.629-41.571H32.371v-5.187h5.258Z" fill="none" stroke="#000" stroke-linecap="round" stroke-linejoin="round" stroke-miterlimit="10" stroke-width="2.051"/>
              <g id="g3337" transform="translate(32.206 -4.977)">
                <path id="path3339" d="M0,0H5.588" fill="none" stroke="#000" stroke-linecap="round" stroke-linejoin="round" stroke-miterlimit="10" stroke-width="2.051"/>
              </g>
              <g id="g3341" transform="translate(32.206 -9.057)">
                <path id="path3343" d="M0,0H5.588" fill="none" stroke="#000" stroke-linecap="round" stroke-linejoin="round" stroke-miterlimit="10" stroke-width="2.051"/>
              </g>
              <g id="g3345" transform="translate(32.206 -13.138)">
                <path id="path3347" d="M0,0H5.588" fill="none" stroke="#000" stroke-linecap="round" stroke-linejoin="round" stroke-miterlimit="10" stroke-width="2.051"/>
              </g>
              <g id="g3349" transform="translate(32.206 -17.218)">
                <path id="path3351" d="M0,0H5.588" fill="none" stroke="#000" stroke-linecap="round" stroke-linejoin="round" stroke-miterlimit="10" stroke-width="2.051"/>
              </g>
              <g id="g3353" transform="translate(32.206 -25.379)">
                <path id="path3355" d="M0,0H5.588" fill="none" stroke="#000" stroke-linecap="round" stroke-linejoin="round" stroke-miterlimit="10" stroke-width="2.051"/>
              </g>
              <g id="g3357" transform="translate(32.206 -29.459)">
                <path id="path3359" d="M0,0H5.588" fill="none" stroke="#000" stroke-linecap="round" stroke-linejoin="round" stroke-miterlimit="10" stroke-width="2.051"/>
              </g>
              <g id="g3361" transform="translate(32.206 -33.539)">
                <path id="path3363" d="M0,0H5.588" fill="none" stroke="#000" stroke-linecap="round" stroke-linejoin="round" stroke-miterlimit="10" stroke-width="2.051"/>
              </g>
              <g id="g3365" transform="translate(32.206 -37.62)">
                <path id="path3367" d="M0,0H5.588" fill="none" stroke="#000" stroke-linecap="round" stroke-linejoin="round" stroke-miterlimit="10" stroke-width="2.051"/>
              </g>
              <g id="g3369" transform="translate(24.837 -54.815)">
                <path id="path3371" d="M0,0H20.508" fill="none" stroke="#000" stroke-linecap="round" stroke-linejoin="round" stroke-miterlimit="10" stroke-width="2.051"/>
              </g>
              <g id="g3373" transform="translate(24.837 -50.768)">
                <path id="path3375" d="M0,0H20.508" fill="none" stroke="#000" stroke-linecap="round" stroke-linejoin="round" stroke-miterlimit="10" stroke-width="2.051"/>
              </g>
              <path id="path3377" d="M41.292-1.025H28.708V-41.571H41.292Z" fill="none" stroke="#000" stroke-linecap="round" stroke-linejoin="round" stroke-miterlimit="10" stroke-width="2.051"/>
              <g id="g3379" transform="translate(32.206 -21.298)">
                <path id="path3381" d="M0,0H5.588" fill="none" stroke="#000" stroke-linecap="round" stroke-linejoin="round" stroke-miterlimit="10" stroke-width="2.051"/>
              </g>
            </g>
          </g>
        </g>
      </g>
    </g>
  </g>
</svg>
