<svg xmlns="http://www.w3.org/2000/svg" xmlns:xlink="http://www.w3.org/1999/xlink" width="97.92" height="107" viewBox="0 0 97.92 107">
  <defs>
    <clipPath id="clip-path">
      <rect id="Rectángulo_403805" data-name="Rectángulo 403805" width="70" height="70" transform="translate(345.19 873)" fill="#fff" stroke="#707070" stroke-width="1"/>
    </clipPath>
  </defs>
  <g id="Grupo_1103840" data-name="Grupo 1103840" transform="translate(-1172.974 -872.498)">
    <g id="Grupo_1103279" data-name="Grupo 1103279" transform="translate(841.783 12.997)">
      <path id="Trazado_876162" data-name="Trazado 876162" d="M-17834.732-9565.178v97.92h81.432l25.568-50.035-25.568-47.885Z" transform="translate(-9136.067 18694.234) rotate(90)" fill="#8ca7b8"/>
      <g id="Enmascarar_grupo_1098692" data-name="Enmascarar grupo 1098692" clip-path="url(#clip-path)">
        <g id="mascara-de-carnaval" transform="translate(345.19 873)">
          <path id="Trazado_878624" data-name="Trazado 878624" d="M60.931,17.887a5.48,5.48,0,0,1,8.044,4.843v5.462a17.535,17.535,0,0,1-3.964,11.1l-1.831,2.238a5.48,5.48,0,0,1-8.337.171l-4.5-5.062V23.493Z" fill="#ffe07d"/>
          <circle id="Elipse_11548" data-name="Elipse 11548" cx="5.48" cy="5.48" r="5.48" transform="translate(53.631 24.588)" fill="#a4ccff"/>
          <circle id="Elipse_11549" data-name="Elipse 11549" cx="3.288" cy="3.288" r="3.288" transform="translate(55.823 47.604)" fill="#8bb3ea"/>
          <path id="Trazado_878625" data-name="Trazado 878625" d="M9.069,17.887A5.48,5.48,0,0,0,1.025,22.73v5.462A17.535,17.535,0,0,0,4.989,39.3l1.831,2.238a5.48,5.48,0,0,0,8.337.171l4.5-5.062V23.492Z" fill="#ffe07d"/>
          <circle id="Elipse_11550" data-name="Elipse 11550" cx="5.48" cy="5.48" r="5.48" transform="translate(5.409 24.588)" fill="#a4ccff"/>
          <path id="Trazado_878626" data-name="Trazado 878626" d="M35,11.437c-6.092,0-11.4,2.207-14.247,5.48H49.247C46.4,13.644,41.092,11.437,35,11.437Z" fill="#a4ccff"/>
          <path id="Trazado_878627" data-name="Trazado 878627" d="M48.152,50.891h-26.3A2.192,2.192,0,0,1,19.657,48.7V18.013a2.192,2.192,0,0,1,2.192-2.192h26.3a2.192,2.192,0,0,1,2.192,2.192V48.7A2.192,2.192,0,0,1,48.152,50.891Z" fill="#e5646e"/>
          <path id="Trazado_878628" data-name="Trazado 878628" d="M28.085,38.836a1.1,1.1,0,0,0-.988,1.585,8.753,8.753,0,0,0,15.807,0,1.1,1.1,0,0,0-.988-1.585Z" fill="#fff"/>
          <path id="Trazado_878629" data-name="Trazado 878629" d="M22.945,43.22v-27.4h-1.1a2.192,2.192,0,0,0-2.192,2.192V48.7a2.192,2.192,0,0,0,2.192,2.192h26.3A2.192,2.192,0,0,0,50.343,48.7V47.6H27.328a4.389,4.389,0,0,1-4.384-4.384Z" fill="#db4655"/>
          <circle id="Elipse_11551" data-name="Elipse 11551" cx="4.384" cy="4.384" r="4.384" transform="translate(24.04 24.588)" fill="#a4ccff"/>
          <circle id="Elipse_11552" data-name="Elipse 11552" cx="4.384" cy="4.384" r="4.384" transform="translate(37.192 24.588)" fill="#a4ccff"/>
          <path id="Trazado_878630" data-name="Trazado 878630" d="M35,30.068a2.192,2.192,0,0,0-2.192,2.192V51.987a2.192,2.192,0,1,0,4.384,0V32.26A2.192,2.192,0,0,0,35,30.068Z" fill="#ffe07d"/>
          <circle id="Elipse_11553" data-name="Elipse 11553" cx="3.288" cy="3.288" r="3.288" transform="translate(7.601 47.604)" fill="#8bb3ea"/>
          <path id="Trazado_878631" data-name="Trazado 878631" d="M6.821,41.535a5.461,5.461,0,0,0,5.407,1.873l-.46-.562-3.739-4.57a16.484,16.484,0,0,1-3.716-10.41V17.709A5.448,5.448,0,0,0,1.025,22.73v5.462A17.535,17.535,0,0,0,4.989,39.3Z" fill="#ffd064"/>
          <path id="Trazado_878632" data-name="Trazado 878632" d="M53.631,21.752l-3.288,1.741V36.644l3.288,3.7Z" fill="#ffd064"/>
          <path id="Trazado_878633" data-name="Trazado 878633" d="M15.433,25.413A1.025,1.025,0,0,0,14,26.881a4.454,4.454,0,1,1-3.112-1.267,1.025,1.025,0,1,0,0-2.051,6.505,6.505,0,1,0,4.544,1.85Z"/>
          <path id="Trazado_878634" data-name="Trazado 878634" d="M66.85,17.157a6.455,6.455,0,0,0-6.4-.176l-9.082,4.808V18.013A3.222,3.222,0,0,0,48.6,14.827c-2.986-2.771-8.03-4.415-13.6-4.415s-10.61,1.644-13.6,4.415a3.222,3.222,0,0,0-2.772,3.186v3.777L9.549,16.981A6.505,6.505,0,0,0,0,22.73v5.462A18.61,18.61,0,0,0,4.2,39.946l1.831,2.239a6.5,6.5,0,0,0,3.837,2.275V46.7A4.309,4.309,0,0,0,7.672,53.76v4.8a1.025,1.025,0,0,0,2.051,0v-3.52a4.291,4.291,0,0,0,2.333,0v3.52a1.025,1.025,0,1,0,2.051,0v-4.8A4.309,4.309,0,0,0,11.914,46.7v-2.19a6.494,6.494,0,0,0,4.009-2.125l2.708-3.046V48.7a3.221,3.221,0,0,0,3.217,3.217h9.934v.071a3.217,3.217,0,1,0,6.435,0v-.071h9.934A3.221,3.221,0,0,0,51.369,48.7V39.341l2.708,3.046a6.492,6.492,0,0,0,4.009,2.125V46.7a4.309,4.309,0,0,0-2.192,7.058v4.8a1.025,1.025,0,0,0,2.051,0v-3.52a4.291,4.291,0,0,0,2.333,0v3.52a1.025,1.025,0,0,0,2.051,0v-4.8A4.309,4.309,0,0,0,60.136,46.7V44.459a6.5,6.5,0,0,0,3.837-2.275L65.8,39.946A18.609,18.609,0,0,0,70,28.192V22.73a6.454,6.454,0,0,0-3.15-5.573Zm-53.7,33.734a2.262,2.262,0,1,1-2.262-2.262A2.265,2.265,0,0,1,13.151,50.891Zm1.24-9.867a4.44,4.44,0,0,1-2.477,1.413V39.932a1.025,1.025,0,1,0-2.051,0v2.422a4.446,4.446,0,0,1-2.249-1.468L5.783,38.647A16.553,16.553,0,0,1,2.051,28.192V22.73a4.454,4.454,0,0,1,6.538-3.937L18.631,24.11V36.254Zm14.033-8.694a3.358,3.358,0,1,1,3.358-3.358A3.362,3.362,0,0,1,28.424,32.331Zm3.358,11.634A8.941,8.941,0,0,1,27.9,40.231a.061.061,0,0,1,0-.07.065.065,0,0,1,.064-.036h3.822Zm4.384,8.023a1.166,1.166,0,1,1-2.333,0V32.26a1.166,1.166,0,1,1,2.333,0Zm2.051-11.862H42.04a.065.065,0,0,1,.064.036.061.061,0,0,1,0,.07,8.942,8.942,0,0,1-3.886,3.733Zm9.934,9.741H38.217V46.175a10.671,10.671,0,0,0,5.663-4.921,2.121,2.121,0,0,0-1.841-3.179H38.217V33.208a5.406,5.406,0,1,0-2.051-4.236c0,.1,0,.2.008.294a3.2,3.2,0,0,0-2.35,0c.005-.1.008-.2.008-.294a5.418,5.418,0,1,0-2.051,4.236v4.867H27.96a2.121,2.121,0,0,0-1.841,3.179,10.671,10.671,0,0,0,5.663,4.921v3.691H21.849A1.168,1.168,0,0,1,20.682,48.7V18.013a1.168,1.168,0,0,1,1.166-1.166H38.288a1.025,1.025,0,0,0,0-2.051H24.952A21.141,21.141,0,0,1,35,12.462,21.141,21.141,0,0,1,45.048,14.8H42.672a1.025,1.025,0,1,0,0,2.051h5.48a1.168,1.168,0,0,1,1.166,1.166V48.7a1.168,1.168,0,0,1-1.167,1.167ZM38.217,28.972a3.358,3.358,0,1,1,3.358,3.358A3.362,3.362,0,0,1,38.217,28.972ZM61.373,50.891a2.262,2.262,0,1,1-2.262-2.262A2.265,2.265,0,0,1,61.373,50.891Zm6.576-22.7a16.554,16.554,0,0,1-3.732,10.455l-1.831,2.238a4.447,4.447,0,0,1-2.249,1.468V39.932a1.025,1.025,0,1,0-2.051,0v2.505a4.444,4.444,0,0,1-2.477-1.413l-4.24-4.77V24.11l10.042-5.316a4.454,4.454,0,0,1,6.538,3.937v5.462Z"/>
          <path id="Trazado_878635" data-name="Trazado 878635" d="M59.111,23.563a6.505,6.505,0,1,0,6.505,6.505,6.513,6.513,0,0,0-6.505-6.505Zm0,10.96a4.454,4.454,0,1,1,4.454-4.454A4.46,4.46,0,0,1,59.111,34.523Z"/>
          <path id="Trazado_878636" data-name="Trazado 878636" d="M28.413,27.947a1.025,1.025,0,1,0,0,2.051h.011a1.025,1.025,0,0,0-.011-2.051Z"/>
          <path id="Trazado_878637" data-name="Trazado 878637" d="M42.6,28.972A1.028,1.028,0,1,0,41.565,30h.011a1.021,1.021,0,0,0,1.02-1.025Z"/>
          <path id="Trazado_878638" data-name="Trazado 878638" d="M10.889,28.618l-.371-.371a1.025,1.025,0,1,0-1.45,1.45l.371.371-.371.371a1.025,1.025,0,1,0,1.45,1.45l.371-.371.371.371a1.025,1.025,0,0,0,1.45-1.45l-.371-.371.371-.371a1.025,1.025,0,1,0-1.45-1.45Z"/>
          <path id="Trazado_878639" data-name="Trazado 878639" d="M60.932,28.247a1.025,1.025,0,0,0-1.45,0l-.371.371-.371-.371a1.025,1.025,0,1,0-1.45,1.45l.371.371-.371.371a1.025,1.025,0,1,0,1.45,1.45l.371-.371.371.371a1.025,1.025,0,0,0,1.45-1.45l-.371-.371.371-.371a1.025,1.025,0,0,0,0-1.45Z"/>
        </g>
      </g>
    </g>
  </g>
</svg>
