<svg xmlns="http://www.w3.org/2000/svg" xmlns:xlink="http://www.w3.org/1999/xlink" width="85" height="139" viewBox="0 0 85 139">
  <defs>
    <clipPath id="clip-path">
      <rect id="Rect치ngulo_403720" data-name="Rect치ngulo 403720" width="67" height="71" transform="translate(189.051 411)" fill="#56e9cc"/>
    </clipPath>
  </defs>
  <g id="Grupo_1103838" data-name="Grupo 1103838" transform="translate(-180.051 -401)">
    <rect id="Rect치ngulo_403719" data-name="Rect치ngulo 403719" width="85" height="139" transform="translate(180.051 401)" fill="#ffd9c5"/>
    <g id="Enmascarar_grupo_1098689" data-name="Enmascarar grupo 1098689" transform="translate(0 24)" clip-path="url(#clip-path)">
      <g id="torre-de-pisa" transform="translate(189.049 412.998)">
        <g id="Grupo_1103276" data-name="Grupo 1103276">
          <g id="Grupo_1103275" data-name="Grupo 1103275">
            <path id="Trazado_878574" data-name="Trazado 878574" d="M39.586,12.908l-.919-8.741L19.239,5.981l.966,9.191Z" fill="#f4ddb1"/>
            <path id="Trazado_878575" data-name="Trazado 878575" d="M36.612,13.255l2.973-.347-.919-8.741-2.98.278Z" fill="#efcb84"/>
            <path id="Trazado_878576" data-name="Trazado 878576" d="M17.9,34.746,19.149,46.6l-.625,4.425.906,8.624L34.8,59.638l14.819-3.148-.907-8.633-1.531-4.2L45.931,31.8l-.453-4.312L44.232,15.63l-14.241-.683L16.2,18.576,17.45,30.434Z" fill="#f4ddb1"/>
            <path id="Trazado_878577" data-name="Trazado 878577" d="M42.505,27.488l.453,4.312L44.2,43.659l1.531,4.2.972,9.251,2.908-.618-.907-8.633-1.531-4.2L45.931,31.8l-.453-4.312L44.232,15.63l-14.241-.683-.458.121,11.726.563Z" fill="#efcb84"/>
            <path id="Trazado_878578" data-name="Trazado 878578" d="M19.431,59.654l.214,2.033v1.1H50.164V61.7l-.548-5.209L23.743,59.2Z" fill="#f9efda"/>
            <path id="Trazado_878579" data-name="Trazado 878579" d="M49.616,56.491l-2.94.308.515,4.9v1.086h2.972V61.7Z" fill="#f4ddb1"/>
            <path id="Trazado_878580" data-name="Trazado 878580" d="M38.823,5.3,19.345,7.347a1.047,1.047,0,0,1-1.151-.932l-.234-2.23a1.047,1.047,0,0,1,.932-1.151L38.37.987a1.047,1.047,0,0,1,1.151.932l.234,2.23A1.047,1.047,0,0,1,38.823,5.3Z" fill="#f9efda"/>
            <path id="Trazado_878581" data-name="Trazado 878581" d="M31.92,12.564l-.453-4.312a2.168,2.168,0,0,0-4.312.453l.453,4.312,1.8.6Z" fill="#6b4f5a"/>
            <g id="Grupo_1103273" data-name="Grupo 1103273">
              <path id="Trazado_878582" data-name="Trazado 878582" d="M37.083,61.686l-.631-6a2.168,2.168,0,0,0-4.312.453l.583,5.548v1.1h4.36Z" fill="#6b4f5a"/>
              <path id="Trazado_878583" data-name="Trazado 878583" d="M45.806,61.686l-.729-6.908a2.168,2.168,0,1,0-4.312.453l.678,6.455v1.1h4.363Z" fill="#6b4f5a"/>
              <path id="Trazado_878584" data-name="Trazado 878584" d="M28.364,61.686l-.535-5.1a2.168,2.168,0,1,0-4.312.453L24,61.687a5.111,5.111,0,0,1,0,1.1h4.36Z" fill="#6b4f5a"/>
              <path id="Trazado_878585" data-name="Trazado 878585" d="M26.074,29.528l-.566-5.39a2.168,2.168,0,1,0-4.312.453l.566,5.39,2.406.453Z" fill="#6b4f5a"/>
              <path id="Trazado_878586" data-name="Trazado 878586" d="M41.166,27.942l-.566-5.39A2.168,2.168,0,1,0,36.287,23l.566,5.39,2.273.9Z" fill="#6b4f5a"/>
              <path id="Trazado_878587" data-name="Trazado 878587" d="M23.461,46.151l-.566-5.39a2.168,2.168,0,1,1,4.312-.453l.566,5.39-2.914,1.59Z" fill="#6b4f5a"/>
              <path id="Trazado_878588" data-name="Trazado 878588" d="M38.553,44.565l-.566-5.39a2.168,2.168,0,0,1,4.312-.453l.566,5.39L41.5,45.455Z" fill="#6b4f5a"/>
            </g>
            <path id="Trazado_878589" data-name="Trazado 878589" d="M48.746,47.853l-30.258,3.18a1.047,1.047,0,0,1-1.151-.932l-.234-2.23a1.047,1.047,0,0,1,.932-1.151l30.258-3.18a1.047,1.047,0,0,1,1.151.932l.234,2.23a1.047,1.047,0,0,1-.932,1.15Z" fill="#f9efda"/>
            <path id="Trazado_878590" data-name="Trazado 878590" d="M49.677,46.7l-.234-2.23a1.047,1.047,0,0,0-1.151-.932l-3.014.319a1.047,1.047,0,0,1,1.151.932l.234,2.23a1.046,1.046,0,0,1-.893,1.144l2.974-.313A1.047,1.047,0,0,0,49.677,46.7Z" fill="#f4ddb1"/>
            <path id="Trazado_878591" data-name="Trazado 878591" d="M45.968,31.8l-28.1,2.954a1.047,1.047,0,0,1-1.151-.932l-.234-2.23a1.047,1.047,0,0,1,.932-1.151l28.1-2.954a1.047,1.047,0,0,1,1.151.932l.234,2.23a1.047,1.047,0,0,1-.932,1.15Z" fill="#f9efda"/>
            <path id="Trazado_878592" data-name="Trazado 878592" d="M46.9,30.646l-.234-2.23a1.047,1.047,0,0,0-1.151-.932l-2.908.306a1.047,1.047,0,0,1,1.058.937l.234,2.23a1.047,1.047,0,0,1-.932,1.151l3-.311a1.047,1.047,0,0,0,.932-1.15Z" fill="#f4ddb1"/>
            <path id="Trazado_878593" data-name="Trazado 878593" d="M44.269,15.626l-28.1,2.954a1.047,1.047,0,0,1-1.151-.932l-.234-2.23a1.047,1.047,0,0,1,.932-1.151l28.1-2.954a1.047,1.047,0,0,1,1.151.932l.234,2.23a1.047,1.047,0,0,1-.932,1.15Z" fill="#f9efda"/>
            <g id="Grupo_1103274" data-name="Grupo 1103274">
              <path id="Trazado_878594" data-name="Trazado 878594" d="M45.2,14.476l-.234-2.23a1.047,1.047,0,0,0-1.151-.932l-2.895.3a1.047,1.047,0,0,1,1.037.937l.234,2.23a1.047,1.047,0,0,1-.932,1.151l3.008-.31A1.047,1.047,0,0,0,45.2,14.476Z" fill="#f4ddb1"/>
              <path id="Trazado_878595" data-name="Trazado 878595" d="M39.755,4.149l-.234-2.23A1.047,1.047,0,0,0,38.37.987l-3.03.319a1.047,1.047,0,0,1,1.151.932l.234,2.23a1.047,1.047,0,0,1-.932,1.151l3.03-.319A1.047,1.047,0,0,0,39.755,4.149Z" fill="#f4ddb1"/>
            </g>
          </g>
          <path id="Trazado_878596" data-name="Trazado 878596" d="M61.685,63.651H57.349V54.062A1.047,1.047,0,0,1,58.4,53.015h2.242a1.047,1.047,0,0,1,1.047,1.047Z" fill="#f9f6f9"/>
          <path id="Trazado_878597" data-name="Trazado 878597" d="M60.638,53.015H58.4a1.044,1.044,0,0,0-.384.074,1.047,1.047,0,0,1,.663.973v9.589h3.01V54.062a1.047,1.047,0,0,0-1.047-1.047Z" fill="#e2d8ec"/>
          <path id="Trazado_878598" data-name="Trazado 878598" d="M9.655,63.651H5.319V54.062a1.047,1.047,0,0,1,1.047-1.047H8.608a1.047,1.047,0,0,1,1.047,1.047Z" fill="#f9f6f9"/>
          <path id="Trazado_878599" data-name="Trazado 878599" d="M8.608,53.015H6.366a1.044,1.044,0,0,0-.384.074,1.047,1.047,0,0,1,.663.973v9.589h3.01V54.062A1.047,1.047,0,0,0,8.608,53.015Z" fill="#e2d8ec"/>
          <path id="Trazado_878600" data-name="Trazado 878600" d="M64.974,66.022H2.03A1.047,1.047,0,0,1,.983,64.975V62.733A1.047,1.047,0,0,1,2.03,61.687H64.974a1.047,1.047,0,0,1,1.047,1.047v2.242A1.047,1.047,0,0,1,64.974,66.022Z" fill="#c8ea73"/>
          <path id="Trazado_878601" data-name="Trazado 878601" d="M64.974,61.686h-3.01a1.047,1.047,0,0,1,1.047,1.047v2.242a1.047,1.047,0,0,1-1.047,1.047h3.01a1.047,1.047,0,0,0,1.047-1.047V62.733A1.047,1.047,0,0,0,64.974,61.686Z" fill="#aad540"/>
        </g>
        <path id="Trazado_878602" data-name="Trazado 878602" d="M64.974,60.705H62.666V54.062a2.031,2.031,0,0,0-2.028-2.028H58.4a2.031,2.031,0,0,0-2.028,2.028v6.643H51.046L49.763,48.5a2.031,2.031,0,0,0,.89-1.9l-.234-2.23a2.03,2.03,0,0,0-2.229-1.805l-.139.015L46.985,32.44a2.03,2.03,0,0,0,.89-1.9l-.234-2.23a2.03,2.03,0,0,0-1.266-1.672L45.286,16.27a2.029,2.029,0,0,0,.89-1.9l-.234-2.23a2.028,2.028,0,0,0-2.229-1.805l-3.373.354L40.1,8.435h0l-.262-2.491a2.029,2.029,0,0,0,.89-1.9L40.5,1.816A2.028,2.028,0,0,0,38.267.011L18.79,2.059a2.028,2.028,0,0,0-1.805,2.229l.234,2.23a2.029,2.029,0,0,0,1.266,1.671l.5,4.749-3.373.354a2.031,2.031,0,0,0-1.805,2.229l.234,2.23a2.03,2.03,0,0,0,1.266,1.671l.231,2.2a.982.982,0,0,0,.975.879.992.992,0,0,0,.1-.005.982.982,0,0,0,.873-1.079l-.206-1.963,12.062-1.268.124,1.18a.982.982,0,0,0,.975.879.992.992,0,0,0,.1-.005.981.981,0,0,0,.873-1.079l-.124-1.18,12.062-1.268L44.4,26.615l-2.36.248-.464-4.414a3.149,3.149,0,1,0-6.264.658l.464,4.414-3.438.361-.124-1.18a.981.981,0,0,0-1.952.205l.124,1.18-3.438.361-.464-4.414a3.149,3.149,0,1,0-6.264.658l.464,4.414-2.36.248-.414-3.94a.981.981,0,0,0-1.952.205l.439,4.171a2.031,2.031,0,0,0-.89,1.9l.234,2.23A2.029,2.029,0,0,0,17,35.592L18.07,45.731l-.139.015a2.031,2.031,0,0,0-1.805,2.229l.234,2.23a2.024,2.024,0,0,0,1.266,1.671l.928,8.829H10.636V54.062a2.031,2.031,0,0,0-2.028-2.028H6.366a2.031,2.031,0,0,0-2.028,2.028v6.643H2.03A2.031,2.031,0,0,0,0,62.734v2.242A2.031,2.031,0,0,0,2.03,67H7.692a.981.981,0,0,0,0-1.963H2.03a.066.066,0,0,1-.065-.065V62.734a.066.066,0,0,1,.065-.065H64.974a.066.066,0,0,1,.065.065v2.242a.066.066,0,0,1-.065.065H11.618a.981.981,0,1,0,0,1.963H64.974A2.031,2.031,0,0,0,67,64.976V62.734A2.031,2.031,0,0,0,64.974,60.7ZM58.33,54.062A.066.066,0,0,1,58.4,54h2.242a.066.066,0,0,1,.065.065v6.643H58.33ZM46.689,60.705l-.306-2.9,2.358-.248.331,3.145Zm-4.362,0-.359-3.419h0l-.227-2.156a1.186,1.186,0,1,1,2.36-.247l.225,2.135c0,.007,0,.013,0,.02s0,.014,0,.022l.385,3.646H42.327Zm-4.36,0-.209-1.991,2.36-.248.235,2.238Zm-4.36,0-.491-4.669a1.186,1.186,0,1,1,2.36-.248l.517,4.917Zm-4.36,0-.114-1.084,2.36-.248.14,1.332Zm-4.36,0L24.719,59.1h0l-.227-2.155a1.186,1.186,0,1,1,2.36-.248l.421,4.011H24.888ZM19.6,51.9l28.232-2.967.7,6.672-2.359.248-.125-1.18a3.149,3.149,0,0,0-6.264.658l.124,1.18-2.36.248-.124-1.18a3.149,3.149,0,0,0-6.264.658l.124,1.18-2.36.248-.124-1.18a3.149,3.149,0,0,0-6.264.658l.124,1.18-2.36.248ZM48.4,44.517H48.4a.066.066,0,0,1,.065.059l.234,2.23a.065.065,0,0,1-.058.072l-.036,0h0L18.385,50.058a.061.061,0,0,1-.048-.014A.063.063,0,0,1,18.313,50l-.234-2.23a.066.066,0,0,1,.058-.072ZM23.871,40.659a1.186,1.186,0,1,1,2.36-.248l.464,4.414-2.36.248Zm15.092-1.586a1.186,1.186,0,1,1,2.36-.248l.464,4.414-2.36.248ZM17.8,33.77h0l-.034,0a.066.066,0,0,1-.072-.058l-.234-2.23a.065.065,0,0,1,.058-.072l.036,0h0l28.064-2.95h.008a.066.066,0,0,1,.064.059l.234,2.23a.066.066,0,0,1-.058.072l-.036,0h0ZM28.482,11.939,28.131,8.6a1.188,1.188,0,0,1,1.055-1.3h0a1.187,1.187,0,0,1,1.3,1.056l.351,3.336Zm4.312-.453L32.443,8.15a3.132,3.132,0,0,0-.355-1.156l5.825-.612.135,1.282-1.18.124a.982.982,0,0,0,.1,1.958.992.992,0,0,0,.1-.005l1.18-.124.135,1.282ZM18.951,4.035a.062.062,0,0,1,.044-.024L38.473,1.963h.008a.066.066,0,0,1,.064.059l.234,2.23a.066.066,0,0,1-.058.072h0l-.036,0h0L19.243,6.37a.066.066,0,0,1-.072-.058l-.234-2.23a.062.062,0,0,1,.014-.048ZM20.8,11.45l1.18-.124a.981.981,0,0,0-.205-1.952L20.6,9.5l-.135-1.282L26.286,7.6a3.131,3.131,0,0,0-.107,1.2l.351,3.336-5.594.588Zm-4.985,3.794,28.1-2.954h.008a.066.066,0,0,1,.064.059l.234,2.23a.065.065,0,0,1-.058.072l-.036,0h0L16.1,17.6h0l-.035,0a.066.066,0,0,1-.072-.058l-.234-2.23a.066.066,0,0,1,.058-.072ZM37.263,22.9a1.186,1.186,0,1,1,2.36-.248l.464,4.414-2.36.248ZM22.171,24.488a1.186,1.186,0,1,1,2.36-.248L25,28.654l-2.36.248ZM18.982,35.62l12.062-1.268.124,1.18a.982.982,0,0,0,.975.879,1,1,0,0,0,.1-.005.982.982,0,0,0,.873-1.079L33,34.147l12.062-1.268L46.1,42.785l-2.36.248-.464-4.414a3.149,3.149,0,1,0-6.264.658l.464,4.414-3.438.361-.124-1.18a.981.981,0,0,0-1.952.205l.124,1.18-3.438.361-.464-4.414a3.149,3.149,0,1,0-6.264.658l.464,4.414-2.36.248Zm1.528,24.908,2.36-.248.045.426H20.528ZM6.3,54.062A.066.066,0,0,1,6.366,54H8.608a.066.066,0,0,1,.065.065V60.7H6.3Z"/>
      </g>
    </g>
  </g>
</svg>
