<svg xmlns="http://www.w3.org/2000/svg" xmlns:xlink="http://www.w3.org/1999/xlink" width="85" height="85" viewBox="0 0 85 85">
  <defs>
    <clipPath id="clip-path">
      <rect id="Rect치ngulo_403652" data-name="Rect치ngulo 403652" width="67" height="67" transform="translate(1324.051 602)" fill="#01245a"/>
    </clipPath>
  </defs>
  <g id="Grupo_1103842" data-name="Grupo 1103842" transform="translate(-1315.051 -593)">
    <rect id="Rect치ngulo_403651" data-name="Rect치ngulo 403651" width="85" height="85" transform="translate(1315.051 593)" fill="#56e9cc"/>
    <g id="Enmascarar_grupo_1098729" data-name="Enmascarar grupo 1098729" clip-path="url(#clip-path)">
      <g id="viaje_2_" data-name="viaje (2)" transform="translate(1324.064 602.014)">
        <path id="Trazado_879620" data-name="Trazado 879620" d="M53.38,51.277H49.194A2.092,2.092,0,0,0,47.1,53.369v1.046H42.507a12.552,12.552,0,1,1,21.756,0h-4.6V53.369a2.086,2.086,0,0,0-2.093-2.093Z" fill="#87bcf4"/>
        <path id="Trazado_879621" data-name="Trazado 879621" d="M58.905,16.3l-3.3,3.223.774,4.542-4.071-2.145-4.092,2.145.785-4.542-3.3-3.223,4.563-.659,2.041-4.134,2.041,4.134Z" fill="#ed5565"/>
        <path id="Trazado_879622" data-name="Trazado 879622" d="M59.659,54.416h4.6a12.562,12.562,0,0,1-21.756,0Z" fill="#5d9cec"/>
        <path id="Trazado_879623" data-name="Trazado 879623" d="M57.566,51.277a2.086,2.086,0,0,1,2.093,2.093v1.046H47.1V53.369a2.092,2.092,0,0,1,2.093-2.093Z" fill="#ffce54"/>
        <path id="Trazado_879624" data-name="Trazado 879624" d="M65.916,6.279V30.347H47.08l-5.232,3.139V30.347H38.709V6.279ZM55.609,19.527l3.3-3.223-4.552-.659-2.041-4.134-2.041,4.134-4.563.659,3.3,3.223-.785,4.542,4.092-2.145,4.071,2.145Z" fill="#ffce54"/>
        <path id="Trazado_879625" data-name="Trazado 879625" d="M25.1,40.331v5.714l-3.139,2.093-3.139-1.046-3.139,1.046-3.139-2.093V40.331a13.666,13.666,0,0,0,12.558,0Z" fill="#87bcf4"/>
        <path id="Trazado_879626" data-name="Trazado 879626" d="M36.616,53.369v7.325H1.036V53.369a7.32,7.32,0,0,1,7.325-7.325h4.186l3.139,2.093,3.139-1.046,3.139,1.046L25.1,46.044H29.29a7.32,7.32,0,0,1,7.325,7.325Z" fill="#5d9cec"/>
        <path id="Trazado_879627" data-name="Trazado 879627" d="M25.1,40.331A13.6,13.6,0,0,1,5.222,28.254V24.069l3.139-3.139a29.126,29.126,0,0,0,10.465,2.093A29.126,29.126,0,0,0,29.29,20.929l3.139,3.139v4.186A13.606,13.606,0,0,1,25.1,40.331Z" fill="#eac6bb"/>
        <path id="Trazado_879628" data-name="Trazado 879628" d="M8.361,20.929,5.222,24.069V18.836A12.547,12.547,0,0,1,17.779,6.279h8.372v4.186a6.277,6.277,0,0,1,6.279,6.279v7.325L29.29,20.929a29.126,29.126,0,0,1-10.465,2.093A29.126,29.126,0,0,1,8.361,20.929Z" fill="#965353"/>
        <path id="Trazado_879629" data-name="Trazado 879629" d="M36.613,54.416a1.046,1.046,0,0,1-1.046-1.046,6.286,6.286,0,0,0-6.279-6.279,1.046,1.046,0,1,1,0-2.093,8.381,8.381,0,0,1,8.372,8.372,1.046,1.046,0,0,1-1.046,1.046Z"/>
        <path id="Trazado_879630" data-name="Trazado 879630" d="M29.288,47.091h0l-4.186,0A1.046,1.046,0,1,1,25.1,45h0l4.186,0a1.046,1.046,0,0,1,0,2.093Z"/>
        <path id="Trazado_879631" data-name="Trazado 879631" d="M36.613,61.741a1.046,1.046,0,0,1-1.046-1.046V53.369a1.046,1.046,0,0,1,2.093,0v7.325a1.046,1.046,0,0,1-1.046,1.046Z"/>
        <path id="Trazado_879632" data-name="Trazado 879632" d="M1.034,54.414A1.046,1.046,0,0,1-.012,53.368,8.365,8.365,0,0,1,8.359,45a1.046,1.046,0,0,1,0,2.093,6.273,6.273,0,0,0-6.279,6.279,1.046,1.046,0,0,1-1.046,1.046Z"/>
        <path id="Trazado_879633" data-name="Trazado 879633" d="M8.359,47.091a1.046,1.046,0,0,1,0-2.093l4.186,0h0a1.046,1.046,0,0,1,0,2.093l-4.186,0Z"/>
        <path id="Trazado_879634" data-name="Trazado 879634" d="M1.033,61.739A1.047,1.047,0,0,1-.013,60.693V53.367a1.046,1.046,0,0,1,2.093,0v7.325a1.046,1.046,0,0,1-1.046,1.046Z"/>
        <path id="Trazado_879635" data-name="Trazado 879635" d="M12.545,47.089A1.046,1.046,0,0,1,11.5,46.042V40.326a1.046,1.046,0,0,1,2.093,0v5.717a1.047,1.047,0,0,1-1.046,1.046Z"/>
        <path id="Trazado_879636" data-name="Trazado 879636" d="M25.1,47.087a1.046,1.046,0,0,1-1.046-1.046V40.326a1.046,1.046,0,0,1,2.093,0V46.04A1.046,1.046,0,0,1,25.1,47.087Z"/>
        <path id="Trazado_879637" data-name="Trazado 879637" d="M18.823,42.9a14.667,14.667,0,0,1-14.65-14.65,1.046,1.046,0,1,1,2.093,0,12.558,12.558,0,0,0,25.115,0,1.046,1.046,0,1,1,2.093,0A14.667,14.667,0,0,1,18.823,42.9Z"/>
        <path id="Trazado_879638" data-name="Trazado 879638" d="M5.219,29.3a1.046,1.046,0,0,1-1.046-1.046V18.836a1.046,1.046,0,0,1,2.093,0v9.418A1.046,1.046,0,0,1,5.219,29.3Z"/>
        <path id="Trazado_879639" data-name="Trazado 879639" d="M32.427,29.3a1.046,1.046,0,0,1-1.046-1.046V16.743a1.046,1.046,0,1,1,2.093,0V28.254A1.046,1.046,0,0,1,32.427,29.3Z"/>
        <path id="Trazado_879640" data-name="Trazado 879640" d="M32.427,17.79a1.046,1.046,0,0,1-1.046-1.046,5.238,5.238,0,0,0-5.232-5.232,1.046,1.046,0,0,1,0-2.093,7.334,7.334,0,0,1,7.325,7.325,1.046,1.046,0,0,1-1.046,1.046Z"/>
        <path id="Trazado_879641" data-name="Trazado 879641" d="M26.148,11.511A1.046,1.046,0,0,1,25.1,10.465V6.279a1.046,1.046,0,1,1,2.093,0v4.186a1.046,1.046,0,0,1-1.046,1.046Z"/>
        <path id="Trazado_879642" data-name="Trazado 879642" d="M26.148,7.325H17.777a1.046,1.046,0,0,1,0-2.093h8.372a1.046,1.046,0,0,1,0,2.093Z"/>
        <path id="Trazado_879643" data-name="Trazado 879643" d="M5.218,19.883a1.046,1.046,0,0,1-1.046-1.046,13.62,13.62,0,0,1,13.605-13.6,1.046,1.046,0,0,1,0,2.093A11.524,11.524,0,0,0,6.264,18.836a1.046,1.046,0,0,1-1.046,1.046Z"/>
        <path id="Trazado_879644" data-name="Trazado 879644" d="M32.427,25.115a1.043,1.043,0,0,1-.74-.307l-3.139-3.139a1.046,1.046,0,1,1,1.48-1.48l3.139,3.139a1.046,1.046,0,0,1-.74,1.786Z"/>
        <path id="Trazado_879645" data-name="Trazado 879645" d="M18.823,24.069A29.955,29.955,0,0,1,7.939,21.888a1.046,1.046,0,1,1,.838-1.917,28.354,28.354,0,0,0,10.046,2.005,28.214,28.214,0,0,0,10.046-2.005,1.046,1.046,0,1,1,.838,1.917,29.955,29.955,0,0,1-10.884,2.181Z"/>
        <path id="Trazado_879646" data-name="Trazado 879646" d="M5.218,25.115a1.046,1.046,0,0,1-.74-1.786l3.14-3.139a1.046,1.046,0,1,1,1.48,1.48l-3.14,3.139a1.043,1.043,0,0,1-.74.307Z"/>
        <path id="Trazado_879647" data-name="Trazado 879647" d="M15.683,49.184a1.049,1.049,0,0,1-.58-.176l-3.138-2.1a1.047,1.047,0,1,1,1.163-1.741l3.138,2.1a1.047,1.047,0,0,1-.583,1.917Z"/>
        <path id="Trazado_879648" data-name="Trazado 879648" d="M15.684,49.184a1.046,1.046,0,0,1-.332-2.039l3.139-1.051a1.046,1.046,0,1,1,.664,1.985l-3.139,1.05a1.046,1.046,0,0,1-.332.054Z"/>
        <path id="Trazado_879649" data-name="Trazado 879649" d="M21.963,49.184a1.046,1.046,0,0,1-.581-1.917l3.139-2.095a1.046,1.046,0,1,1,1.161,1.741l-3.139,2.095a1.043,1.043,0,0,1-.579.176Z"/>
        <path id="Trazado_879650" data-name="Trazado 879650" d="M21.962,49.184a1.046,1.046,0,0,1-.332-.054l-3.14-1.051a1.046,1.046,0,1,1,.664-1.985l3.139,1.051a1.046,1.046,0,0,1-.332,2.039Z"/>
        <path id="Trazado_879651" data-name="Trazado 879651" d="M18.843,53.369a1.046,1.046,0,0,1-.01-2.093h.01a1.046,1.046,0,1,1,0,2.093Z"/>
        <path id="Trazado_879652" data-name="Trazado 879652" d="M18.843,58.6a1.046,1.046,0,0,1-.01-2.093h.01a1.046,1.046,0,1,1,0,2.093Z"/>
        <path id="Trazado_879653" data-name="Trazado 879653" d="M41.845,34.533A1.047,1.047,0,0,1,40.8,33.487V31.394H38.706a1.046,1.046,0,0,1-1.046-1.046V6.279a1.046,1.046,0,0,1,1.046-1.046H65.914A1.046,1.046,0,0,1,66.96,6.279V30.347a1.046,1.046,0,0,1-1.046,1.046H47.367l-4.983,2.99a1.047,1.047,0,0,1-.539.149ZM39.752,29.3h2.093a1.046,1.046,0,0,1,1.046,1.046v1.291l3.646-2.188a1.041,1.041,0,0,1,.539-.149H64.867V7.325H39.752Z"/>
        <path id="Trazado_879654" data-name="Trazado 879654" d="M48.226,25.115a1.047,1.047,0,0,1-1.031-1.224l.689-4-2.905-2.835a1.046,1.046,0,0,1,.58-1.784l4.017-.584,1.8-3.641a1.088,1.088,0,0,1,1.876,0l1.8,3.641,4.017.584a1.046,1.046,0,0,1,.58,1.784l-2.906,2.836.683,4a1.046,1.046,0,0,1-1.519,1.1L52.31,23.107,48.712,25a1.053,1.053,0,0,1-.486.12Zm4.084-4.237A1.043,1.043,0,0,1,52.8,21L55,22.157,54.579,19.7a1.045,1.045,0,0,1,.3-.925l1.782-1.739L54.2,16.681a1.045,1.045,0,0,1-.788-.572l-1.1-2.232-1.1,2.232a1.045,1.045,0,0,1-.788.572l-2.464.358,1.782,1.739a1.048,1.048,0,0,1,.3.927l-.422,2.452L51.823,21a1.05,1.05,0,0,1,.486-.12Z"/>
        <path id="Trazado_879655" data-name="Trazado 879655" d="M53.383,61.741a13.6,13.6,0,1,1,13.6-13.6,13.6,13.6,0,0,1-13.6,13.6Zm0-25.115A11.511,11.511,0,1,0,64.894,48.137,11.511,11.511,0,0,0,53.383,36.626Z"/>
        <path id="Trazado_879656" data-name="Trazado 879656" d="M64.26,55.462H42.506a1.046,1.046,0,0,1,0-2.093H64.26a1.046,1.046,0,1,1,0,2.093Z"/>
        <path id="Trazado_879657" data-name="Trazado 879657" d="M47.1,54.416a1.046,1.046,0,0,1-1.046-1.046A3.143,3.143,0,0,1,49.2,50.23a1.046,1.046,0,1,1,0,2.093,1.047,1.047,0,0,0-1.046,1.046A1.046,1.046,0,0,1,47.1,54.416Z"/>
        <path id="Trazado_879658" data-name="Trazado 879658" d="M59.661,54.416a1.046,1.046,0,0,1-1.046-1.046,1.047,1.047,0,0,0-1.046-1.046,1.046,1.046,0,1,1,0-2.093,3.143,3.143,0,0,1,3.139,3.139,1.046,1.046,0,0,1-1.046,1.046Z"/>
        <path id="Trazado_879659" data-name="Trazado 879659" d="M57.569,52.323H49.2a1.046,1.046,0,1,1,0-2.093h8.372a1.046,1.046,0,1,1,0,2.093Z"/>
        <path id="Trazado_879660" data-name="Trazado 879660" d="M59.661,55.462a1.046,1.046,0,0,1-1.046-1.046V53.369a1.046,1.046,0,0,1,2.093,0v1.046a1.046,1.046,0,0,1-1.046,1.046Z"/>
        <path id="Trazado_879661" data-name="Trazado 879661" d="M47.1,55.462a1.046,1.046,0,0,1-1.046-1.046V53.369a1.046,1.046,0,0,1,2.093,0v1.046A1.046,1.046,0,0,1,47.1,55.462Z"/>
        <path id="Trazado_879662" data-name="Trazado 879662" d="M53.383,52.323a1.046,1.046,0,0,1-1.046-1.046v-7.3a1.046,1.046,0,0,1,2.093,0v7.3a1.046,1.046,0,0,1-1.046,1.046Z"/>
        <path id="Trazado_879663" data-name="Trazado 879663" d="M59.661,45.02a1.046,1.046,0,0,1-1.046-1.046,2.093,2.093,0,0,0-4.186,0,1.046,1.046,0,1,1-2.093,0,4.186,4.186,0,0,1,8.372,0,1.046,1.046,0,0,1-1.046,1.046Z"/>
        <path id="Trazado_879664" data-name="Trazado 879664" d="M56.522,46.067a1.046,1.046,0,0,1-1.046-1.046.523.523,0,0,0-1.046,0,1.046,1.046,0,0,1-2.093,0,2.616,2.616,0,0,1,5.232,0,1.046,1.046,0,0,1-1.046,1.046Z"/>
        <path id="Trazado_879665" data-name="Trazado 879665" d="M53.383,45.02a1.046,1.046,0,0,1-1.046-1.046,2.093,2.093,0,0,0-4.186,0,1.046,1.046,0,1,1-2.093,0,4.186,4.186,0,0,1,8.372,0,1.046,1.046,0,0,1-1.046,1.046Z"/>
        <path id="Trazado_879666" data-name="Trazado 879666" d="M53.383,46.067a1.046,1.046,0,0,1-1.046-1.046.523.523,0,0,0-1.046,0,1.046,1.046,0,0,1-2.093,0,2.616,2.616,0,0,1,5.232,0,1.046,1.046,0,0,1-1.046,1.046Z"/>
      </g>
    </g>
  </g>
</svg>
