<svg xmlns="http://www.w3.org/2000/svg" width="72" height="72" viewBox="0 0 72 72">
  <g id="Grupo_1102956" data-name="Grupo 1102956" transform="translate(-419 -1121)">
    <path id="Trazado_824488" data-name="Trazado 824488" d="M36,0A36,36,0,1,1,0,36,36,36,0,0,1,36,0Z" transform="translate(419 1121)" fill="#56e9cc"/>
    <g id="motor-de-busqueda-web" transform="translate(425 1078.619)">
      <g id="Grupo_1102964" data-name="Grupo 1102964" transform="translate(7.6 57.46)">
        <circle id="Elipse_11527" data-name="Elipse 11527" cx="22.766" cy="22.766" r="22.766" fill="#9dc6fb"/>
      </g>
      <g id="Grupo_1102965" data-name="Grupo 1102965" transform="translate(12.464 62.325)">
        <path id="Trazado_876588" data-name="Trazado 876588" d="M137.051,105.082a22.767,22.767,0,0,1-31.968,31.968,22.766,22.766,0,1,0,31.968-31.968Z" transform="translate(-105.083 -105.082)" fill="#80b4fb"/>
      </g>
      <g id="Grupo_1102970" data-name="Grupo 1102970" transform="translate(0.89 73.876)">
        <g id="Grupo_1102966" data-name="Grupo 1102966">
          <path id="Trazado_876589" data-name="Trazado 876589" d="M7.5,202.461H53.75v12.7H7.5Z" transform="translate(-7.5 -202.461)" fill="#f4fbff"/>
        </g>
        <g id="Grupo_1102967" data-name="Grupo 1102967" transform="translate(0 10.544)">
          <path id="Trazado_876590" data-name="Trazado 876590" d="M7.5,291.355H53.75v2.157H7.5Z" transform="translate(-7.5 -291.355)" fill="#e4f6ff"/>
        </g>
        <g id="Grupo_1102968" data-name="Grupo 1102968" transform="translate(46.25)">
          <path id="Trazado_876591" data-name="Trazado 876591" d="M397.423,202.461h12.7v12.7h-12.7Z" transform="translate(-397.423 -202.461)" fill="#ffa06f"/>
        </g>
      </g>
      <g id="Grupo_1102971" data-name="Grupo 1102971" transform="translate(0 56.571)">
        <path id="Trazado_876593" data-name="Trazado 876593" d="M422.248,230.333a3.045,3.045,0,0,0,4.477,2.689l.816.816a.89.89,0,0,0,1.258-1.258l-.816-.816a3.046,3.046,0,1,0-5.735-1.431Zm4.314,0a1.261,1.261,0,0,1-.338.859c-.012.011-.025.021-.037.033s-.022.024-.033.037a1.265,1.265,0,1,1,.408-.929Z" transform="translate(-372.163 -207.038)"/>
        <path id="Trazado_876594" data-name="Trazado 876594" d="M59.841,72.986H57.406a.89.89,0,1,0,0,1.779h1.546V85.687H48.029V74.765h5.225a.89.89,0,1,0,0-1.779H52.89a23.853,23.853,0,0,0-8.145-11.544,23.439,23.439,0,0,0-14.238-4.87c-.1,0,0,0-.285,0a23.636,23.636,0,0,0-12.009,3.354.89.89,0,0,0,.915,1.526,21.742,21.742,0,0,1,5.305-2.284,19.449,19.449,0,0,0-4.507,7.108H13.516a22.011,22.011,0,0,1,2.4-2.471.89.89,0,0,0-1.175-1.336,23.6,23.6,0,0,0-6.9,10.516H.89a.89.89,0,0,0-.89.89v12.7a.89.89,0,0,0,.89.89H7.841A23.853,23.853,0,0,0,15.985,99.01a23.439,23.439,0,0,0,14.238,4.87c.046,0,.069,0,.285,0a23.44,23.44,0,0,0,14.238-4.87A23.853,23.853,0,0,0,52.89,87.466h6.951a.89.89,0,0,0,.89-.89v-12.7A.89.89,0,0,0,59.841,72.986Zm-12.7,0H42.631a36.107,36.107,0,0,0-1.194-4.931h7.1a21.6,21.6,0,0,1,2.48,4.931Zm-27.233,0a33.368,33.368,0,0,1,1.269-4.931h8.3v4.931Zm11.348-4.93h8.3a33.381,33.381,0,0,1,1.269,4.931H31.255Zm0-9.632c2.986.487,5.729,3.409,7.618,7.853H31.255ZM47.2,66.276H40.8a19.489,19.489,0,0,0-4.484-7.088A22.143,22.143,0,0,1,47.2,66.276ZM29.476,58.424v7.852H21.858C23.746,61.835,26.488,58.915,29.476,58.424Zm-17.29,9.631h7.108A36.1,36.1,0,0,0,18.1,72.986H9.719A21.752,21.752,0,0,1,12.186,68.055ZM10.659,85.687H1.779V74.765H46.25V85.687H14.81a.89.89,0,0,0,0,1.779H18.1A36.106,36.106,0,0,0,19.294,92.4H12.2a21.6,21.6,0,0,1-2.48-4.931h.941a.89.89,0,0,0,0-1.779Zm18.817,8.489v7.853c-2.986-.487-5.729-3.409-7.618-7.853Zm-8.3-1.779a33.382,33.382,0,0,1-1.269-4.931h9.569V92.4Zm10.08,9.631V94.176h7.618C36.985,98.617,34.243,101.537,31.255,102.028Zm0-9.631v-4.93h9.569A33.366,33.366,0,0,1,39.555,92.4h-8.3ZM13.535,94.176h6.392a19.489,19.489,0,0,0,4.484,7.088,22.143,22.143,0,0,1-10.875-7.088Zm22.781,7.089A19.48,19.48,0,0,0,40.8,94.176H47.2A22.143,22.143,0,0,1,36.317,101.265ZM48.533,92.4h-7.1a36.1,36.1,0,0,0,1.194-4.931h8.382A21.6,21.6,0,0,1,48.533,92.4Z" transform="translate(0 -56.571)"/>
      </g>
    </g>
  </g>
</svg>
