<svg xmlns="http://www.w3.org/2000/svg" xmlns:xlink="http://www.w3.org/1999/xlink" width="85" height="91" viewBox="0 0 85 91">
  <defs>
    <clipPath id="clip-path">
      <rect id="Rect치ngulo_403720" data-name="Rect치ngulo 403720" width="67" height="71" transform="translate(189.051 411)" fill="#56e9cc"/>
    </clipPath>
  </defs>
  <g id="Grupo_1103838" data-name="Grupo 1103838" transform="translate(-180.051 -401)">
    <rect id="Rect치ngulo_403719" data-name="Rect치ngulo 403719" width="85" height="91" transform="translate(180.051 401)" fill="#ffa06f"/>
    <g id="Enmascarar_grupo_1098686" data-name="Enmascarar grupo 1098686" clip-path="url(#clip-path)">
      <g id="direccion" transform="translate(184.685 408.635)">
        <path id="Trazado_878453" data-name="Trazado 878453" d="M40.233,13.016H59.166L63.9,17.75l-4.733,4.733H40.233Z" fill="#95573a"/>
        <path id="Trazado_878454" data-name="Trazado 878454" d="M40.233,46.149h14.2l4.733,4.733-4.733,4.733h-14.2Z" fill="#95573a"/>
        <path id="Trazado_878455" data-name="Trazado 878455" d="M35.5,8.283h4.733v63.9H35.5Z" fill="#b6b9ba"/>
        <path id="Trazado_878456" data-name="Trazado 878456" d="M40.233,29.583H63.9l4.733,4.733L63.9,39.049H40.233Z" fill="#ad6643"/>
        <circle id="Elipse_11546" data-name="Elipse 11546" cx="2.367" cy="2.367" r="2.367" transform="translate(35.499 3.55)" fill="#7e8589"/>
        <path id="Trazado_878457" data-name="Trazado 878457" d="M35.5,24.85H11.833L7.1,20.116l4.733-4.733H35.5Z" fill="#ad6643"/>
        <path id="Trazado_878458" data-name="Trazado 878458" d="M35.5,41.416H16.566l-4.733-4.733,4.733-4.733H35.5Z" fill="#95573a"/>
        <path id="Trazado_878459" data-name="Trazado 878459" d="M54.432,16.566H44.966a1.183,1.183,0,1,0,0,2.367h9.467a1.183,1.183,0,1,0,0-2.367Z"/>
        <path id="Trazado_878460" data-name="Trazado 878460" d="M49.7,49.7H44.966a1.183,1.183,0,1,0,0,2.367H49.7a1.183,1.183,0,1,0,0-2.367Z"/>
        <path id="Trazado_878461" data-name="Trazado 878461" d="M34.316,14.2H11.833a1.183,1.183,0,0,0-.837.347L6.263,19.28a1.183,1.183,0,0,0,0,1.674L11,25.686a1.183,1.183,0,0,0,.837.347H34.316v4.733H16.566a1.183,1.183,0,0,0-.837.347L11,35.846a1.183,1.183,0,0,0,0,1.674l4.733,4.733a1.183,1.183,0,0,0,.837.347h17.75V72.182A1.183,1.183,0,0,0,35.5,73.365h4.733a1.183,1.183,0,0,0,1.183-1.183V56.8H54.432a1.183,1.183,0,0,0,.837-.347L60,51.719a1.183,1.183,0,0,0,0-1.674l-4.733-4.733a1.183,1.183,0,0,0-.837-.347H41.416V40.233H63.9a1.183,1.183,0,0,0,.837-.347l4.733-4.733a1.183,1.183,0,0,0,0-1.674l-4.733-4.733A1.183,1.183,0,0,0,63.9,28.4H41.416V23.666h17.75A1.183,1.183,0,0,0,60,23.32l4.733-4.733a1.183,1.183,0,0,0,0-1.674L60,12.18a1.183,1.183,0,0,0-.837-.347H41.416V8.283a1.179,1.179,0,0,0-.347-.837,3.55,3.55,0,1,0-6.406,0,1.179,1.179,0,0,0-.347.837Zm0,26.033H17.056l-3.55-3.55,3.55-3.55h17.26Zm0-16.566H12.323l-3.55-3.55,3.55-3.55H34.316Zm7.1-9.467h17.26l3.55,3.55-3.55,3.55H41.416Zm0,16.566H63.409l3.55,3.55-3.55,3.55H41.416Zm0,16.566H53.942l3.55,3.55-3.55,3.55H41.416Zm-3.55-42.6a1.183,1.183,0,1,1-1.183,1.183A1.183,1.183,0,0,1,37.866,4.733ZM36.683,9.467h2.367V71H36.683Z"/>
        <path id="Trazado_878462" data-name="Trazado 878462" d="M59.166,33.133h-14.2a1.183,1.183,0,1,0,0,2.367h14.2a1.183,1.183,0,1,0,0-2.367Z"/>
        <path id="Trazado_878463" data-name="Trazado 878463" d="M16.566,21.3h14.2a1.183,1.183,0,0,0,0-2.367h-14.2a1.183,1.183,0,1,0,0,2.367Z"/>
        <path id="Trazado_878464" data-name="Trazado 878464" d="M21.3,37.866h9.467a1.183,1.183,0,1,0,0-2.367H21.3a1.183,1.183,0,1,0,0,2.367Z"/>
      </g>
    </g>
  </g>
</svg>
