<svg xmlns="http://www.w3.org/2000/svg" width="11.288" height="15.051" viewBox="0 0 11.288 15.051">
  <g id="ubicacion" transform="translate(-64)">
    <g id="Grupo_1101766" data-name="Grupo 1101766" transform="translate(64)">
      <g id="Grupo_1101765" data-name="Grupo 1101765">
        <path id="Trazado_875037" data-name="Trazado 875037" d="M198.585,192.627h-.995a.317.317,0,0,1-.222-.092l-.26-.26a.935.935,0,0,0-.665-.276h-1.362a.935.935,0,0,0-.665.276l-.26.26a.317.317,0,0,1-.222.092h-.995a.942.942,0,0,0-.941.941v3.763a.942.942,0,0,0,.941.941h5.644a.942.942,0,0,0,.941-.941v-3.763A.942.942,0,0,0,198.585,192.627Zm-2.822,4.7a1.881,1.881,0,1,1,1.881-1.881A1.883,1.883,0,0,1,195.763,197.33Z" transform="translate(-188.237 -186.356)" fill="#348c7b"/>
        <circle id="Elipse_11496" data-name="Elipse 11496" cx="1.254" cy="1.254" r="1.254" transform="translate(6.271 7.839)" fill="#348c7b"/>
        <path id="Trazado_875038" data-name="Trazado 875038" d="M69.017,2.508A2.5,2.5,0,0,1,71.5,4.738a.314.314,0,0,0,.312.279h.4a1.556,1.556,0,0,1,1.109.46l.076.076a.315.315,0,0,0,.221.091H73.7a.314.314,0,0,0,.313-.293l.007-.1c.007-.079.013-.158.013-.238A5.017,5.017,0,1,0,64.6,7.4l1.945,3.518a.314.314,0,0,0,.588-.152V7.212a1.565,1.565,0,0,1,.035-.325A.313.313,0,0,0,67.1,6.62a2.474,2.474,0,0,1-.6-1.6A2.511,2.511,0,0,1,69.017,2.508Z" transform="translate(-64)" fill="#348c7b"/>
        <path id="Trazado_875039" data-name="Trazado 875039" d="M187.219,419.809h-1.354a1.554,1.554,0,0,1-.7-.174.314.314,0,0,0-.416.432l1.155,2.089a.314.314,0,0,0,.549,0l1.04-1.881a.314.314,0,0,0-.274-.465Z" transform="translate(-181.162 -407.267)" fill="#348c7b"/>
      </g>
    </g>
  </g>
</svg>
