<svg xmlns="http://www.w3.org/2000/svg" xmlns:xlink="http://www.w3.org/1999/xlink" width="105.096" height="97.703" viewBox="0 0 105.096 97.703">
  <defs>
    <filter id="Trazado_876162" x="0" y="0" width="105.096" height="97.703" filterUnits="userSpaceOnUse">
      <feOffset dy="3" input="SourceAlpha"/>
      <feGaussianBlur stdDeviation="3" result="blur"/>
      <feFlood flood-opacity="0.161"/>
      <feComposite operator="in" in2="blur"/>
      <feComposite in="SourceGraphic"/>
    </filter>
  </defs>
  <g id="Grupo_1103832" data-name="Grupo 1103832" transform="translate(9 5.999)">
    <g transform="matrix(1, 0, 0, 1, -9, -6)" filter="url(#Trazado_876162)">
      <path id="Trazado_876162-2" data-name="Trazado 876162" d="M0,0V79.7H66.282L87.095,38.977,66.282,0Z" transform="translate(96.09 85.7) rotate(180)" fill="#ffa06f"/>
    </g>
    <g id="mapa_1_" data-name="mapa (1)" transform="translate(21.201 -14.939)">
      <path id="Trazado_880804" data-name="Trazado 880804" d="M131.76,223.866l13.862,6.224V205.28l-11.94-6.224Z" transform="translate(-117.059 -152.618)" fill="#44c868"/>
      <path id="Trazado_880805" data-name="Trazado 880805" d="M132.789,302.387l12.833,19.506-13.862-6.224Z" transform="translate(-117.059 -244.42)" fill="#7ee5f2"/>
      <path id="Trazado_880806" data-name="Trazado 880806" d="M21.377,223.866,7.515,230.09,12,205.344l11.3-6.288Z" transform="translate(-6.676 -152.618)" fill="#4ce166"/>
      <path id="Trazado_880807" data-name="Trazado 880807" d="M9.849,309.025l12.557-6.638-1.029,13.281L7.515,321.893Z" transform="translate(-6.676 -244.42)" fill="#a8eefc"/>
      <path id="Trazado_880808" data-name="Trazado 880808" d="M364.949,223.866l13.862,6.224-4.488-24.746-11.3-6.288Z" transform="translate(-322.524 -152.618)" fill="#44c868"/>
      <path id="Trazado_880809" data-name="Trazado 880809" d="M368.127,248.885l13.833,16.068-3.106-17.127-1.712-.953Z" transform="translate(-327.055 -195.1)" fill="#7ee5f2"/>
      <path id="Trazado_880810" data-name="Trazado 880810" d="M269.867,223.866l-13.862,6.224V205.28l11.941-6.224Z" transform="translate(-227.442 -152.618)" fill="#4ce166"/>
      <path id="Trazado_880811" data-name="Trazado 880811" d="M28.432,271.458l12.557-6.638.366-4.718-12.011,6.33Z" transform="translate(-25.26 -206.853)" fill="#ffdb56"/>
      <g id="Grupo_1103831" data-name="Grupo 1103831" transform="translate(15.729 48.762)">
        <path id="Trazado_880812" data-name="Trazado 880812" d="M153.817,261.887,141.346,260.1l-.366,4.718,12.833,19.506v-7.093l-7.658-12.069,7.661.917Z" transform="translate(-140.98 -255.615)" fill="#ffbb24"/>
        <path id="Trazado_880813" data-name="Trazado 880813" d="M365.594,224.906l9.015-2.012-5.41-3.011-3.923.917Z" transform="translate(-340.251 -219.883)" fill="#ffbb24"/>
      </g>
      <path id="Trazado_880814" data-name="Trazado 880814" d="M269,238.093l-.486-6.281h0l-.287-3.707-12.188,5.355v4.194L264,234.189Z" transform="translate(-227.469 -178.426)" fill="#ffdb56"/>
      <path id="Trazado_880815" data-name="Trazado 880815" d="M368.583,270.789l14.759,17.8-1.382-7.619-13.833-16.068Z" transform="translate(-327.055 -211.122)" fill="#ffbb24"/>
      <path id="Trazado_880816" data-name="Trazado 880816" d="M169.769,34.787a10.89,10.89,0,0,0-10.89,10.89c0,9.159,10.89,17.586,10.89,17.586s10.89-8.427,10.89-17.586A10.89,10.89,0,0,0,169.769,34.787Zm0,15.234a4.344,4.344,0,1,1,4.344-4.344A4.344,4.344,0,0,1,169.769,50.021Z" transform="translate(-141.153 -6.677)" fill="#ff4a4a"/>
      <path id="Trazado_880817" data-name="Trazado 880817" d="M244.469,34.787a10.985,10.985,0,0,0-1.509.1,10.892,10.892,0,0,1,9.381,10.786c0,7.016-6.391,13.6-9.381,16.3.913.824,1.509,1.285,1.509,1.285s10.89-8.427,10.89-17.586A10.89,10.89,0,0,0,244.469,34.787Z" transform="translate(-215.853 -6.677)" fill="#e7343f"/>
      <path id="Trazado_880818" data-name="Trazado 880818" d="M256.005,413.642l4.777,4.948-4.777,2.145Z" transform="translate(-227.442 -343.262)" fill="#ffdb56"/>
      <path id="Trazado_880819" data-name="Trazado 880819" d="M56.949,77.986l.013-.015a.838.838,0,0,0,.067-.107c.005-.01.01-.021.015-.032a.858.858,0,0,0,.035-.083c.005-.014.009-.029.013-.044s.014-.053.019-.079.006-.031.008-.047a.853.853,0,0,0,.006-.086c0-.014,0-.027,0-.041a.83.83,0,0,0-.012-.129L53.765,58.869a.838.838,0,1,0-1.65.3l1.415,7.8L42.621,54.3l7.338-1.638,1.086.6.472,2.6a.838.838,0,0,0,1.65-.3l-.543-2.992a.838.838,0,0,0-.417-.583h0L40.91,45.7h0a.832.832,0,0,0-.1-.047l-.032-.011c-.024-.008-.047-.016-.071-.022l-.041-.008c-.022,0-.043-.008-.065-.011l-.044,0-.063,0-.045,0-.062.006-.045.008-.06.014-.045.014-.058.022-.044.02-.019.008-1.915,1A16.3,16.3,0,0,0,40.345,39a11.729,11.729,0,1,0-23.457,0,16.355,16.355,0,0,0,2.186,7.77L17.01,45.695l-.02-.009-.043-.019-.059-.022-.044-.013-.061-.014-.045-.008-.061-.006-.046,0-.061,0-.046,0c-.021,0-.042.007-.062.011l-.044.009c-.023.006-.045.014-.068.021l-.035.012a.846.846,0,0,0-.1.046h0l-11.3,6.288a.838.838,0,0,0-.417.583h0L1.32,70.119h0a.838.838,0,0,0,1.65.3l.954-5.263,10.852-5.736L13.9,70.687,1.948,76.056l.421-2.321a.838.838,0,1,0-1.65-.3L.014,77.323a.838.838,0,0,0,1.168.914L14.7,72.168l13.513,6.067h0l0,0,.023.009.038.015.037.012.024.007.032.008.053.01.025,0,.017,0a.825.825,0,0,0,.084.005h.016a.836.836,0,0,0,.1-.007h.013l.019,0a.8.8,0,0,0,.078-.017l.022-.005h0l.007,0a.832.832,0,0,0,.1-.036l13.519-6.07h0l13.519,6.07.04.015.04.015.053.015.033.009c.022,0,.043.008.065.011l.023,0a.827.827,0,0,0,.089,0h0a.848.848,0,0,0,.122-.01l.028,0a.821.821,0,0,0,.119-.03l.007,0a.777.777,0,0,0,.077-.031l.021-.012c.021-.011.041-.023.062-.035s.041-.025.06-.039l.021-.013c.015-.011.028-.025.041-.037l.033-.03A.814.814,0,0,0,56.949,77.986ZM33.534,74.321,29.4,70.041V59.779l7-3.048,4.316,3.37.823,10.624ZM29.4,76.177V72.455l2.507,2.6ZM26.113,55.53c.7.647,1.263,1.128,1.612,1.415v1.338l-6.72-.8A.839.839,0,0,0,20.2,58.76l7.527,11.863v4.049L16.588,57.746l.136-1.762.138-1.778Zm6.333-1.284,7.564-3.323.536,6.914-3.5-2.734a.839.839,0,0,0-.851-.108L29.4,57.949V57.03A39.408,39.408,0,0,0,32.446,54.245Zm9.67,2.15-.01-.125L54.121,70.227l.77,4.248L42.344,59.337ZM41.46,47.93l.915.509-.86.2Zm-18.9,11.423,5.165.618v7.522Zm-6.183,1.122,9.9,15.053-10.7-4.8Zm26.192,1.761L53.339,75.23,43.222,70.687Zm5.187-10.8-5.922,1.322-.188-2.425,2.907-.68,3.2,1.783Zm-7.99-3.666.107,1.383-4.725,2.076q.7-.872,1.313-1.735ZM28.617,28.949A10.063,10.063,0,0,1,38.669,39c0,7.521-7.935,14.717-10.052,16.5C26.5,53.717,18.565,46.522,18.565,39A10.063,10.063,0,0,1,28.617,28.949ZM22.529,51.767c.537.642,1.073,1.238,1.588,1.783l-7.125-1.02.369-4.762,3.475,1.812Q21.608,50.666,22.529,51.767ZM15.666,47.93l-.241,3.111-.13,1.682L5.216,58.035l.865-4.769ZM4.305,63.058,4.823,60.2l.013-.074L15.142,54.7l-.212,2.742Z" transform="translate(0)"/>
      <path id="Trazado_880820" data-name="Trazado 880820" d="M220.406,91.132a5.188,5.188,0,0,0-5.182-5.182.838.838,0,0,0,0,1.677,3.5,3.5,0,1,1-2.5,1.049.838.838,0,0,0-1.2-1.175,5.182,5.182,0,1,0,8.879,3.632Z" transform="translate(-186.607 -52.131)"/>
    </g>
  </g>
</svg>
