<svg xmlns="http://www.w3.org/2000/svg" xmlns:xlink="http://www.w3.org/1999/xlink" width="85" height="85" viewBox="0 0 85 85">
  <defs>
    <clipPath id="clip-path">
      <rect id="Rectángulo_403649" data-name="Rectángulo 403649" width="67" height="67" transform="translate(189 408)" fill="#01245a"/>
    </clipPath>
  </defs>
  <g id="Grupo_1103841" data-name="Grupo 1103841" transform="translate(-180 -399)">
    <rect id="Rectángulo_403648" data-name="Rectángulo 403648" width="85" height="85" transform="translate(180 399)" fill="#56e9cc"/>
    <g id="Enmascarar_grupo_1098728" data-name="Enmascarar grupo 1098728" clip-path="url(#clip-path)">
      <g id="agente-de-viajes_2_" data-name="agente-de-viajes (2)" transform="translate(189.312 408.182)">
        <g id="Grupo_1103634" data-name="Grupo 1103634">
          <path id="Trazado_879572" data-name="Trazado 879572" d="M32.029,47.953c-.81-.154-1.468.057-1.807-.648l-6.787-.448-6.787.448c-.339.705-1,.494-1.807.648L6.191,49.6a10.253,10.253,0,0,0-2.569.856L3.279,51.9C5.31,54.008,5.686,59.388,5.686,62.33l1.353,3.331H39.655L43,57.05l-3.342-7.642Z" fill="#ffe177"/>
          <path id="Trazado_879573" data-name="Trazado 879573" d="M3.867,50.745l-.245-.286a10.149,10.149,0,0,0-2.387,1.606.642.642,0,0,0-.209.48l.039,12.467a.651.651,0,0,0,.651.649H7.039V58.62A11.362,11.362,0,0,0,3.867,50.745Z" fill="#60b7ff"/>
          <path id="Trazado_879574" data-name="Trazado 879574" d="M48.233,55.726A10.282,10.282,0,0,0,40.679,49.6l-1.024-.2V65.661H51.589Z" fill="#60b7ff"/>
          <path id="Trazado_879575" data-name="Trazado 879575" d="M29.972,45.467V42.493l-.825-4.649H17.841L16.9,42.493v2.974a12.257,12.257,0,0,1-.25,2.449l6.787-1.058,6.787,1.058A12.238,12.238,0,0,1,29.972,45.467Z" fill="#fecec8"/>
          <path id="Trazado_879576" data-name="Trazado 879576" d="M16.9,37.844v4.649l.191.167a7.657,7.657,0,0,0,4.956,1.992h2.78a7.657,7.657,0,0,0,4.956-1.992l.191-.167V37.844Z" fill="#fcbbb4"/>
          <path id="Trazado_879577" data-name="Trazado 879577" d="M38.944,23.568V14.617a9.3,9.3,0,0,0-.866-3.918h0a9.282,9.282,0,0,0-2.031-2.825c-1.7-1.61-3.974-.629-6.4-.629H17.223c-2.426,0-4.7-.981-6.4.629A9.284,9.284,0,0,0,8.792,10.7h0a9.3,9.3,0,0,0-.866,3.918v8.951Z" fill="#c68d7a"/>
          <path id="Trazado_879578" data-name="Trazado 879578" d="M21.922,20.268a3.134,3.134,0,0,0,3.027,0l2.8-1.545h0l2.21-1.22c.2-.108.4-.226.588-.348a11.8,11.8,0,0,0,5.5-9.279,9.3,9.3,0,0,0-6.4-2.554H17.223a9.3,9.3,0,0,0-6.4,2.555,11.729,11.729,0,0,0,5.5,9.278c.193.123.391.24.582.344Z" fill="#bc7c63"/>
          <path id="Trazado_879579" data-name="Trazado 879579" d="M9.462,21.076H37.408a2.767,2.767,0,0,1,2.767,2.767h0A6.954,6.954,0,0,1,33.221,30.8H13.65a6.932,6.932,0,0,1-4.868-1.988c-.343-.337-.9-.117-1.171-.518A10.724,10.724,0,0,1,6.973,25.8,6.958,6.958,0,0,1,6.7,23.843h0A2.767,2.767,0,0,1,9.462,21.076Z" fill="#fcbbb4"/>
          <path id="Trazado_879580" data-name="Trazado 879580" d="M13.912,37.109l4.765,4.169a5.115,5.115,0,0,0,3.368,1.266h2.78a5.115,5.115,0,0,0,3.368-1.266l4.765-4.169a7.672,7.672,0,0,0,2.62-5.774V21.076h0a1.6,1.6,0,0,1-1.514-1.082l-2.626-7.665H15.432l-2.626,7.665a1.6,1.6,0,0,1-1.514,1.082h0V31.335A7.672,7.672,0,0,0,13.912,37.109Z" fill="#fecec8"/>
          <path id="Trazado_879581" data-name="Trazado 879581" d="M33.418,7.162a9.151,9.151,0,0,1-4.285,7.75c-.146.093-.382-.08-.534,0L26.144,16.58l0,0-2.472,1.364a.482.482,0,0,1-.466,0L20.727,16.58,18.272,14.9c-.152-.083-.388.1-.534.01a9.151,9.151,0,0,1-4.285-7.75A6.185,6.185,0,0,1,19.64.976h7.591A6.186,6.186,0,0,1,33.418,7.162Z" fill="#c68d7a"/>
          <path id="Trazado_879582" data-name="Trazado 879582" d="M16.9,44.262l-1.915,1.393a1.7,1.7,0,0,0-.074,2.687l4.2,3.743a.362.362,0,0,0,.524-.071l3.8-5.156a9.5,9.5,0,0,1-6.536-2.6Z" fill="#8ac9fe"/>
          <path id="Trazado_879583" data-name="Trazado 879583" d="M31.887,45.655l-1.915-1.393h0a9.5,9.5,0,0,1-6.536,2.6l3.8,5.156a.362.362,0,0,0,.524.071l4.2-3.743A1.7,1.7,0,0,0,31.887,45.655Z" fill="#8ac9fe"/>
          <path id="Trazado_879584" data-name="Trazado 879584" d="M21.825,37.513H20.344a1.7,1.7,0,0,1-1.7-1.7h0a1.7,1.7,0,0,1,1.7-1.7h1.481a1.7,1.7,0,0,1,1.7,1.7h0A1.7,1.7,0,0,1,21.825,37.513Z" fill="#918291"/>
          <g id="Grupo_1103633" data-name="Grupo 1103633">
            <path id="Trazado_879585" data-name="Trazado 879585" d="M51.589,37.334a14.093,14.093,0,0,0-7.465,2.128l-4.889-1.75a1.351,1.351,0,0,0-1.727,1.727L39.3,44.452a14.161,14.161,0,0,0,1.919,16.693l.5.208a44.718,44.718,0,0,1,19.528-.095l.207-.346a14.377,14.377,0,0,0-1.378-20.646A13.4,13.4,0,0,0,51.589,37.334Z" fill="#eaf6ff"/>
            <path id="Trazado_879586" data-name="Trazado 879586" d="M41.7,60.989l-.483.156c2.586,2.778,6.273,4.03,10.368,4.03a12.078,12.078,0,0,0,9.691-4.024l-.793-.177c-1.266-.275-1.775-.573-3.021-.737A45.161,45.161,0,0,0,41.7,60.989Z" fill="#ffe177"/>
            <g id="Grupo_1103632" data-name="Grupo 1103632">
              <path id="Trazado_879587" data-name="Trazado 879587" d="M60.217,40.266a14.161,14.161,0,0,1-.8,18.2l-1.955,1.768c1.342.168,2.421.726,3.786,1.022l.773-.186a14.162,14.162,0,0,0-1.808-20.806Z" fill="#d8ecfe"/>
            </g>
            <path id="Trazado_879588" data-name="Trazado 879588" d="M61.232,60.895q-1.9-.413-3.766-.658a14.1,14.1,0,0,1-8.481,2.821,15.554,15.554,0,0,1-7.764-1.912h0a14.161,14.161,0,0,0,20.8-.073Z" fill="#ffd15b"/>
            <path id="Trazado_879589" data-name="Trazado 879589" d="M55.889,43.96l-1.77-1.373h0l-2.392.3c-1.6.831-1.319,2.464-1.859,4.23l-.095.328,5.91,1.463.081-.332C56.112,46.764,56.921,45.443,55.889,43.96Z" fill="#ffe177"/>
            <path id="Trazado_879590" data-name="Trazado 879590" d="M53.228,43.049l.892-.462-1.388-.344a7.362,7.362,0,0,0-8.178,3.525.3.3,0,0,0,.19.434l5.031,1.245.095-.328A6.821,6.821,0,0,1,53.228,43.049Z" fill="#8ac9fe"/>
            <path id="Trazado_879591" data-name="Trazado 879591" d="M60.758,49.391a.3.3,0,0,1-.37.289L58.3,49.557l-2.614-.647.08-.331a6.822,6.822,0,0,0-1.073-5.167l-.573-.824.012,0,1.413.563a6.142,6.142,0,0,1,3.644,2.277A6.026,6.026,0,0,1,60.758,49.391Z" fill="#8ac9fe"/>
            <path id="Trazado_879592" data-name="Trazado 879592" d="M61.109,49.883a.3.3,0,0,1-.371.289L58.3,49.557c.516-4.46-4.039-6.894-4.18-6.97l1.568.444A7.751,7.751,0,0,1,59.6,45.5,7.1,7.1,0,0,1,61.109,49.883Z" fill="#60b7ff"/>
          </g>
          <path id="Trazado_879593" data-name="Trazado 879593" d="M23.435,46.857Z" fill="#e89d6b"/>
        </g>
        <g id="Grupo_1103640" data-name="Grupo 1103640">
          <g id="Grupo_1103636" data-name="Grupo 1103636">
            <line id="Línea_676" data-name="Línea 676" y1="4.844" transform="translate(7.81 16.499)" fill="none" stroke="#000" stroke-linecap="round" stroke-linejoin="round" stroke-miterlimit="10" stroke-width="1.952"/>
            <path id="Trazado_879594" data-name="Trazado 879594" d="M8.205,11.957a9.1,9.1,0,0,1,.471-1.24,9.314,9.314,0,0,1,4.67-4.589" fill="none" stroke="#000" stroke-linecap="round" stroke-linejoin="round" stroke-miterlimit="10" stroke-width="1.952"/>
            <path id="Trazado_879595" data-name="Trazado 879595" d="M38.884,21.344v-6.7a9.313,9.313,0,0,0-.868-3.926h0a9.311,9.311,0,0,0-4.5-4.512" fill="none" stroke="#000" stroke-linecap="round" stroke-linejoin="round" stroke-miterlimit="10" stroke-width="1.952"/>
            <line id="Línea_677" data-name="Línea 677" x2="4.912" y2="0.937" transform="translate(32.514 48.146)" fill="none" stroke="#000" stroke-linecap="round" stroke-linejoin="round" stroke-miterlimit="10" stroke-width="1.952"/>
            <line id="Línea_678" data-name="Línea 678" y2="4.371" transform="translate(29.895 39.97)" fill="none" stroke="#000" stroke-linecap="round" stroke-linejoin="round" stroke-miterlimit="10" stroke-width="1.952"/>
            <line id="Línea_679" data-name="Línea 679" y1="4.314" transform="translate(16.799 40.028)" fill="none" stroke="#000" stroke-linecap="round" stroke-linejoin="round" stroke-miterlimit="10" stroke-width="1.952"/>
            <line id="Línea_680" data-name="Línea 680" x1="2.474" y2="0.471" transform="translate(11.775 48.133)" fill="none" stroke="#000" stroke-linecap="round" stroke-linejoin="round" stroke-miterlimit="10" stroke-width="1.952"/>
            <path id="Trazado_879596" data-name="Trazado 879596" d="M1.068,52.3a9.923,9.923,0,0,1,5-2.611l1.222-.233" fill="none" stroke="#000" stroke-linecap="round" stroke-linejoin="round" stroke-miterlimit="10" stroke-width="1.952"/>
            <path id="Trazado_879597" data-name="Trazado 879597" d="M35.512,21.113h1.833a2.772,2.772,0,0,1,2.772,2.772h0a6.969,6.969,0,0,1-4.3,6.438" fill="none" stroke="#000" stroke-linecap="round" stroke-linejoin="round" stroke-miterlimit="10" stroke-width="1.952"/>
            <path id="Trazado_879598" data-name="Trazado 879598" d="M10.982,30.366a6.97,6.97,0,0,1-4.406-6.481h0a2.772,2.772,0,0,1,2.772-2.772h1.833" fill="none" stroke="#000" stroke-linecap="round" stroke-linejoin="round" stroke-miterlimit="10" stroke-width="1.952"/>
            <path id="Trazado_879599" data-name="Trazado 879599" d="M31.6,13.028l2.4,7a1.6,1.6,0,0,0,1.516,1.084v1.84" fill="none" stroke="#000" stroke-linecap="round" stroke-linejoin="round" stroke-miterlimit="10" stroke-width="1.952"/>
            <path id="Trazado_879600" data-name="Trazado 879600" d="M35.512,27.508v3.882a7.687,7.687,0,0,1-2.625,5.785l-4.773,4.177A5.125,5.125,0,0,1,24.74,42.62H21.954a5.125,5.125,0,0,1-3.375-1.268l-4.773-4.177a7.688,7.688,0,0,1-2.625-5.785V21.113A1.6,1.6,0,0,0,12.7,20.029l2.446-7.139" fill="none" stroke="#000" stroke-linecap="round" stroke-linejoin="round" stroke-miterlimit="10" stroke-width="1.952"/>
            <path id="Trazado_879601" data-name="Trazado 879601" d="M28.608,15.2l-5.261,2.9-5.261-2.9a9.17,9.17,0,0,1-4.739-8.028h0a6.2,6.2,0,0,1,6.2-6.2H27.15a6.2,6.2,0,0,1,6.2,6.2h0A9.171,9.171,0,0,1,28.608,15.2Z" fill="none" stroke="#000" stroke-linecap="round" stroke-linejoin="round" stroke-miterlimit="10" stroke-width="1.952"/>
            <g id="Grupo_1103635" data-name="Grupo 1103635">
              <path id="Trazado_879602" data-name="Trazado 879602" d="M21.934,30.488a3.112,3.112,0,0,0,2.826,0" fill="none" stroke="#000" stroke-linecap="round" stroke-linejoin="round" stroke-miterlimit="10" stroke-width="1.952"/>
              <path id="Trazado_879603" data-name="Trazado 879603" d="M23.71,35.859a5.6,5.6,0,0,0,2.182-.6" fill="none" stroke="#000" stroke-linecap="round" stroke-linejoin="round" stroke-miterlimit="10" stroke-width="1.952"/>
              <path id="Trazado_879604" data-name="Trazado 879604" d="M15.915,21.809a4.694,4.694,0,0,1,4.518,0" fill="none" stroke="#000" stroke-linecap="round" stroke-linejoin="round" stroke-miterlimit="10" stroke-width="1.952"/>
              <path id="Trazado_879605" data-name="Trazado 879605" d="M26.261,21.809a4.694,4.694,0,0,1,4.518,0" fill="none" stroke="#000" stroke-linecap="round" stroke-linejoin="round" stroke-miterlimit="10" stroke-width="1.952"/>
              <line id="Línea_681" data-name="Línea 681" y2="2.137" transform="translate(18.174 24.521)" fill="none" stroke="#000" stroke-linecap="round" stroke-linejoin="round" stroke-miterlimit="10" stroke-width="1.952"/>
              <line id="Línea_682" data-name="Línea 682" y2="2.137" transform="translate(28.52 24.521)" fill="none" stroke="#000" stroke-linecap="round" stroke-linejoin="round" stroke-miterlimit="10" stroke-width="1.952"/>
            </g>
            <path id="Trazado_879606" data-name="Trazado 879606" d="M20.433,16.5h0A3.749,3.749,0,0,1,18.5,13.215V8.674" fill="none" stroke="#000" stroke-linecap="round" stroke-linejoin="round" stroke-miterlimit="10" stroke-width="1.952"/>
            <path id="Trazado_879607" data-name="Trazado 879607" d="M26.261,16.5h0A3.749,3.749,0,0,0,28.2,13.215V8.674" fill="none" stroke="#000" stroke-linecap="round" stroke-linejoin="round" stroke-miterlimit="10" stroke-width="1.952"/>
            <path id="Trazado_879608" data-name="Trazado 879608" d="M29.9,44.341l1.919,1.4a1.7,1.7,0,0,1,.075,2.692L27.138,52.3l-3.792-4.939" fill="none" stroke="#000" stroke-linecap="round" stroke-linejoin="round" stroke-miterlimit="10" stroke-width="1.952"/>
            <path id="Trazado_879609" data-name="Trazado 879609" d="M23.347,47.364,19.555,52.3l-4.75-3.875a1.7,1.7,0,0,1,.075-2.692l1.919-1.4" fill="none" stroke="#000" stroke-linecap="round" stroke-linejoin="round" stroke-miterlimit="10" stroke-width="1.952"/>
            <path id="Trazado_879610" data-name="Trazado 879610" d="M16.8,44.341h0a9.545,9.545,0,0,0,13.1,0h0" fill="none" stroke="#000" stroke-linecap="round" stroke-linejoin="round" stroke-miterlimit="10" stroke-width="1.952"/>
            <path id="Trazado_879611" data-name="Trazado 879611" d="M7.76,27.9v3.336A4.644,4.644,0,0,0,12.4,35.879h5.833" fill="none" stroke="#000" stroke-linecap="round" stroke-linejoin="round" stroke-miterlimit="10" stroke-width="1.952"/>
            <path id="Trazado_879612" data-name="Trazado 879612" d="M21.734,37.58H20.25a1.7,1.7,0,0,1-1.7-1.7h0a1.7,1.7,0,0,1,1.7-1.7h1.484a1.7,1.7,0,0,1,1.7,1.7h0A1.7,1.7,0,0,1,21.734,37.58Z" fill="none" stroke="#000" stroke-linecap="round" stroke-linejoin="round" stroke-miterlimit="10" stroke-width="1.952"/>
          </g>
          <g id="Grupo_1103639" data-name="Grupo 1103639">
            <path id="Trazado_879613" data-name="Trazado 879613" d="M65.569,53.775A14.163,14.163,0,1,1,39.3,44.453l-1.795-5.013a1.351,1.351,0,0,1,1.727-1.727l4.89,1.751A14.163,14.163,0,0,1,65.569,49.22" fill="none" stroke="#000" stroke-linecap="round" stroke-linejoin="round" stroke-miterlimit="10" stroke-width="1.952"/>
            <g id="Grupo_1103638" data-name="Grupo 1103638">
              <g id="Grupo_1103637" data-name="Grupo 1103637">
                <path id="Trazado_879614" data-name="Trazado 879614" d="M60.6,53.207,58,55.649a2.855,2.855,0,0,1-1.962.777H43.464" fill="none" stroke="#000" stroke-linecap="round" stroke-linejoin="round" stroke-miterlimit="10" stroke-width="1.952"/>
              </g>
              <path id="Trazado_879615" data-name="Trazado 879615" d="M60.533,49.9,45.09,46.078h0a6.8,6.8,0,0,1,7.718-3.57l2.563.634A6.8,6.8,0,0,1,60.533,49.9Z" fill="none" stroke="#000" stroke-linecap="round" stroke-linejoin="round" stroke-miterlimit="10" stroke-width="1.952"/>
              <line id="Línea_683" data-name="Línea 683" y1="1.468" x2="0.363" transform="translate(54.196 40.927)" fill="none" stroke="#000" stroke-linecap="round" stroke-linejoin="round" stroke-miterlimit="10" stroke-width="1.952"/>
              <line id="Línea_684" data-name="Línea 684" x1="2.739" y2="11.067" transform="translate(49.93 48.616)" fill="none" stroke="#000" stroke-linecap="round" stroke-linejoin="round" stroke-miterlimit="10" stroke-width="1.952"/>
              <line id="Línea_685" data-name="Línea 685" y2="2.843" transform="translate(45.708 56.848)" fill="none" stroke="#000" stroke-linecap="round" stroke-linejoin="round" stroke-miterlimit="10" stroke-width="1.952"/>
              <line id="Línea_686" data-name="Línea 686" y2="2.843" transform="translate(56.161 56.848)" fill="none" stroke="#000" stroke-linecap="round" stroke-linejoin="round" stroke-miterlimit="10" stroke-width="1.952"/>
              <path id="Trazado_879616" data-name="Trazado 879616" d="M54.09,42.825l-.823.427a6.3,6.3,0,0,0-3.1,3.757h0" fill="none" stroke="#000" stroke-linecap="round" stroke-linejoin="round" stroke-miterlimit="10" stroke-width="1.952"/>
              <path id="Trazado_879617" data-name="Trazado 879617" d="M54.09,42.825l.529.761a6.3,6.3,0,0,1,.991,4.77h0" fill="none" stroke="#000" stroke-linecap="round" stroke-linejoin="round" stroke-miterlimit="10" stroke-width="1.952"/>
              <path id="Trazado_879618" data-name="Trazado 879618" d="M41.429,60.989h0a47.34,47.34,0,0,1,20.1,0h0" fill="none" stroke="#000" stroke-linecap="round" stroke-linejoin="round" stroke-miterlimit="10" stroke-width="1.952"/>
            </g>
          </g>
          <line id="Línea_687" data-name="Línea 687" y2="9.062" transform="translate(23.347 47.364)" fill="none" stroke="#000" stroke-linecap="round" stroke-linejoin="round" stroke-miterlimit="10" stroke-width="1.952"/>
          <path id="Trazado_879619" data-name="Trazado 879619" d="M3.867,50.745A11.362,11.362,0,0,1,7.039,58.62v7.041" fill="none" stroke="#000" stroke-linecap="round" stroke-linejoin="round" stroke-miterlimit="10" stroke-width="1.952"/>
          <line id="Línea_688" data-name="Línea 688" y2="6.415" transform="translate(39.655 59.245)" fill="none" stroke="#000" stroke-linecap="round" stroke-linejoin="round" stroke-miterlimit="10" stroke-width="1.952"/>
        </g>
      </g>
    </g>
  </g>
</svg>
