<svg xmlns="http://www.w3.org/2000/svg" xmlns:xlink="http://www.w3.org/1999/xlink" width="97.92" height="107" viewBox="0 0 97.92 107">
  <defs>
    <clipPath id="clip-path">
      <rect id="Rectángulo_403805" data-name="Rectángulo 403805" width="70" height="70" transform="translate(345.19 873)" fill="#fff" stroke="#707070" stroke-width="1"/>
    </clipPath>
    <clipPath id="clip-path-2">
      <path id="path6387" d="M0-70H70V0H0Z"/>
    </clipPath>
  </defs>
  <g id="Grupo_1103322" data-name="Grupo 1103322" transform="translate(-331.19 -859.502)">
    <path id="Trazado_876162" data-name="Trazado 876162" d="M-17834.732-9565.178v97.92h81.432l25.568-50.035-25.568-47.885Z" transform="translate(-9136.067 18694.234) rotate(90)" fill="#ffa06f"/>
    <g id="Enmascarar_grupo_1098696" data-name="Enmascarar grupo 1098696" clip-path="url(#clip-path)">
      <g id="g6381" transform="translate(345.19 943)">
        <g id="g6383">
          <g id="g6385" clip-path="url(#clip-path-2)">
            <g id="g6391" transform="translate(41.192 -33.779)">
              <path id="path6393" d="M0,0A27.863,27.863,0,0,0-27.863,27.863H25.731a2.05,2.05,0,0,0,2.046-2.207A27.865,27.865,0,0,0,0,0" fill="#fddf30"/>
            </g>
            <g id="g6395" transform="translate(64.941 -5.917)">
              <path id="path6397" d="M0,0H1.981A2.05,2.05,0,0,0,4.027-2.207,27.865,27.865,0,0,0-23.75-27.863a27.743,27.743,0,0,0-17.129,5.886" fill="none" stroke="#000" stroke-linecap="round" stroke-linejoin="round" stroke-miterlimit="10" stroke-width="2.051"/>
            </g>
            <g id="g6399" transform="translate(16.918 -22.344)">
              <path id="path6401" d="M0,0A5.868,5.868,0,0,1-5.868-5.868,5.868,5.868,0,0,1,0-11.737,5.868,5.868,0,0,1,5.868-5.868,5.868,5.868,0,0,1,0,0M0-15.695A9.826,9.826,0,0,0-9.826-5.868,9.826,9.826,0,0,0,0,3.958,9.826,9.826,0,0,0,9.826-5.868,9.826,9.826,0,0,0,0-15.695" fill="#fef0ae"/>
            </g>
            <g id="g6403" transform="translate(16.918 -22.344)">
              <path id="path6405" d="M0,0A5.868,5.868,0,0,1-5.868-5.868,5.868,5.868,0,0,1,0-11.737,5.868,5.868,0,0,1,5.868-5.868,5.868,5.868,0,0,1,0,0ZM0-15.695A9.826,9.826,0,0,0-9.826-5.868,9.826,9.826,0,0,0,0,3.958,9.826,9.826,0,0,0,9.826-5.868,9.826,9.826,0,0,0,0-15.695Z" fill="none" stroke="#000" stroke-linecap="round" stroke-linejoin="round" stroke-miterlimit="10" stroke-width="2.051"/>
            </g>
            <g id="g6407" transform="translate(16.796 -56.535)">
              <path id="path6409" d="M0,0,7.734-3.056a.77.77,0,0,0,.433-1L6.978-7.061a.77.77,0,0,0-1-.433L-1.754-4.438a.77.77,0,0,0-.433,1L-1-.433A.77.77,0,0,0,0,0" fill="#fb8801"/>
            </g>
            <g id="g6411" transform="translate(16.796 -56.535)">
              <path id="path6413" d="M0,0,7.734-3.056a.77.77,0,0,0,.433-1L6.978-7.061a.77.77,0,0,0-1-.433L-1.754-4.438a.77.77,0,0,0-.433,1L-1-.433A.77.77,0,0,0,0,0Z" fill="none" stroke="#000" stroke-linecap="round" stroke-linejoin="round" stroke-miterlimit="10" stroke-width="2.051"/>
            </g>
            <g id="g6415" transform="translate(12.822 -16.558)">
              <path id="path6417" d="M0,0-11.31,4.469a.77.77,0,0,0-.433,1l1.188,3.006a.77.77,0,0,0,1,.433l11.31-4.47a.77.77,0,0,0,.433-1L1,.433A.77.77,0,0,0,0,0" fill="#017b4e"/>
            </g>
            <g id="g6419" transform="translate(13.89 -12.697)">
              <path id="path6421" d="M0,0-4.47-11.31a.77.77,0,0,0-1-.433l-3.006,1.188a.77.77,0,0,0-.433,1l4.47,11.31a.77.77,0,0,0,1,.433L-.433,1A.77.77,0,0,0,0,0" fill="#017b4e"/>
            </g>
            <g id="g6423" transform="translate(13.89 -12.697)">
              <path id="path6425" d="M0,0-4.47-11.31a.77.77,0,0,0-1-.433l-3.006,1.188a.77.77,0,0,0-.433,1l4.47,11.31a.77.77,0,0,0,1,.433L-.433,1A.77.77,0,0,0,0,0Z" fill="none" stroke="#000" stroke-linecap="round" stroke-linejoin="round" stroke-miterlimit="10" stroke-width="2.051"/>
            </g>
            <g id="g6427" transform="translate(15.314 -14.994)">
              <path id="path6429" d="M0,0-11.158-4.837a.77.77,0,0,0-1.012.4l-1.286,2.966a.77.77,0,0,0,.4,1.012L-1.9,4.378a.77.77,0,0,0,1.012-.4L.4,1.012A.77.77,0,0,0,0,0" fill="#81d261"/>
            </g>
            <g id="g6431" transform="translate(15.314 -14.994)">
              <path id="path6433" d="M0,0-11.158-4.837a.77.77,0,0,0-1.012.4l-1.286,2.966a.77.77,0,0,0,.4,1.012L-1.9,4.378a.77.77,0,0,0,1.012-.4L.4,1.012A.77.77,0,0,0,0,0Z" fill="none" stroke="#000" stroke-linecap="round" stroke-linejoin="round" stroke-miterlimit="10" stroke-width="2.051"/>
            </g>
            <g id="g6435" transform="translate(12.822 -16.558)">
              <path id="path6437" d="M0,0-11.31,4.469a.77.77,0,0,0-.433,1l1.188,3.006a.77.77,0,0,0,1,.433l11.31-4.47a.77.77,0,0,0,.433-1L1,.433A.77.77,0,0,0,0,0Z" fill="none" stroke="#000" stroke-linecap="round" stroke-linejoin="round" stroke-miterlimit="10" stroke-width="2.051"/>
            </g>
            <g id="g6439" transform="translate(40.214 -29.117)">
              <path id="path6441" d="M0,0A5.868,5.868,0,0,1-5.868-5.869,5.868,5.868,0,0,1,0-11.737,5.868,5.868,0,0,1,5.868-5.869,5.868,5.868,0,0,1,0,0M0-15.695A9.826,9.826,0,0,0-9.826-5.869,9.826,9.826,0,0,0,0,3.958,9.826,9.826,0,0,0,9.826-5.869,9.826,9.826,0,0,0,0-15.695" fill="#fef0ae"/>
            </g>
            <g id="g6443" transform="translate(40.214 -29.117)">
              <path id="path6445" d="M0,0A5.868,5.868,0,0,1-5.868-5.869,5.868,5.868,0,0,1,0-11.737,5.868,5.868,0,0,1,5.868-5.869,5.868,5.868,0,0,1,0,0ZM2.579-15.353A9.838,9.838,0,0,0,0-15.695,9.826,9.826,0,0,0-9.826-5.869,9.826,9.826,0,0,0,0,3.958,9.826,9.826,0,0,0,9.826-5.869a9.8,9.8,0,0,0-3.009-7.077" fill="none" stroke="#000" stroke-linecap="round" stroke-linejoin="round" stroke-miterlimit="10" stroke-width="2.051"/>
            </g>
            <g id="g6447" transform="translate(54.011 -37.883)">
              <path id="path6449" d="M0,0A5.069,5.069,0,0,0-4.167,1.345,5.056,5.056,0,0,0-6.989-.007,5.08,5.08,0,0,0-12.7,4.351a5.08,5.08,0,0,0,4.358,5.711A5.07,5.07,0,0,0-4.174,8.717a5.056,5.056,0,0,0,2.821,1.352A5.08,5.08,0,0,0,4.358,5.711,5.08,5.08,0,0,0,0,0" fill="#017b4e"/>
            </g>
            <g id="g6451" transform="translate(54.011 -37.883)">
              <path id="path6453" d="M0,0A5.069,5.069,0,0,0-4.167,1.345,5.056,5.056,0,0,0-6.989-.007,5.08,5.08,0,0,0-12.7,4.351a5.08,5.08,0,0,0,4.358,5.711A5.07,5.07,0,0,0-4.174,8.717a5.056,5.056,0,0,0,2.821,1.352A5.08,5.08,0,0,0,4.358,5.711,5.08,5.08,0,0,0,0,0Z" fill="none" stroke="#000" stroke-linecap="round" stroke-linejoin="round" stroke-miterlimit="10" stroke-width="2.051"/>
            </g>
            <g id="g6455" transform="translate(47.007 -49.67)">
              <path id="path6457" d="M0,0A9.092,9.092,0,0,0,12.377.447a.611.611,0,0,0,.032-.894L.447-12.409a.611.611,0,0,0-.894.032A9.091,9.091,0,0,0,0,0" fill="#fd4755"/>
            </g>
            <g id="g6459" transform="translate(50.713 -48.936)">
              <path id="path6461" d="M0,0A9.093,9.093,0,0,1-1.311-11.2l-1.947-1.947a.611.611,0,0,0-.894.032A9.091,9.091,0,0,0-3.706-.734,9.064,9.064,0,0,0,2.841,1.927,9.066,9.066,0,0,1,0,0" fill="#fb2b3a"/>
            </g>
            <g id="g6463" transform="translate(47.007 -49.67)">
              <path id="path6465" d="M0,0A9.092,9.092,0,0,0,12.377.447a.611.611,0,0,0,.032-.894L.447-12.409a.611.611,0,0,0-.894.032A9.091,9.091,0,0,0,0,0Z" fill="none" stroke="#000" stroke-linecap="round" stroke-linejoin="round" stroke-miterlimit="10" stroke-width="2.051"/>
            </g>
            <g id="g6467" transform="translate(49.399 -52.237)">
              <path id="path6469" d="M0,0,.877-.877" fill="none" stroke="#000" stroke-linecap="round" stroke-linejoin="round" stroke-miterlimit="10" stroke-width="2.051"/>
            </g>
            <g id="g6471" transform="translate(47.887 -56.135)">
              <path id="path6473" d="M0,0H1.241" fill="none" stroke="#000" stroke-linecap="round" stroke-linejoin="round" stroke-miterlimit="10" stroke-width="2.051"/>
            </g>
            <g id="g6475" transform="translate(53.224 -50.55)">
              <path id="path6477" d="M0,0V-1.241" fill="none" stroke="#000" stroke-linecap="round" stroke-linejoin="round" stroke-miterlimit="10" stroke-width="2.051"/>
            </g>
            <g id="g6479" transform="translate(55.286 -19.38)">
              <path id="path6481" d="M0,0A5.3,5.3,0,0,0,5.3,5.3,5.3,5.3,0,0,0,10.61,0,5.306,5.306,0,0,0,6.752-5.1a5.279,5.279,0,0,0,.757-2.732,5.3,5.3,0,0,0-5.3-5.3,5.283,5.283,0,0,0-3.418,1.249,5.292,5.292,0,0,0-3.927-1.739,5.3,5.3,0,0,0-5.3,5.3,5.3,5.3,0,0,0,5.3,5.3" fill="#81d261"/>
            </g>
            <g id="g6483" transform="translate(50.144 -30.009)">
              <path id="path6485" d="M0,0A5.286,5.286,0,0,1,3.531,1.346a.687.687,0,0,0,.845.053,5.3,5.3,0,0,1,8.057,2.894A5.3,5.3,0,0,0,3.927-1.262,5.293,5.293,0,0,0-.316-2.992,5.321,5.321,0,0,0-5.262,1.63,5.314,5.314,0,0,0-5.088,3.8,5.306,5.306,0,0,1,0,0" fill="#68ca44"/>
            </g>
            <g id="g6487" transform="translate(55.286 -19.38)">
              <path id="path6489" d="M0,0A5.3,5.3,0,0,0,5.3,5.3,5.3,5.3,0,0,0,10.61,0,5.306,5.306,0,0,0,6.752-5.1a5.279,5.279,0,0,0,.757-2.732,5.3,5.3,0,0,0-5.3-5.3,5.283,5.283,0,0,0-3.418,1.249,5.292,5.292,0,0,0-3.927-1.739,5.3,5.3,0,0,0-5.3,5.3,5.3,5.3,0,0,0,5.3,5.3A5.282,5.282,0,0,0-1.724-4.269" fill="none" stroke="#000" stroke-linecap="round" stroke-linejoin="round" stroke-miterlimit="10" stroke-width="2.051"/>
            </g>
            <g id="g6491" transform="translate(63.592 -14.306)">
              <path id="path6493" d="M0,0A3.925,3.925,0,0,1-3.925,3.925,3.925,3.925,0,0,1-7.851,0,3.925,3.925,0,0,1-3.925-3.925,3.925,3.925,0,0,1,0,0" fill="#fd9a01"/>
            </g>
            <g id="g6495" transform="translate(63.592 -14.306)">
              <path id="path6497" d="M0,0A3.925,3.925,0,0,1-3.925,3.925,3.925,3.925,0,0,1-7.851,0,3.925,3.925,0,0,1-3.925-3.925,3.925,3.925,0,0,1,0,0Z" fill="none" stroke="#000" stroke-linecap="round" stroke-linejoin="round" stroke-miterlimit="10" stroke-width="2.051"/>
            </g>
            <g id="g6499" transform="translate(65.747 -8.303)">
              <path id="path6501" d="M0,0A3.925,3.925,0,0,0-3.925-3.925,3.925,3.925,0,0,0-7.851,0a3.907,3.907,0,0,0,.809,2.386H-.809A3.907,3.907,0,0,0,0,0" fill="#fb8801"/>
            </g>
            <g id="g6503" transform="translate(65.747 -8.303)">
              <path id="path6505" d="M0,0A3.925,3.925,0,0,0-3.925-3.925,3.925,3.925,0,0,0-7.851,0a3.907,3.907,0,0,0,.809,2.386H-.809A3.907,3.907,0,0,0,0,0Z" fill="none" stroke="#000" stroke-linecap="round" stroke-linejoin="round" stroke-miterlimit="10" stroke-width="2.051"/>
            </g>
            <g id="g6507" transform="translate(30.583 -36.994)">
              <path id="path6509" d="M0,0A4.23,4.23,0,0,0-1.309-1.856a4.251,4.251,0,0,0-5.982.6,4.233,4.233,0,0,0-.961,2.753,4.239,4.239,0,0,0-3.072,1.552,4.25,4.25,0,0,0,.6,5.982,4.251,4.251,0,0,0,5.982-.6,4.232,4.232,0,0,0,.961-2.753,4.251,4.251,0,0,0,2.213-.757A4.251,4.251,0,1,0,0,0" fill="#81d261"/>
            </g>
            <g id="g6511" transform="translate(22.192 -32.51)">
              <path id="path6513" d="M0,0A4.234,4.234,0,0,1,2.531-1.49a.689.689,0,0,0,.567-.6A4.227,4.227,0,0,1,4.033-4.3,4.244,4.244,0,0,1,7.583-5.853a4.253,4.253,0,0,0-.5-.487,4.251,4.251,0,0,0-5.982.6A4.233,4.233,0,0,0,.14-2.992a4.241,4.241,0,0,0-3.187,1.7,4.269,4.269,0,0,0,.5,5.648A4.234,4.234,0,0,0,.093,5.5,4.251,4.251,0,0,1,0,0" fill="#68ca44"/>
            </g>
            <g id="g6515" transform="translate(30.583 -36.994)">
              <path id="path6517" d="M0,0A4.23,4.23,0,0,0-1.309-1.856a4.251,4.251,0,0,0-5.982.6,4.233,4.233,0,0,0-.961,2.753,4.239,4.239,0,0,0-3.072,1.552,4.25,4.25,0,0,0,.6,5.982,4.251,4.251,0,0,0,5.982-.6,4.232,4.232,0,0,0,.961-2.753,4.251,4.251,0,0,0,2.213-.757A4.251,4.251,0,1,0,0,0Z" fill="none" stroke="#000" stroke-linecap="round" stroke-linejoin="round" stroke-miterlimit="10" stroke-width="2.051"/>
            </g>
            <g id="g6519" transform="translate(33.569 -33.779)">
              <path id="path6521" d="M0,0A27.865,27.865,0,0,0-27.777,25.656a2.05,2.05,0,0,0,2.046,2.207H27.863A27.863,27.863,0,0,0,0,0" fill="#fed402"/>
            </g>
            <g id="g6523" transform="translate(11.764 -8.123)">
              <path id="path6525" d="M0,0A27.87,27.87,0,0,1,24.793-25.5a28.165,28.165,0,0,0-2.988-.16A27.865,27.865,0,0,0-5.972,0,2.05,2.05,0,0,0-3.926,2.207H2.046A2.05,2.05,0,0,1,0,0" fill="#fac600"/>
            </g>
            <g id="g6527" transform="translate(52.363 -26.486)">
              <path id="path6529" d="M0,0A27.762,27.762,0,0,0-18.794-7.293,27.865,27.865,0,0,0-46.571,18.363a2.05,2.05,0,0,0,2.046,2.207h8.568" fill="none" stroke="#000" stroke-linecap="round" stroke-linejoin="round" stroke-miterlimit="10" stroke-width="2.051"/>
            </g>
            <g id="g6531" transform="translate(21.328 -5.917)">
              <path id="path6533" d="M0,0H40.1a27.742,27.742,0,0,0-5.72-16.916" fill="none" stroke="#000" stroke-linecap="round" stroke-linejoin="round" stroke-miterlimit="10" stroke-width="2.051"/>
            </g>
            <g id="g6535" transform="translate(36.857 -51.304)">
              <path id="path6537" d="M0,0A.763.763,0,0,0,.362-.953,5.663,5.663,0,0,0-1.879-3.648a5.664,5.664,0,0,0-3.4-.869.764.764,0,0,0-.706.736l-.231,5.738a.77.77,0,0,0,1.127.712Z" fill="#fd4755"/>
            </g>
            <g id="g6539" transform="translate(36.857 -51.304)">
              <path id="path6541" d="M0,0A.763.763,0,0,0,.362-.953,5.663,5.663,0,0,0-1.879-3.648a5.664,5.664,0,0,0-3.4-.869.764.764,0,0,0-.706.736l-.231,5.738a.77.77,0,0,0,1.127.712Z" fill="none" stroke="#000" stroke-linecap="round" stroke-linejoin="round" stroke-miterlimit="10" stroke-width="2.051"/>
            </g>
            <g id="g6543" transform="translate(15.712 -47.634)">
              <path id="path6545" d="M0,0A2.771,2.771,0,0,1-2.771,2.771,2.771,2.771,0,0,1-5.542,0,2.771,2.771,0,0,1-2.771-2.771,2.771,2.771,0,0,1,0,0" fill="#fd4755"/>
            </g>
            <g id="g6547" transform="translate(15.712 -47.634)">
              <path id="path6549" d="M0,0A2.771,2.771,0,0,1-2.771,2.771,2.771,2.771,0,0,1-5.542,0,2.771,2.771,0,0,1-2.771-2.771,2.771,2.771,0,0,1,0,0Z" fill="none" stroke="#000" stroke-linecap="round" stroke-linejoin="round" stroke-miterlimit="10" stroke-width="2.051"/>
            </g>
            <g id="g6551" transform="translate(48.221 -14.053)">
              <path id="path6553" d="M0,0A3.231,3.231,0,0,0-4.572,0" fill="none" stroke="#000" stroke-linecap="round" stroke-linejoin="round" stroke-miterlimit="10" stroke-width="2.051"/>
            </g>
            <g id="g6555" transform="translate(35.337 -14.053)">
              <path id="path6557" d="M0,0A3.231,3.231,0,0,0-4.572,0" fill="none" stroke="#000" stroke-linecap="round" stroke-linejoin="round" stroke-miterlimit="10" stroke-width="2.051"/>
            </g>
            <g id="g6559" transform="translate(22.452 -14.053)">
              <path id="path6561" d="M0,0A3.231,3.231,0,0,0-4.572,0" fill="none" stroke="#000" stroke-linecap="round" stroke-linejoin="round" stroke-miterlimit="10" stroke-width="2.051"/>
            </g>
            <g id="g6563" transform="translate(44.004 -22.851)">
              <path id="path6565" d="M0,0A3.231,3.231,0,0,0-4.572,0" fill="none" stroke="#000" stroke-linecap="round" stroke-linejoin="round" stroke-miterlimit="10" stroke-width="2.051"/>
            </g>
            <g id="g6567" transform="translate(29.487 -22.851)">
              <path id="path6569" d="M0,0A3.231,3.231,0,0,0-4.572,0" fill="none" stroke="#000" stroke-linecap="round" stroke-linejoin="round" stroke-miterlimit="10" stroke-width="2.051"/>
            </g>
          </g>
        </g>
      </g>
    </g>
  </g>
</svg>
