<svg xmlns="http://www.w3.org/2000/svg" xmlns:xlink="http://www.w3.org/1999/xlink" width="97.92" height="107" viewBox="0 0 97.92 107">
  <defs>
    <clipPath id="clip-path">
      <rect id="Rectángulo_403805" data-name="Rectángulo 403805" width="70" height="70" transform="translate(345.19 873)" fill="#fff" stroke="#707070" stroke-width="1"/>
    </clipPath>
  </defs>
  <g id="Grupo_1103323" data-name="Grupo 1103323" transform="translate(-331.19 -859.502)">
    <path id="Trazado_876162" data-name="Trazado 876162" d="M-17834.732-9565.178v97.92h81.432l25.568-50.035-25.568-47.885Z" transform="translate(-9136.067 18694.234) rotate(90)" fill="#ffa06f"/>
    <g id="Enmascarar_grupo_1098702" data-name="Enmascarar grupo 1098702" clip-path="url(#clip-path)">
      <g id="coliseo" transform="translate(345.19 873)">
        <path id="Trazado_878791" data-name="Trazado 878791" d="M28.787,22.85l11.6,5.523,14.359,1.242L60.4,36.381h8.56V68.964H28.786Zm0,0" fill="#fc9842"/>
        <path id="Trazado_878792" data-name="Trazado 878792" d="M66.756,36.381h2.209V68.964H66.756Zm0,0" fill="#fb8723"/>
        <path id="Trazado_878793" data-name="Trazado 878793" d="M59.852,48.806H57.18a2.761,2.761,0,0,1-2.575-1.762l-2.639-6.8L48.8,38.412a2.76,2.76,0,0,1-1.378-2.389v-2.4a2.761,2.761,0,0,0-2.761-2.762H41.349l-5.471-2.91-1.489-2.43-5.6-2.668V68.964H62.624l-1.1-11a.546.546,0,0,1,.543-.6h0a.545.545,0,0,0,.545-.545V51.568a2.762,2.762,0,0,0-2.762-2.762Zm0,0" fill="#fb8723"/>
        <path id="Trazado_878794" data-name="Trazado 878794" d="M1.036,15.118H31.41V19.26H1.036Zm0,0" fill="#feba80"/>
        <path id="Trazado_878795" data-name="Trazado 878795" d="M29.615,15.118v1.519a.828.828,0,0,1-.828.828H1.036V19.26H31.41V15.118Zm0,0" fill="#fda961"/>
        <path id="Trazado_878796" data-name="Trazado 878796" d="M1.036,33.067H45.217v4.142H1.036Zm0,0" fill="#feba80"/>
        <path id="Trazado_878797" data-name="Trazado 878797" d="M43.422,33.067v1.518a.828.828,0,0,1-.828.828H1.036v1.795H45.217V33.067H43.422Zm0,0" fill="#fda961"/>
        <path id="Trazado_878798" data-name="Trazado 878798" d="M1.036,51.016H60.4v4.142H1.036Zm0,0" fill="#feba80"/>
        <path id="Trazado_878799" data-name="Trazado 878799" d="M58.61,51.016v1.519a.829.829,0,0,1-.828.828H1.036v1.794H60.4V51.016Zm0,0" fill="#fda961"/>
        <path id="Trazado_878800" data-name="Trazado 878800" d="M40.8,33.067l-6.489-3.452-2.623-4.28L30.03,19.26H2.416V33.067Zm0,0" fill="#f7e5c1"/>
        <path id="Trazado_878801" data-name="Trazado 878801" d="M34.309,29.615l-2.623-4.28L30.029,19.26H27.268l1.657,6.075,2.059,3.432A1.381,1.381,0,0,1,29.8,30.858H2.416v2.209H40.8Zm0,0" fill="#f3d69e"/>
        <path id="Trazado_878802" data-name="Trazado 878802" d="M12.357,26.716a2.761,2.761,0,0,0-5.523,0v6.352h5.523Zm0,0" fill="#fda961"/>
        <path id="Trazado_878803" data-name="Trazado 878803" d="M22.988,26.716a2.761,2.761,0,0,0-5.523,0v6.352h5.523Zm0,0" fill="#fda961"/>
        <path id="Trazado_878804" data-name="Trazado 878804" d="M53.777,51.016l-3.589-9.25-7.87-4.557H2.416V51.016Zm0,0" fill="#f7e5c1"/>
        <path id="Trazado_878805" data-name="Trazado 878805" d="M50.188,41.765l-2.7-1.561,2.569,7.023a1.381,1.381,0,0,1-1.3,1.855H2.416v1.933H53.777Zm0,0" fill="#f3d69e"/>
        <path id="Trazado_878806" data-name="Trazado 878806" d="M12.357,44.665a2.761,2.761,0,1,0-5.523,0v6.351h5.523Zm0,0" fill="#fda961"/>
        <path id="Trazado_878807" data-name="Trazado 878807" d="M22.988,44.665a2.761,2.761,0,1,0-5.523,0v6.351h5.523Zm0,0" fill="#fda961"/>
        <path id="Trazado_878808" data-name="Trazado 878808" d="M33.619,44.665a2.761,2.761,0,1,0-5.523,0v6.351h5.523Zm0,0" fill="#fda961"/>
        <path id="Trazado_878809" data-name="Trazado 878809" d="M44.25,44.665a2.761,2.761,0,1,0-5.523,0v6.351H44.25Zm0,0" fill="#fda961"/>
        <path id="Trazado_878810" data-name="Trazado 878810" d="M60.4,68.964,59.023,55.158H2.416V68.964Zm0,0" fill="#f7e5c1"/>
        <path id="Trazado_878811" data-name="Trazado 878811" d="M59.024,55.158H56.815l1.008,10.079a1.381,1.381,0,0,1-1.374,1.518H2.416v2.209H60.4Zm0,0" fill="#f3d69e"/>
        <g id="Grupo_1103361" data-name="Grupo 1103361">
          <path id="Trazado_878812" data-name="Trazado 878812" d="M12.357,62.613a2.761,2.761,0,1,0-5.523,0v6.351h5.523Zm0,0" fill="#fda961"/>
          <path id="Trazado_878813" data-name="Trazado 878813" d="M22.988,62.613a2.761,2.761,0,1,0-5.523,0v6.351h5.523Zm0,0" fill="#fda961"/>
          <path id="Trazado_878814" data-name="Trazado 878814" d="M33.619,62.613a2.761,2.761,0,1,0-5.523,0v6.351h5.523Zm0,0" fill="#fda961"/>
          <path id="Trazado_878815" data-name="Trazado 878815" d="M44.25,62.613a2.761,2.761,0,1,0-5.523,0v6.351H44.25Zm0,0" fill="#fda961"/>
          <path id="Trazado_878816" data-name="Trazado 878816" d="M54.882,62.613a2.761,2.761,0,1,0-5.523,0v6.351h5.523Zm0,0" fill="#fda961"/>
        </g>
        <path id="Trazado_878817" data-name="Trazado 878817" d="M56.746,11.943a5.454,5.454,0,1,1-5.454-5.453,5.454,5.454,0,0,1,5.454,5.453Zm0,0" fill="#fff692"/>
        <path id="Trazado_878818" data-name="Trazado 878818" d="M54.208,7.335a5.453,5.453,0,0,1-7.524,7.524,5.453,5.453,0,1,0,7.524-7.524Zm0,0" fill="#fff263"/>
        <path id="Trazado_878819" data-name="Trazado 878819" d="M68.964,50.188A1.035,1.035,0,0,0,70,49.152V36.381a1.035,1.035,0,0,0-1.036-1.036H60.888l-5.35-6.394a1.034,1.034,0,0,0-.7-.367L40.661,27.358l-8.446-4.021-.829-3.04h.025a1.035,1.035,0,0,0,1.036-1.035V15.118a1.035,1.035,0,0,0-1.036-1.035H1.036A1.035,1.035,0,0,0,0,15.118V19.26A1.035,1.035,0,0,0,1.036,20.3h.345v2.641a1.036,1.036,0,0,0,2.071,0V20.3H29.239l1.449,5.312a1.029,1.029,0,0,0,.116.268l2.623,4.28a1.032,1.032,0,0,0,.4.373l2.824,1.5H24.024V26.716a3.8,3.8,0,1,0-7.593,0v5.316H13.393V26.716a3.8,3.8,0,0,0-7.594,0v5.316H3.452V27.775a1.036,1.036,0,0,0-2.071,0v4.257H1.036A1.035,1.035,0,0,0,0,33.067v4.142a1.035,1.035,0,0,0,1.036,1.036h.345V49.98H1.036A1.035,1.035,0,0,0,0,51.016v4.142a1.036,1.036,0,0,0,1.036,1.036h.345V68.964A1.035,1.035,0,0,0,2.416,70H68.965A1.035,1.035,0,0,0,70,68.964V53.988a1.036,1.036,0,0,0-2.071,0v3.447H60.292l-.124-1.242H60.4a1.036,1.036,0,0,0,1.036-1.036V51.016A1.035,1.035,0,0,0,60.4,49.98H54.486l-3.268-8.422H67.929v3.188l-1.122-.374a1.036,1.036,0,0,0-1.077.268l-.835.876-1.1-.845a1.036,1.036,0,0,0-1.263,1.642l.924.711-.491.515a1.036,1.036,0,0,0,1.5,1.429l2.308-2.424,1.153.385v2.222a1.035,1.035,0,0,0,1.036,1.036ZM2.071,18.225V16.154h28.3v2.071ZM18.5,26.716a1.726,1.726,0,0,1,3.452,0v5.316H18.5Zm-10.631,0a1.726,1.726,0,0,1,3.452,0v5.316H7.87ZM44.182,34.1v2.071H2.071V34.1ZM7.87,67.929V62.613a1.726,1.726,0,1,1,3.452,0v5.315Zm10.631,0V62.613a1.726,1.726,0,1,1,3.452,0v5.315Zm10.631,0V62.613a1.726,1.726,0,1,1,3.452,0v5.315Zm10.631,0V62.613a1.726,1.726,0,1,1,3.452,0v5.315Zm10.631,0V62.613a1.726,1.726,0,1,1,3.452,0v5.315Zm17.534-8.422v8.422H61.341L60.5,59.507Zm-8.56-5.384H42.947a1.036,1.036,0,1,0,0,2.071H58.086L59.26,67.929H55.917V62.613a3.8,3.8,0,1,0-7.594,0v5.315H45.286V62.613a3.8,3.8,0,1,0-7.594,0v5.315H34.655V62.613a3.8,3.8,0,1,0-7.594,0v5.315H24.024V62.613a3.8,3.8,0,1,0-7.593,0v5.315H13.393V62.613a3.8,3.8,0,1,0-7.594,0v5.315H3.452V56.194H38.107a1.036,1.036,0,1,0,0-2.071H2.071V52.051h57.3ZM11.322,49.98H7.87V44.665a1.726,1.726,0,1,1,3.452,0Zm10.631,0H18.5V44.665a1.726,1.726,0,1,1,3.452,0Zm10.631,0H29.132V44.665a1.726,1.726,0,1,1,3.452,0V49.98Zm10.631,0H39.763V44.665a1.726,1.726,0,1,1,3.452,0Zm2.071,0V44.665a3.8,3.8,0,1,0-7.594,0V49.98H34.655V44.665a3.8,3.8,0,1,0-7.594,0V49.98H24.024V44.665a3.8,3.8,0,1,0-7.594,0V49.98H13.393V44.665a3.8,3.8,0,1,0-7.594,0V49.98H3.452V38.244H42.039l7.314,4.235,2.911,7.5Zm3.033-10.493-2.492-1.442a1.034,1.034,0,0,0,.426-.836V33.067a1.035,1.035,0,0,0-1.036-1.036h-4.16l-6.012-3.2-1.606-2.621,6.5,3.095a1.033,1.033,0,0,0,.356.1L53.1,30.513l-.581,1.11-2.311.578a1.035,1.035,0,1,0,.5,2.009l1.619-.4.139,1.178a1.035,1.035,0,0,0,.375.683l2.209,1.795a1.036,1.036,0,0,0,1.306-1.608l-1.883-1.53-.19-1.612.652-1.245,4.668,5.578a1.034,1.034,0,0,0,.794.371h7.525v2.071Zm0,0"/>
        <path id="Trazado_878820" data-name="Trazado 878820" d="M51.292,18.432A6.489,6.489,0,1,0,44.8,11.943,6.5,6.5,0,0,0,51.292,18.432Zm0-10.908a4.418,4.418,0,1,1-4.418,4.418A4.423,4.423,0,0,1,51.292,7.524Zm0,0"/>
        <path id="Trazado_878821" data-name="Trazado 878821" d="M51.292,4.253a1.035,1.035,0,0,0,1.036-1.036V1.036a1.036,1.036,0,0,0-2.071,0V3.217A1.035,1.035,0,0,0,51.292,4.253Zm0,0"/>
        <path id="Trazado_878822" data-name="Trazado 878822" d="M44.39,6.5A1.035,1.035,0,0,0,45.854,5.04L44.312,3.5a1.036,1.036,0,0,0-1.465,1.464Zm0,0"/>
        <path id="Trazado_878823" data-name="Trazado 878823" d="M40.385,12.978h2.181a1.036,1.036,0,1,0,0-2.071H40.385a1.036,1.036,0,1,0,0,2.071Zm0,0"/>
        <path id="Trazado_878824" data-name="Trazado 878824" d="M44.39,17.381l-1.543,1.542a1.036,1.036,0,0,0,1.465,1.464l1.542-1.542a1.035,1.035,0,1,0-1.464-1.464Zm0,0"/>
        <path id="Trazado_878825" data-name="Trazado 878825" d="M50.256,20.669V22.85a1.036,1.036,0,1,0,2.071,0V20.669a1.036,1.036,0,1,0-2.071,0Zm0,0"/>
        <path id="Trazado_878826" data-name="Trazado 878826" d="M58.194,17.381a1.035,1.035,0,0,0-1.464,1.464l1.542,1.542a1.036,1.036,0,0,0,1.465-1.464Zm0,0"/>
        <path id="Trazado_878827" data-name="Trazado 878827" d="M58.982,11.943a1.035,1.035,0,0,0,1.036,1.036H62.2a1.036,1.036,0,1,0,0-2.071H60.018A1.036,1.036,0,0,0,58.982,11.943Zm0,0"/>
        <path id="Trazado_878828" data-name="Trazado 878828" d="M57.462,6.808a1.031,1.031,0,0,0,.732-.3l1.543-1.542A1.036,1.036,0,0,0,58.272,3.5L56.73,5.04a1.036,1.036,0,0,0,.732,1.768Zm0,0"/>
      </g>
    </g>
  </g>
</svg>
