<svg xmlns="http://www.w3.org/2000/svg" xmlns:xlink="http://www.w3.org/1999/xlink" width="105.979" height="107" viewBox="0 0 105.979 107">
  <defs>
    <clipPath id="clip-path">
      <rect id="Rectángulo_403652" data-name="Rectángulo 403652" width="75" height="75" transform="translate(804.051 2119.236)" fill="#fff"/>
    </clipPath>
    <clipPath id="clip-path-2">
      <path id="path3660" d="M0-75H75V0H0Z"/>
    </clipPath>
  </defs>
  <g id="Grupo_1102993" data-name="Grupo 1102993" transform="translate(-789.051 -2112.236)">
    <path id="Trazado_876162" data-name="Trazado 876162" d="M0,0V105.979H81.432L107,51.826,81.432,0Z" transform="translate(895.029 2112.236) rotate(90)" fill="#afd1e6"/>
    <g id="Enmascarar_grupo_1098718" data-name="Enmascarar grupo 1098718" clip-path="url(#clip-path)">
      <g id="g3654" transform="translate(804.051 2194.236)">
        <g id="g3656">
          <g id="g3658" clip-path="url(#clip-path-2)">
            <g id="g3664" transform="translate(71.549 -2.662)">
              <path id="path3666" d="M0,0H-68.1a2.369,2.369,0,0,1-2.369-2.369v-52.42H2.369v52.42A2.369,2.369,0,0,1,0,0" fill="#fff3de"/>
            </g>
            <g id="g3668" transform="translate(73.918 -57.451)">
              <path id="path3670" d="M0,0V52.42a2.369,2.369,0,0,1-2.369,2.369H-5.3A2.369,2.369,0,0,0-2.934,52.42V0Z" fill="#ffe5c2"/>
            </g>
            <g id="g3672" transform="translate(73.918 -57.45)">
              <path id="path3674" d="M0,0H-72.836V-10.03A2.369,2.369,0,0,1-70.468-12.4h68.1A2.369,2.369,0,0,1,0-10.03Z" fill="#f79595"/>
            </g>
            <g id="g3676" transform="translate(73.918 -67.48)">
              <path id="path3678" d="M0,0V10.029H-2.934V0A2.369,2.369,0,0,0-5.3-2.369h2.934A2.369,2.369,0,0,1,0,0" fill="#f47c7c"/>
            </g>
            <g id="g3680" transform="translate(1.082 -66.435)">
              <path id="path3682" d="M0,0V-1.045A2.369,2.369,0,0,1,2.369-3.414h68.1a2.369,2.369,0,0,1,2.369,2.369V8.985H0V5.03" fill="none" stroke="#000" stroke-linecap="round" stroke-linejoin="round" stroke-miterlimit="10" stroke-width="2.197"/>
            </g>
            <g id="g3684" transform="translate(11.311 -67.359)">
              <path id="path3686" d="M0,0V-4.979" fill="none" stroke="#000" stroke-linecap="round" stroke-linejoin="round" stroke-miterlimit="10" stroke-width="2.197"/>
            </g>
            <g id="g3688" transform="translate(20.041 -67.359)">
              <path id="path3690" d="M0,0V-4.979" fill="none" stroke="#000" stroke-linecap="round" stroke-linejoin="round" stroke-miterlimit="10" stroke-width="2.197"/>
            </g>
            <g id="g3692" transform="translate(28.771 -67.359)">
              <path id="path3694" d="M0,0V-4.979" fill="none" stroke="#000" stroke-linecap="round" stroke-linejoin="round" stroke-miterlimit="10" stroke-width="2.197"/>
            </g>
            <g id="g3696" transform="translate(37.5 -67.359)">
              <path id="path3698" d="M0,0V-4.979" fill="none" stroke="#000" stroke-linecap="round" stroke-linejoin="round" stroke-miterlimit="10" stroke-width="2.197"/>
            </g>
            <g id="g3700" transform="translate(46.23 -67.359)">
              <path id="path3702" d="M0,0V-4.979" fill="none" stroke="#000" stroke-linecap="round" stroke-linejoin="round" stroke-miterlimit="10" stroke-width="2.197"/>
            </g>
            <g id="g3704" transform="translate(54.96 -67.359)">
              <path id="path3706" d="M0,0V-4.979" fill="none" stroke="#000" stroke-linecap="round" stroke-linejoin="round" stroke-miterlimit="10" stroke-width="2.197"/>
            </g>
            <g id="g3708" transform="translate(63.69 -67.359)">
              <path id="path3710" d="M0,0V-4.979" fill="none" stroke="#000" stroke-linecap="round" stroke-linejoin="round" stroke-miterlimit="10" stroke-width="2.197"/>
            </g>
            <g id="g3712" transform="translate(71.549 -2.662)">
              <path id="path3714" d="M0,0H-68.1a2.369,2.369,0,0,1-2.369-2.369v-52.42H2.369v52.42A2.369,2.369,0,0,1,0,0Z" fill="none" stroke="#000" stroke-linecap="round" stroke-linejoin="round" stroke-miterlimit="10" stroke-width="2.197"/>
            </g>
            <g id="g3716" transform="translate(16.039 -57.45)">
              <path id="path3718" d="M0,0V54.789" fill="none" stroke="#000" stroke-linecap="round" stroke-linejoin="round" stroke-miterlimit="10" stroke-width="2.197"/>
            </g>
            <g id="g3720" transform="translate(30.346 -57.45)">
              <path id="path3722" d="M0,0V54.789" fill="none" stroke="#000" stroke-linecap="round" stroke-linejoin="round" stroke-miterlimit="10" stroke-width="2.197"/>
            </g>
            <g id="g3724" transform="translate(44.654 -57.45)">
              <path id="path3726" d="M0,0V54.789" fill="none" stroke="#000" stroke-linecap="round" stroke-linejoin="round" stroke-miterlimit="10" stroke-width="2.197"/>
            </g>
            <g id="g3728" transform="translate(58.961 -57.45)">
              <path id="path3730" d="M0,0V54.789" fill="none" stroke="#000" stroke-linecap="round" stroke-linejoin="round" stroke-miterlimit="10" stroke-width="2.197"/>
            </g>
            <g id="g3732" transform="translate(7.166 -50.746)">
              <path id="path3734" d="M0,0H3.44" fill="none" stroke="#000" stroke-linecap="round" stroke-linejoin="round" stroke-miterlimit="10" stroke-width="2.197"/>
            </g>
            <g id="g3736" transform="translate(21.473 -50.746)">
              <path id="path3738" d="M0,0H3.44" fill="none" stroke="#000" stroke-linecap="round" stroke-linejoin="round" stroke-miterlimit="10" stroke-width="2.197"/>
            </g>
            <g id="g3740" transform="translate(35.78 -50.746)">
              <path id="path3742" d="M0,0H3.44" fill="none" stroke="#000" stroke-linecap="round" stroke-linejoin="round" stroke-miterlimit="10" stroke-width="2.197"/>
            </g>
            <g id="g3744" transform="translate(50.087 -50.746)">
              <path id="path3746" d="M0,0H3.44" fill="none" stroke="#000" stroke-linecap="round" stroke-linejoin="round" stroke-miterlimit="10" stroke-width="2.197"/>
            </g>
            <g id="g3748" transform="translate(64.394 -50.746)">
              <path id="path3750" d="M0,0H3.44" fill="none" stroke="#000" stroke-linecap="round" stroke-linejoin="round" stroke-miterlimit="10" stroke-width="2.197"/>
            </g>
            <g id="g3752" transform="translate(30.346 -40.754)">
              <path id="path3754" d="M0,0H-22.837a.344.344,0,0,1-.344-.344v-4.5a.344.344,0,0,1,.344-.344H0Z" fill="#c4e2ff"/>
            </g>
            <path id="path3756" d="M30.346-40.754H27.238v-5.191h3.108Z" fill="#b3dafe"/>
            <g id="g3758" transform="translate(30.346 -40.754)">
              <path id="path3760" d="M0,0H-22.837a.344.344,0,0,1-.344-.344v-4.5a.344.344,0,0,1,.344-.344H0Z" fill="none" stroke="#000" stroke-linecap="round" stroke-linejoin="round" stroke-miterlimit="10" stroke-width="2.197"/>
            </g>
            <g id="g3762" transform="translate(67.49 -35.563)">
              <path id="path3764" d="M0,0H-51.451V-5.191H0a.344.344,0,0,1,.344.344v4.5A.344.344,0,0,1,0,0" fill="#c1e9af"/>
            </g>
            <g id="g3766" transform="translate(67.835 -40.41)">
              <path id="path3768" d="M0,0V4.5a.344.344,0,0,1-.345.343H-3.453A.344.344,0,0,0-3.11,4.5V0a.344.344,0,0,0-.343-.343H-.345A.344.344,0,0,1,0,0" fill="#ade194"/>
            </g>
            <g id="g3770" transform="translate(67.49 -35.563)">
              <path id="path3772" d="M0,0H-51.451V-5.191H0a.344.344,0,0,1,.344.344v4.5A.344.344,0,0,1,0,0Z" fill="none" stroke="#000" stroke-linecap="round" stroke-linejoin="round" stroke-miterlimit="10" stroke-width="2.197"/>
            </g>
            <path id="path3774" d="M44.654-25.06H16.039V-30.25H44.654Z" fill="#fee97d"/>
            <path id="path3776" d="M44.654-25.06h-3.11v-5.191h3.11Z" fill="#fed402"/>
            <path id="path3778" d="M44.654-25.06H16.039V-30.25H44.654Z" fill="none" stroke="#000" stroke-linecap="round" stroke-linejoin="round" stroke-miterlimit="10" stroke-width="2.197"/>
            <path id="path3780" d="M44.654-19.869H30.346V-25.06H44.654Z" fill="#f79595"/>
            <path id="path3782" d="M44.654-19.87h-3.11v-5.19h3.11Z" fill="#f47c7c"/>
            <path id="path3784" d="M44.654-19.869H30.346V-25.06H44.654Z" fill="none" stroke="#000" stroke-linecap="round" stroke-linejoin="round" stroke-miterlimit="10" stroke-width="2.197"/>
            <path id="path3786" d="M58.961-9.366H30.346v-5.191H58.961Z" fill="#c1e9af"/>
            <path id="path3788" d="M58.96-9.366H55.852v-5.191H58.96Z" fill="#ade194"/>
            <g id="g3790" transform="translate(48.788 -9.366)">
              <path id="path3792" d="M0,0H-18.442V-5.191H10.172V0H5.118" fill="none" stroke="#000" stroke-linecap="round" stroke-linejoin="round" stroke-miterlimit="10" stroke-width="2.197"/>
            </g>
          </g>
        </g>
      </g>
    </g>
  </g>
</svg>
