<svg xmlns="http://www.w3.org/2000/svg" xmlns:xlink="http://www.w3.org/1999/xlink" width="97.92" height="107" viewBox="0 0 97.92 107">
  <defs>
    <clipPath id="clip-path">
      <rect id="Rectángulo_403805" data-name="Rectángulo 403805" width="70" height="70" transform="translate(345.19 873)" fill="#fff" stroke="#707070" stroke-width="1"/>
    </clipPath>
  </defs>
  <g id="Grupo_1103327" data-name="Grupo 1103327" transform="translate(-331.19 -859.502)">
    <path id="Trazado_876162" data-name="Trazado 876162" d="M-17834.732-9565.178v97.92h81.432l25.568-50.035-25.568-47.885Z" transform="translate(-9136.067 18694.234) rotate(90)" fill="#ffa06f"/>
    <g id="Enmascarar_grupo_1098699" data-name="Enmascarar grupo 1098699" clip-path="url(#clip-path)">
      <g id="galeria" transform="translate(345.191 873)">
        <g id="Grupo_1103356" data-name="Grupo 1103356">
          <path id="Trazado_878747" data-name="Trazado 878747" d="M9.467,48.094H4.033a3.076,3.076,0,1,1,0-6.152H9.467a3.076,3.076,0,0,1,0,6.152Z" fill="#ffcb00"/>
          <path id="Trazado_878748" data-name="Trazado 878748" d="M4.016,48.094H9.485V69.038H4.016Z" fill="#c86e59"/>
          <path id="Trazado_878749" data-name="Trazado 878749" d="M65.965,48.094H60.531a3.076,3.076,0,1,1,0-6.152h5.434a3.076,3.076,0,0,1,0,6.152Z" fill="#ffcb00"/>
          <path id="Trazado_878750" data-name="Trazado 878750" d="M60.514,48.094h5.469V69.038H60.514Z" fill="#c86e59"/>
          <path id="Trazado_878751" data-name="Trazado 878751" d="M49.231,49.629H20.768a2.108,2.108,0,1,1,0-4.215H49.231a2.108,2.108,0,1,1,0,4.215Z" fill="#ffcb00"/>
          <path id="Trazado_878752" data-name="Trazado 878752" d="M16.734,63.98h36.53a2.108,2.108,0,0,1,2.108,2.108v2.953H14.627V66.088a2.108,2.108,0,0,1,2.107-2.108Z" fill="#ffcb00"/>
          <path id="Trazado_878753" data-name="Trazado 878753" d="M37.611,28.074l1.016-.558a3.373,3.373,0,0,0,1.75-2.957v-3.8a4.216,4.216,0,0,0-4.217-4.217H33.839a4.216,4.216,0,0,0-4.216,4.217v3.8a3.373,3.373,0,0,0,1.75,2.957l1.016.558-7.024,3.515a3.8,3.8,0,0,0-1.853,2.055l-1.164,3.086H24.1A2.953,2.953,0,0,1,27,39.119l1.223,6.293H41.772L43,39.119a2.953,2.953,0,0,1,2.9-2.389h1.758l-1.164-3.086a3.8,3.8,0,0,0-1.853-2.055Z" fill="#f6efea"/>
          <path id="Trazado_878754" data-name="Trazado 878754" d="M60.514,51.421A87.655,87.655,0,0,1,35,55.27,87.979,87.979,0,0,1,9.485,51.42V56A92.126,92.126,0,0,0,35,59.645,92.129,92.129,0,0,0,60.514,56Z" fill="#80e980"/>
          <g id="Grupo_1103355" data-name="Grupo 1103355">
            <path id="Trazado_878755" data-name="Trazado 878755" d="M35,59.645a91.405,91.405,0,0,1-12.445-.868v5.2h24.89v-5.2A91.4,91.4,0,0,1,35,59.645Z" fill="#ffae00"/>
            <path id="Trazado_878756" data-name="Trazado 878756" d="M35,55.27a86.882,86.882,0,0,0,12.445-.918V49.629H22.554v4.721A86.72,86.72,0,0,0,35,55.27Z" fill="#ffae00"/>
          </g>
          <path id="Trazado_878757" data-name="Trazado 878757" d="M51.944,5.272,47.627.955v26.87l4.316-4.316Z" fill="#ffcb00"/>
          <path id="Trazado_878758" data-name="Trazado 878758" d="M69.041.955H47.627l4.316,4.316h17.1Z" fill="#c86e59"/>
          <path id="Trazado_878759" data-name="Trazado 878759" d="M51.944,23.509l-4.316,4.316H69.041V23.509Z" fill="#c86e59"/>
          <path id="Trazado_878760" data-name="Trazado 878760" d="M64.207,13.576l4.835,3.7V5.272h-17.1V19.639l7.843-6.055a3.625,3.625,0,0,1,4.42-.008Z" fill="#f6efea"/>
          <path id="Trazado_878761" data-name="Trazado 878761" d="M69.041,17.281l-4.835-3.706a3.625,3.625,0,0,0-4.42.008l-7.843,6.056v3.87h17.1Z" fill="#80e980"/>
          <path id="Trazado_878762" data-name="Trazado 878762" d="M18.055,5.272,22.371.955v26.87l-4.316-4.316Z" fill="#ffcb00"/>
          <path id="Trazado_878763" data-name="Trazado 878763" d="M.957.955H22.371L18.055,5.272H.957Z" fill="#c86e59"/>
          <path id="Trazado_878764" data-name="Trazado 878764" d="M18.055,23.509l4.316,4.316H.957V23.509Z" fill="#c86e59"/>
          <path id="Trazado_878765" data-name="Trazado 878765" d="M5.792,13.576l-4.835,3.7V5.272h17.1V19.639l-7.843-6.055A3.625,3.625,0,0,0,5.792,13.576Z" fill="#f6efea"/>
          <path id="Trazado_878766" data-name="Trazado 878766" d="M.957,17.281l4.835-3.706a3.625,3.625,0,0,1,4.42.008l7.843,6.056v3.87H.957Z" fill="#80e980"/>
        </g>
        <g id="Grupo_1103357" data-name="Grupo 1103357">
          <path id="Trazado_878767" data-name="Trazado 878767" d="M65.965,40.986H60.531a4.031,4.031,0,0,0-.974,7.943v1.79A82.721,82.721,0,0,1,48.4,53.247V50.587h.83a3.065,3.065,0,0,0,0-6.13h-6.3l1-5.154a2,2,0,0,1,1.958-1.614h1.757a.957.957,0,0,0,.9-1.294l-1.164-3.087a4.744,4.744,0,0,0-2.321-2.574L38.04,27.22a.957.957,0,1,0-.857,1.712l7.023,3.513a2.833,2.833,0,0,1,1.386,1.537l.673,1.792h-.373a3.917,3.917,0,0,0-3.835,3.161l-1.073,5.52H29.015l-1.07-5.52a3.916,3.916,0,0,0-3.837-3.162h-.374l.675-1.792A2.831,2.831,0,0,1,25.8,32.445l7.023-3.514a.956.956,0,0,0,.033-1.7l-1.017-.559a2.415,2.415,0,0,1-1.253-2.117v-3.8a3.264,3.264,0,0,1,3.257-3.26H36.16a3.263,3.263,0,0,1,3.259,3.26v2.183a.957.957,0,0,0,1.914,0V20.759a5.179,5.179,0,0,0-5.173-5.174H33.839a5.18,5.18,0,0,0-5.174,5.174v3.8a4.331,4.331,0,0,0,1.713,3.451l-5.441,2.722a4.742,4.742,0,0,0-2.32,2.57l-1.164,3.087a.958.958,0,0,0,.9,1.294h1.758A2,2,0,0,1,26.064,39.3l1,5.161h-6.3a3.065,3.065,0,1,0,0,6.13h.83v2.656a83.366,83.366,0,0,1-11.156-2.527V48.931a4.031,4.031,0,0,0-.975-7.943H4.033a4.031,4.031,0,0,0-.974,7.94V69.04A.956.956,0,0,0,4.016,70H9.485a.957.957,0,0,0,.957-.957V57.273A91.225,91.225,0,0,0,21.6,59.611v3.414H16.734a3.069,3.069,0,0,0-3.062,3.066v2.953a.957.957,0,0,0,.957.957H55.373a.956.956,0,0,0,.957-.957V66.09a3.07,3.07,0,0,0-3.066-3.066H48.4V59.611a91.223,91.223,0,0,0,11.156-2.337V69.04a.956.956,0,0,0,.957.957h5.469a.956.956,0,0,0,.957-.957V48.928a4.031,4.031,0,0,0-.974-7.943ZM19.616,47.522a1.152,1.152,0,0,1,1.148-1.148H49.231a1.151,1.151,0,0,1,0,2.3H20.768A1.153,1.153,0,0,1,19.616,47.522Zm3.895,3.066H46.487v2.94A85.844,85.844,0,0,1,35,54.314a85.647,85.647,0,0,1-11.488-.79Zm-21.6-5.569A2.121,2.121,0,0,1,4.033,42.9H9.467a2.119,2.119,0,0,1,0,4.238H4.033a2.121,2.121,0,0,1-2.119-2.119ZM8.528,68.084H4.973V49.054H8.528Zm37.959-5.058H36.742a.957.957,0,1,0,0,1.914H53.264a1.152,1.152,0,0,1,1.152,1.152v1.993H15.586V66.09a1.152,1.152,0,0,1,1.151-1.152h9.034a.957.957,0,0,0,0-1.914h-2.26V59.87A92.046,92.046,0,0,0,35,60.6a92.045,92.045,0,0,0,11.488-.733ZM35,58.689a91.3,91.3,0,0,1-24.557-3.4v-2.57A89.174,89.174,0,0,0,35,56.228a88.906,88.906,0,0,0,24.557-3.511v2.57A91.306,91.306,0,0,1,35,58.689Zm30.026,9.4H61.471V49.054h3.555Zm.94-20.945H60.531a2.119,2.119,0,0,1,0-4.238h5.435a2.119,2.119,0,1,1,0,4.238Z"/>
          <path id="Trazado_878768" data-name="Trazado 878768" d="M32.162,63.024H30.351a.957.957,0,0,0,0,1.914h1.811a.957.957,0,0,0,0-1.914Z"/>
          <path id="Trazado_878769" data-name="Trazado 878769" d="M69.041,0H47.627a.984.984,0,0,0-.957.957v26.87a.984.984,0,0,0,.957.957H69.041A.956.956,0,0,0,70,27.827V.957A.956.956,0,0,0,69.041,0ZM48.584,3.268l2.4,2.4V23.115l-2.4,2.4Zm19.5,2.963v9.113l-3.3-2.526a4.584,4.584,0,0,0-5.587.01L52.9,17.7V6.231ZM52.9,20.11l7.473-5.767a2.669,2.669,0,0,1,3.253-.006l4.46,3.418v4.8H52.9Zm15.184-18.2v2.4H52.34l-2.4-2.4Zm0,24.956H49.937l2.4-2.4H68.084Z"/>
          <path id="Trazado_878770" data-name="Trazado 878770" d="M.957,28.784H22.371a.984.984,0,0,0,.957-.957V.957A.984.984,0,0,0,22.371,0H.957A.957.957,0,0,0,0,.957v26.87a.957.957,0,0,0,.957.957Zm.957-11.029,4.46-3.418a2.67,2.67,0,0,1,3.253.006L17.1,20.11v2.443H1.914Zm17.449,5.71-.352-.352V5.669l.352-.352,2.051-2.051v22.25ZM17.1,17.693l-6.3-4.867a4.626,4.626,0,0,0-5.588-.007l-3.3,2.525V6.231H17.1ZM1.914,26.87v-2.4H17.658l2.4,2.4Zm0-24.956H20.061l-2.4,2.4H1.914Z"/>
        </g>
      </g>
    </g>
  </g>
</svg>
