<svg xmlns="http://www.w3.org/2000/svg" xmlns:xlink="http://www.w3.org/1999/xlink" width="190" height="163" viewBox="0 0 190 163">
  <defs>
    <clipPath id="clip-path">
      <rect id="Rectángulo_403951" data-name="Rectángulo 403951" width="131" height="131" transform="translate(1261.69 586.5)" fill="#fff" stroke="#707070" stroke-width="1"/>
    </clipPath>
  </defs>
  <g id="Grupo_1103840" data-name="Grupo 1103840" transform="translate(-1230.19 -570)">
    <g id="Grupo_1103517" data-name="Grupo 1103517">
      <rect id="Rectángulo_403950" data-name="Rectángulo 403950" width="105" height="163" rx="10" transform="translate(1315.19 570)" fill="#56e9cc"/>
      <g id="Enmascarar_grupo_1098716" data-name="Enmascarar grupo 1098716" transform="translate(-31.5 -0.5)" clip-path="url(#clip-path)">
        <g id="turista_1_" data-name="turista (1)" transform="translate(1261.162 585.971)">
          <path id="Trazado_879182" data-name="Trazado 879182" d="M131.094,65.674a65.539,65.539,0,0,1-35.068,57.918,1.816,1.816,0,0,1-2.42-.715A65.615,65.615,0,0,0,10.243,95.31a2.912,2.912,0,0,1-3.8-1.394A65.553,65.553,0,1,1,131.094,65.674Z" transform="translate(0)" fill="#356845"/>
          <path id="Trazado_879183" data-name="Trazado 879183" d="M120.219,29.452v71.974a65.852,65.852,0,0,1-6.714,8.564h-.711V20.133a65.824,65.824,0,0,1,7.425,9.319ZM89.494,109.991H99.48V9.422a65.287,65.287,0,0,0-9.986-4.969ZM5,90.881q.632,1.5,1.336,2.961a4.558,4.558,0,0,0,8.65-2.011V23.578A65.537,65.537,0,0,0,5,40Zm18.179,19.109h9.986V8.368a65.7,65.7,0,0,0-9.986,6.953Z" transform="translate(0.121 0.108)" fill="#489160"/>
          <path id="Trazado_879184" data-name="Trazado 879184" d="M17.042,108.887a65.668,65.668,0,0,1-10.8-15.978A62.558,62.558,0,0,1,10.11,77.117a1.277,1.277,0,0,1,1.626-.706c7.088,2.668,14.31,12.771,19.509,27.655,1.465,4.2-9.116,10.378-14.2,4.822Zm22-9.408a60.271,60.271,0,0,0,4.33-16.87,65.829,65.829,0,0,0-28.054-29.44,1.052,1.052,0,0,0-1.126.086l-.015.011a1.049,1.049,0,0,0-.4,1.042q.342,1.738.731,3.476C19.7,81,29.6,97.01,39.046,99.479Zm27.5-8.114a79.648,79.648,0,0,0,22.812-3.087,87.007,87.007,0,0,0,22.1-49,1.389,1.389,0,0,0-.667-1.337l-.021-.013a1.387,1.387,0,0,0-1.476.027q-1.958,1.283-3.892,2.623C79.56,58.488,64.875,78.569,66.549,91.365Z" transform="translate(0.151 0.912)" fill="#84b017"/>
          <path id="Trazado_879185" data-name="Trazado 879185" d="M58.93,93.878v1.13c0,19.9-23.728,30.284-38.311,16.74a65.94,65.94,0,0,1-6.931-7.52V93.878A17.923,17.923,0,0,1,31.611,75.955h9.4A17.923,17.923,0,0,1,58.93,93.878Z" transform="translate(0.331 1.836)" fill="#e09380"/>
          <path id="Trazado_879186" data-name="Trazado 879186" d="M95.441,93.878A29.429,29.429,0,0,1,63.67,123.226c-17.286-1.393-36.138-5.08-42.482-10.791V93.878A17.923,17.923,0,0,1,39.111,75.955H77.518A17.923,17.923,0,0,1,95.441,93.878Z" transform="translate(0.512 1.836)" fill="#faa68e"/>
          <path id="Trazado_879187" data-name="Trazado 879187" d="M79.9,76.461v45.948a65.733,65.733,0,0,1-51.208-9.137V76.461a1.28,1.28,0,0,1,1.28-1.28h6.4V71.341A3.841,3.841,0,0,1,40.21,67.5H68.375a3.841,3.841,0,0,1,3.841,3.841v3.841h6.4A1.28,1.28,0,0,1,79.9,76.461Z" transform="translate(0.693 1.631)" fill="#df9d28"/>
          <path id="Trazado_879188" data-name="Trazado 879188" d="M54.374,103.165h-1.28a1.28,1.28,0,0,1-1.28-1.28V76.28A1.28,1.28,0,0,1,53.094,75h1.28a1.28,1.28,0,0,1,1.28,1.28v25.6A1.28,1.28,0,0,1,54.374,103.165Zm19.78-10.242V87.8a1.28,1.28,0,0,0-1.28-1.28h-11.4A1.28,1.28,0,0,0,60.2,87.8v5.121a1.28,1.28,0,0,0,1.28,1.28h11.4A1.28,1.28,0,0,0,74.154,92.923Z" transform="translate(1.252 1.813)" fill="#edd578"/>
          <path id="Trazado_879189" data-name="Trazado 879189" d="M53.959,86.983A11.459,11.459,0,0,1,42.5,75.524V70.341A3.841,3.841,0,0,1,46.341,66.5H61.577a3.841,3.841,0,0,1,3.841,3.841v5.184A11.459,11.459,0,0,1,53.959,86.983Z" transform="translate(1.027 1.607)" fill="#fff36c"/>
          <path id="Trazado_879190" data-name="Trazado 879190" d="M26.34,53.818a6.4,6.4,0,0,1-6.4-6.4v-2.56a6.4,6.4,0,1,1,12.8,0v2.56A6.4,6.4,0,0,1,26.34,53.818Z" transform="translate(0.482 0.929)" fill="#ffbeaa"/>
          <path id="Trazado_879191" data-name="Trazado 879191" d="M23.779,44.361v5.121a6.391,6.391,0,0,0,2.56,5.121,6.4,6.4,0,0,1-6.4-6.4v-2.56a6.4,6.4,0,0,1,6.4-6.4A6.391,6.391,0,0,0,23.779,44.361Zm58.89-5.121V34.12a28.165,28.165,0,1,0-56.329,0V44.361a28.177,28.177,0,0,0,20.483,27.1v5.2a7.681,7.681,0,0,0,15.363,0v-5.2A28.233,28.233,0,0,0,80.85,54.341,6.406,6.406,0,0,0,89.07,48.2v-2.56a6.4,6.4,0,0,0-6.4-6.4Z" transform="translate(0.482 0.144)" fill="#faa68e"/>
          <path id="Trazado_879192" data-name="Trazado 879192" d="M82.337,34.114V44.355a28.177,28.177,0,0,1-20.795,27.19,13.526,13.526,0,0,1-7.059,0,28.177,28.177,0,0,1-20.795-27.19V34.114a28.17,28.17,0,0,1,24.324-27.9A28.17,28.17,0,0,1,82.337,34.114Z" transform="translate(0.814 0.15)" fill="#ffbeaa"/>
          <path id="Trazado_879193" data-name="Trazado 879193" d="M50.077,45.215A1.92,1.92,0,0,1,52.793,42.5a1.408,1.408,0,0,0,1.994,0A1.92,1.92,0,1,1,57.5,45.215a5.248,5.248,0,0,1-7.425,0Z" transform="translate(1.197 1.014)" fill="#e09380"/>
          <path id="Trazado_879194" data-name="Trazado 879194" d="M45.745,35.421A3.841,3.841,0,1,1,41.9,31.58,3.841,3.841,0,0,1,45.745,35.421ZM66.228,31.58a3.841,3.841,0,1,0,3.841,3.841A3.841,3.841,0,0,0,66.228,31.58Z" transform="translate(0.92 0.763)" fill="#0a3575"/>
          <path id="Trazado_879195" data-name="Trazado 879195" d="M46.279,33.5a1.92,1.92,0,1,1-1.92-1.92A1.92,1.92,0,0,1,46.279,33.5Zm22.4-1.92A1.92,1.92,0,1,0,70.6,33.5,1.92,1.92,0,0,0,68.683,31.58Z" transform="translate(1.026 0.763)" fill="#fff5f5"/>
          <path id="Trazado_879196" data-name="Trazado 879196" d="M53.87,61.182A7.681,7.681,0,0,1,46.188,53.5a1.92,1.92,0,0,1,1.92-1.92H59.631a1.92,1.92,0,0,1,1.92,1.92A7.681,7.681,0,0,1,53.87,61.182Z" transform="translate(1.116 1.247)" fill="#fff5f5"/>
          <path id="Trazado_879197" data-name="Trazado 879197" d="M55.79,60.94a7.688,7.688,0,0,1-9.6-7.439,1.92,1.92,0,0,1,1.92-1.92h3.841a1.92,1.92,0,0,0-1.92,1.92A7.684,7.684,0,0,0,55.79,60.94Z" transform="translate(1.116 1.247)" fill="#d5f1fe"/>
          <path id="Trazado_879198" data-name="Trazado 879198" d="M58.821,5.121h-10.6a2.56,2.56,0,1,1,0-5.121h10.6a2.56,2.56,0,0,1,0,5.121Z" transform="translate(1.104)" fill="#edd578"/>
          <path id="Trazado_879199" data-name="Trazado 879199" d="M83.473,25.544H24.583A23.044,23.044,0,0,1,47.627,2.5h12.8A23.044,23.044,0,0,1,83.473,25.544Z" transform="translate(0.594 0.06)" fill="#df9d28"/>
          <path id="Trazado_879200" data-name="Trazado 879200" d="M83.171,25.544H37.083a23.044,23.044,0,1,1,46.088,0Z" transform="translate(0.896 0.06)" fill="#e4ab45"/>
          <path id="Trazado_879201" data-name="Trazado 879201" d="M76.222,22.823l-2.58,2.589L56.436,4.684a.469.469,0,0,0-.829.3V23.945H52.114V4.983a.469.469,0,0,0-.829-.3L34.079,25.412,31.5,22.823,48.37,2.5H59.352Z" transform="translate(0.761 0.06)" fill="#e8b863"/>
          <path id="Trazado_879202" data-name="Trazado 879202" d="M95.267,23.841a3.841,3.841,0,0,1-3.841,3.841H17.174a3.841,3.841,0,1,1,0-7.681H91.426A3.841,3.841,0,0,1,95.267,23.841Z" transform="translate(0.322 0.483)" fill="#edd578"/>
          <path id="Trazado_879203" data-name="Trazado 879203" d="M94.9,23.841a3.841,3.841,0,0,1-3.841,3.841H32.529a3.841,3.841,0,0,1,0-7.681H91.055A3.841,3.841,0,0,1,94.9,23.841Z" transform="translate(0.693 0.483)" fill="#fff68e"/>
          <path id="Trazado_879204" data-name="Trazado 879204" d="M30.121,104.488A5.121,5.121,0,0,1,25,99.367V95.121a5.121,5.121,0,0,1,10.242,0v4.246A5.121,5.121,0,0,1,30.121,104.488Z" transform="translate(0.604 2.175)" fill="#3f4a4a"/>
          <path id="Trazado_879205" data-name="Trazado 879205" d="M47.863,104.548H37.621A5.121,5.121,0,0,1,32.5,99.428V92.621A5.121,5.121,0,0,1,37.621,87.5H47.863a5.121,5.121,0,0,1,5.121,5.121v6.807A5.121,5.121,0,0,1,47.863,104.548Z" transform="translate(0.786 2.115)" fill="#9bb9c3"/>
          <path id="Trazado_879206" data-name="Trazado 879206" d="M68.648,100.121V128.7q-1.78.1-3.585.1A65.322,65.322,0,0,1,20,110.85V100.121A5.121,5.121,0,0,1,25.121,95H63.527A5.121,5.121,0,0,1,68.648,100.121Z" transform="translate(0.483 2.296)" fill="#e1ebf0"/>
          <path id="Trazado_879207" data-name="Trazado 879207" d="M25.121,95v20.226A65.951,65.951,0,0,1,20,110.85V100.121A5.121,5.121,0,0,1,25.121,95Z" transform="translate(0.483 2.296)" fill="#b4d2d7"/>
          <path id="Trazado_879208" data-name="Trazado 879208" d="M67.035,107.893A16.643,16.643,0,1,1,50.393,91.25,16.643,16.643,0,0,1,67.035,107.893Z" transform="translate(0.816 2.205)" fill="#3f4a4a"/>
          <path id="Trazado_879209" data-name="Trazado 879209" d="M22.8,117.862H15.121A5.121,5.121,0,0,1,10,112.742v-5.121a5.121,5.121,0,0,1,5.121-5.121H22.8a7.681,7.681,0,1,1,0,15.363Z" transform="translate(0.242 2.477)" fill="#faa68e"/>
          <path id="Trazado_879210" data-name="Trazado 879210" d="M22.681,117.862h-2.56A5.121,5.121,0,0,1,15,112.742v-5.121a5.121,5.121,0,0,1,5.121-5.121h2.56a7.681,7.681,0,0,1,0,15.363Z" transform="translate(0.363 2.477)" fill="#ffbeaa"/>
          <path id="Trazado_879211" data-name="Trazado 879211" d="M102.97,96.266a123.3,123.3,0,0,1-6.83,22.166q-.664,1.614-1.36,3.188A65.258,65.258,0,0,1,64.147,129.2q-3.162,0-6.249-.294A127.013,127.013,0,0,1,75.693,85.049c9.052-13.823,30.568-4.974,27.277,11.217Z" transform="translate(1.399 1.89)" fill="#84b017"/>
          <path id="Trazado_879212" data-name="Trazado 879212" d="M88.077,73.87c8.855-3.876,20.927-9,26.928-.442a91.953,91.953,0,0,1,5.384,8.308c7.267,13.994,10.328,27.194,8.38,36.137-10.5-.628-24.617-9.145-37.628-22.957l-.157-.168c-4.509-4.839-18.4-4.654-18.522-4.823.01-.047,4.97-11.394,15.616-16.054Z" transform="translate(1.751 1.662)" fill="#b9e746"/>
          <path id="Trazado_879213" data-name="Trazado 879213" d="M92.554,71.762c10.837,11.6,19.294,22.058,22.469,27.675-5.111-2.652-16.215-12.171-28.81-24.9q.745-.39,1.531-.735C89.268,73.131,90.887,72.427,92.554,71.762Z" transform="translate(2.084 1.734)" fill="#9bcf1b"/>
          <path id="Trazado_879214" data-name="Trazado 879214" d="M62.866,107.8A12.569,12.569,0,1,1,50.3,95.227,12.569,12.569,0,0,1,62.866,107.8Z" transform="translate(0.912 2.302)" fill="#07a9f0"/>
          <path id="Trazado_879215" data-name="Trazado 879215" d="M62.749,107.8a12.513,12.513,0,0,1-1.559,6.067A12.573,12.573,0,0,1,44.113,96.786,12.573,12.573,0,0,1,62.749,107.8Z" transform="translate(1.029 2.302)" fill="#72d1fb"/>
          <path id="Trazado_879216" data-name="Trazado 879216" d="M57.038,101.242c2.823,2.823,4.221,6,3.121,7.1s-4.281-.3-7.1-3.121-4.221-6-3.121-7.1S54.214,98.419,57.038,101.242Z" transform="translate(1.198 2.362)" fill="#b4e7fd"/>
        </g>
      </g>
    </g>
  </g>
</svg>
