<svg xmlns="http://www.w3.org/2000/svg" xmlns:xlink="http://www.w3.org/1999/xlink" width="67" height="67" viewBox="0 0 67 67">
  <defs>
    <clipPath id="clip-path">
      <rect id="Rectángulo_403652" data-name="Rectángulo 403652" width="67" height="67" transform="translate(915.051 542)" fill="#012d71"/>
    </clipPath>
  </defs>
  <g id="Enmascarar_grupo_1098687" data-name="Enmascarar grupo 1098687" transform="translate(-915.051 -542)" clip-path="url(#clip-path)">
    <g id="mapa-de-viaje" transform="translate(913.971 540.92)">
      <path id="Trazado_878465" data-name="Trazado 878465" d="M67.966,66.516,51.757,34.1a1.082,1.082,0,0,0-.967-.6H40.1l.136-.589a10.806,10.806,0,1,0-6.987,0l.136.589H18.371a1.082,1.082,0,0,0-.967.6L1.194,66.516a1.081,1.081,0,0,0,.967,1.564H67a1.081,1.081,0,0,0,.967-1.564ZM32.735,61.279l4.639,4.639H33.947L25.618,57.59a1.079,1.079,0,0,0-1.528,0l-8.328,8.328H12.334L22.376,55.876a1.079,1.079,0,0,0,0-1.528l-8.455-8.455,1.142-2.286,4.7,4.7a1.08,1.08,0,0,0,1.529,0l5.4-5.4a1.078,1.078,0,0,0,.317-.764V35.661h2.161v8.2L23.01,50.025a1.079,1.079,0,0,0,0,1.528l6.484,6.484a1.08,1.08,0,0,0,1.528,0l9.409-9.409H56.605l1.081,2.161H42.144a1.076,1.076,0,0,0-.764.317l-8.645,8.645a1.079,1.079,0,0,0,0,1.528Zm-1.845,4.639H18.818l6.036-6.036ZM28.1,22.693a8.645,8.645,0,1,1,10.939,8.326,1.082,1.082,0,0,0-.766.8l-1.528,6.61-1.528-6.61a1.08,1.08,0,0,0-.766-.8A8.661,8.661,0,0,1,28.1,22.693Zm7.591,20.775a1.081,1.081,0,0,0,2.107,0l1.8-7.808H50.122l5.4,10.806H39.983a1.076,1.076,0,0,0-.764.317l-8.962,8.962L25.3,50.789l5.72-5.72a1.078,1.078,0,0,0,.317-.764V35.661h2.545ZM19.038,35.661h5.816V41.7l-4.323,4.323-4.449-4.449ZM12.9,47.931l7.181,7.181L9.278,65.918H3.91ZM40.431,65.918l-5.4-5.4,7.564-7.564H58.767L63.089,61.6H57.851l-4-6a1.081,1.081,0,0,0-1.663-.164l-2.046,2.045-1.656-2.9a1.124,1.124,0,0,0-1.876,0L42.6,61.6H39.983v2.161H64.17l1.081,2.161ZM50.008,61.6H45.087l2.461-4.305Zm2.489,0-1.244-2.177,1.53-1.529L55.255,61.6Z" fill="#012d71"/>
      <path id="Trazado_878466" data-name="Trazado 878466" d="M41.064,22.693h2.161a6.49,6.49,0,0,0-6.484-6.484v2.161A4.327,4.327,0,0,1,41.064,22.693Z" fill="#012d71"/>
      <path id="Trazado_878467" data-name="Trazado 878467" d="M39.334,26.151l1.3,1.729a6.5,6.5,0,0,0,2.052-2.594l-1.98-.864a4.315,4.315,0,0,1-1.37,1.729Z" fill="#012d71"/>
      <path id="Trazado_878468" data-name="Trazado 878468" d="M4.322,16.209a1.082,1.082,0,0,0-.9.481L1.262,19.932a1.08,1.08,0,0,0,0,1.2l2.161,3.242a1.08,1.08,0,0,0,.9.482h5.4V34.58a1.08,1.08,0,0,0,1.081,1.081h4.322a1.08,1.08,0,0,0,1.081-1.081V24.854h7.564a1.08,1.08,0,0,0,.9-1.679l-1.761-2.643,1.761-2.642a1.081,1.081,0,0,0-.9-1.68H16.209V14.048h5.4a1.082,1.082,0,0,0,.9-.481l2.161-3.242a1.08,1.08,0,0,0,0-1.2L22.512,5.885a1.08,1.08,0,0,0-.9-.482h-5.4V2.161a1.08,1.08,0,0,0-1.081-1.081H10.806A1.08,1.08,0,0,0,9.726,2.161V5.4H2.161a1.08,1.08,0,0,0-.9,1.679L3.024,9.726,1.262,12.368a1.081,1.081,0,0,0,.9,1.68H9.726v2.161ZM14.048,33.5H11.887V24.854h2.161Zm6.665-12.368,1.042,1.562H4.9L3.46,20.532,4.9,18.371H21.755l-1.042,1.562A1.081,1.081,0,0,0,20.713,21.132ZM11.887,3.242h2.161V5.4H11.887ZM5.222,9.126,4.18,7.564H21.034l1.44,2.161-1.44,2.161H4.18l1.042-1.562a1.081,1.081,0,0,0,0-1.2Zm6.665,4.922h2.161v2.161H11.887Z" fill="#012d71"/>
      <path id="Trazado_878469" data-name="Trazado 878469" d="M5.4,19.451H7.564v2.161H5.4Z" fill="#012d71"/>
      <path id="Trazado_878470" data-name="Trazado 878470" d="M9.726,19.451h2.161v2.161H9.726Z" fill="#012d71"/>
      <path id="Trazado_878471" data-name="Trazado 878471" d="M18.371,8.645h2.161v2.161H18.371Z" fill="#012d71"/>
      <path id="Trazado_878472" data-name="Trazado 878472" d="M14.048,8.645h2.161v2.161H14.048Z" fill="#012d71"/>
    </g>
  </g>
</svg>
