<svg xmlns="http://www.w3.org/2000/svg" width="72" height="72" viewBox="0 0 72 72">
  <g id="Grupo_1102963" data-name="Grupo 1102963" transform="translate(-419 -1121)">
    <path id="Trazado_824488" data-name="Trazado 824488" d="M36,0A36,36,0,1,1,0,36,36,36,0,0,1,36,0Z" transform="translate(419 1121)" fill="#56e9cc"/>
    <g id="XMLID_1400_" transform="translate(435 1119.244)">
      <path id="XMLID_1700_" d="M418,255.231l5.3-3.118a1.409,1.409,0,0,1,2.123,1.214v16.981a1.409,1.409,0,0,1-2.123,1.214L418,268.4Z" transform="translate(-381.074 -216.9)" fill="#9bc6ff"/>
      <path id="XMLID_1699_" d="M0,0H3.534V12.014H0Z" transform="translate(36.926 50.926) rotate(180)" fill="#98a1b3"/>
      <path id="XMLID_1698_" d="M12.12,240H40.389a2.12,2.12,0,0,1,2.12,2.12v17.668a2.12,2.12,0,0,1-2.12,2.12H12.12a2.12,2.12,0,0,1-2.12-2.12V242.12A2.12,2.12,0,0,1,12.12,240Z" transform="translate(-9.117 -206.036)" fill="#8690a6"/>
      <circle id="XMLID_1697_" cx="2.08" cy="2.08" r="2.08" transform="translate(24.955 38.04)" fill="#f5737f"/>
      <g id="XMLID_759_" transform="translate(1.04 14.882)">
        <circle id="XMLID_1696_" cx="7.019" cy="7.019" r="7.019" transform="translate(0 4.961)" fill="#98a1b3"/>
        <g id="XMLID_1203_" transform="translate(13.796)">
          <circle id="XMLID_1188_" cx="9.541" cy="9.541" r="9.541" fill="#8690a6"/>
          <circle id="XMLID_1695_" cx="6.007" cy="6.007" r="6.007" transform="translate(3.534 3.534)" fill="#d3d7df"/>
        </g>
        <ellipse id="XMLID_757_" cx="3.119" cy="3.379" rx="3.119" ry="3.379" transform="translate(3.639 8.6)" fill="#d3d7df"/>
      </g>
      <path id="XMLID_1308_" d="M64,344H79.371v8.481H64Z" transform="translate(-58.346 -300.848)" fill="#e1e3e9"/>
      <path id="XMLID_1341_" d="M282,384h4.24v4.24H282Z" transform="translate(-257.088 -337.315)" fill="#ffcb7c"/>
      <g id="XMLID_190_" transform="translate(0 13.999)">
        <path id="XMLID_217_" d="M44.076,34.438a2.267,2.267,0,0,0-2.3.014l-5.3,3.118a.882.882,0,0,0-.38.458H34.276V36.084a3.007,3.007,0,0,0-3-3h-1.1A10.423,10.423,0,1,0,14.231,22.027,7.947,7.947,0,1,0,2.961,33.082a3.007,3.007,0,0,0-2.961,3V53.752a3.007,3.007,0,0,0,3,3H13.163a.883.883,0,0,0,0-1.767H3a1.238,1.238,0,0,1-1.237-1.237V36.084A1.238,1.238,0,0,1,3,34.848H31.273a1.238,1.238,0,0,1,1.237,1.237V53.752a1.238,1.238,0,0,1-1.237,1.237H21.113a.883.883,0,0,0,0,1.767H31.273a3.007,3.007,0,0,0,3-3V51.809H36.1a.881.881,0,0,0,.38.458l5.3,3.118a2.292,2.292,0,0,0,3.455-1.975V36.428a2.268,2.268,0,0,0-1.154-1.99Zm-19.7-18.672a8.657,8.657,0,1,1-8.657,8.657A8.667,8.667,0,0,1,24.377,15.766ZM1.767,26.9a6.184,6.184,0,1,1,6.184,6.184A6.191,6.191,0,0,1,1.767,26.9Zm11.175,6.184A7.986,7.986,0,0,0,15.39,29.7a10.5,10.5,0,0,0,3.186,3.38Zm21.334,6.714h1.767V50.042H34.276Zm9.187,13.614a.525.525,0,0,1-.792.453L37.81,51V38.837l4.862-2.862a.525.525,0,0,1,.792.453Z" transform="translate(0 -13.999)"/>
        <path id="XMLID_1198_" d="M275,284.007a3,3,0,1,0-3-3A3.007,3.007,0,0,0,275,284.007Zm0-4.24A1.237,1.237,0,1,1,273.767,281,1.238,1.238,0,0,1,275,279.767Z" transform="translate(-247.971 -254.678)"/>
        <path id="XMLID_1201_" d="M184.883,478a.884.884,0,1,0,.624.259A.89.89,0,0,0,184.883,478Z" transform="translate(-167.745 -437.01)"/>
        <path id="XMLID_1508_" d="M204.833,67.781a6.891,6.891,0,1,0-6.891-6.891A6.9,6.9,0,0,0,204.833,67.781Zm0-12.014a5.124,5.124,0,1,1-5.124,5.124A5.13,5.13,0,0,1,204.833,55.767Z" transform="translate(-180.456 -50.466)"/>
        <path id="XMLID_1509_" d="M266.822,96.437a.884.884,0,1,0-.624-.259A.89.89,0,0,0,266.822,96.437Z" transform="translate(-242.446 -87.543)"/>
        <path id="XMLID_1511_" d="M266.822,151.1a.884.884,0,1,0-.624-.259A.886.886,0,0,0,266.822,151.1Z" transform="translate(-242.446 -137.375)"/>
        <path id="XMLID_1513_" d="M294.162,123.767a.884.884,0,1,0-.625-.259A.892.892,0,0,0,294.162,123.767Z" transform="translate(-267.37 -112.459)"/>
        <path id="XMLID_1514_" d="M239.492,123.767a.884.884,0,1,0-.624-.259A.89.89,0,0,0,239.492,123.767Z" transform="translate(-217.53 -112.459)"/>
        <path id="XMLID_1517_" d="M48.064,122.127A4.064,4.064,0,1,0,44,118.064,4.068,4.068,0,0,0,48.064,122.127Zm0-6.361a2.3,2.3,0,1,1-2.3,2.3A2.3,2.3,0,0,1,48.064,115.767Z" transform="translate(-40.113 -105.166)"/>
        <path id="XMLID_1993_" d="M71.138,343.364v-8.481a.883.883,0,0,0-.883-.883H54.883a.883.883,0,0,0-.883.883v8.481a.883.883,0,0,0,.883.883H70.255A.883.883,0,0,0,71.138,343.364Zm-1.767-.883h-13.6v-6.714h13.6Z" transform="translate(-49.23 -305.731)"/>
        <path id="XMLID_1996_" d="M272,379.124a.883.883,0,0,0,.883.883h4.24a.883.883,0,0,0,.883-.883v-4.24a.883.883,0,0,0-.883-.883h-4.24a.883.883,0,0,0-.883.883Zm1.767-3.357h2.474v2.474h-2.474Z" transform="translate(-247.971 -342.197)"/>
      </g>
    </g>
  </g>
</svg>
