<svg xmlns="http://www.w3.org/2000/svg" width="92.064" height="67.845" viewBox="0 0 92.064 67.845">
  <g id="Grupo_1103122" data-name="Grupo 1103122" transform="translate(-180.32 -1817)">
    <path id="Trazado_875706" data-name="Trazado 875706" d="M-17834.73-9565.178v67.845h70.064l22-34.667-22-33.178Z" transform="translate(18015.051 11382.178)" fill="#ffa06f"/>
    <g id="destino" transform="translate(188.605 1821)">
      <path id="Trazado_875589" data-name="Trazado 875589" d="M47.354,430.773c-5.008,0-10.33,1.657-10.33,4.728s5.322,4.728,10.33,4.728,10.33-1.657,10.33-4.728S52.362,430.773,47.354,430.773Z" transform="translate(-32.509 -380.628)" fill="#e6eaf1"/>
      <path id="Trazado_875590" data-name="Trazado 875590" d="M14.845,153.9A14.63,14.63,0,0,0,.232,168.515c0,5,2.38,10.382,7.074,15.988a50.379,50.379,0,0,0,7,6.89.874.874,0,0,0,1.07,0,50.378,50.378,0,0,0,7-6.89,33.613,33.613,0,0,0,5.906-9.731,17.942,17.942,0,0,0,1.168-6.256,14.775,14.775,0,0,0-2.418-8.043A14.484,14.484,0,0,0,14.845,153.9Zm5.48,14.613a5.48,5.48,0,1,1-5.48-5.48A5.48,5.48,0,0,1,20.325,168.515Z" transform="translate(0 -135.987)" fill="#012d71"/>
      <path id="Trazado_875591" data-name="Trazado 875591" d="M357.212,213.728a16.51,16.51,0,0,0-10.938,0c-1.724.7-2.673,1.734-2.673,2.9s.949,2.2,2.673,2.9a12.438,12.438,0,0,0,2.165.627,16.5,16.5,0,0,0,3.3.305,14.953,14.953,0,0,0,5.469-.932c1.724-.7,2.673-1.734,2.673-2.9S358.935,214.431,357.212,213.728Z" transform="translate(-303.398 -188.025)" fill="#e6eaf1"/>
      <g id="Grupo_1102258" data-name="Grupo 1102258" transform="translate(4.515 27.515)">
        <path id="Trazado_875592" data-name="Trazado 875592" d="M47.354,465.645c-4.378,0-9-1.266-10.088-3.636a2.581,2.581,0,0,0-.242,1.092c0,3.071,5.322,4.728,10.33,4.728s10.33-1.657,10.33-4.728a2.582,2.582,0,0,0-.242-1.092C56.35,464.379,51.732,465.645,47.354,465.645Z" transform="translate(-37.024 -435.743)" fill="#ccd5e3"/>
        <path id="Trazado_875593" data-name="Trazado 875593" d="M357.213,238.182a16.51,16.51,0,0,1-10.938,0,4.632,4.632,0,0,1-2.375-1.812,2.195,2.195,0,0,0-.3,1.092c0,1.17.949,2.2,2.673,2.9a16.511,16.511,0,0,0,10.938,0c1.724-.7,2.673-1.734,2.673-2.9a2.2,2.2,0,0,0-.3-1.092A4.633,4.633,0,0,1,357.213,238.182Z" transform="translate(-307.914 -236.37)" fill="#ccd5e3"/>
      </g>
      <path id="Trazado_875594" data-name="Trazado 875594" d="M326.76,0a11.447,11.447,0,0,0-11.434,11.434c0,3.894,1.845,8.072,5.484,12.418a38.951,38.951,0,0,0,5.415,5.326.874.874,0,0,0,1.07,0,38.945,38.945,0,0,0,5.415-5.326c3.639-4.346,5.484-8.524,5.484-12.418A11.447,11.447,0,0,0,326.76,0Zm4.212,11.434a4.212,4.212,0,1,1-4.212-4.212A4.212,4.212,0,0,1,330.971,11.434Z" transform="translate(-278.415 0)" fill="#012d71"/>
      <g id="Grupo_1102259" data-name="Grupo 1102259" transform="translate(13.199 0)">
        <path id="Trazado_875595" data-name="Trazado 875595" d="M113.272,153.9a14.693,14.693,0,0,0-1.646.093,14.634,14.634,0,0,1,12.967,14.52c0,5-2.38,10.382-7.073,15.988a52.663,52.663,0,0,1-5.894,5.972c.653.561,1.063.881,1.111.918a.874.874,0,0,0,1.07,0,50.379,50.379,0,0,0,7-6.89c4.694-5.606,7.074-10.985,7.074-15.988A14.63,14.63,0,0,0,113.272,153.9Z" transform="translate(-111.626 -135.987)" fill="#011b44"/>
        <path id="Trazado_875596" data-name="Trazado 875596" d="M401.051,0a11.461,11.461,0,0,0-1.646.119,11.451,11.451,0,0,1,9.788,11.315c0,3.894-1.845,8.072-5.484,12.418a40.765,40.765,0,0,1-4.3,4.4c.65.569,1.068.9,1.111.929a.874.874,0,0,0,1.07,0A38.95,38.95,0,0,0,407,23.851c3.639-4.346,5.484-8.524,5.484-12.418A11.447,11.447,0,0,0,401.051,0Z" transform="translate(-365.905 0)" fill="#011b44"/>
      </g>
      <path id="Trazado_875597" data-name="Trazado 875597" d="M235.593,266.4a.874.874,0,0,1,0-1.748l1.154-.005h0a.874.874,0,0,1,0,1.748l-1.154.005Zm4.617-.021a.874.874,0,0,1,0-1.748l1.154-.005h0a.874.874,0,0,1,0,1.748l-1.154.005Zm4.617-.021a.874.874,0,0,1,0-1.748l1.154-.005h0a.874.874,0,0,1,0,1.748l-1.154.005Zm4.617-.021a.874.874,0,0,1,0-1.748l1.154-.005h0a.874.874,0,0,1,0,1.748l-1.154.005Zm4.617-.021a.874.874,0,0,1,0-1.748l1.154-.005h0a.874.874,0,0,1,0,1.748l-1.154.005Zm4.617-.021a.874.874,0,0,1,0-1.748h.164a6.594,6.594,0,0,0,.872-.062.874.874,0,0,1,.239,1.732,8.369,8.369,0,0,1-1.1.078h-.167Zm4.348-1.317a.874.874,0,0,1-.5-1.592,6.582,6.582,0,0,0,.789-.643.874.874,0,1,1,1.206,1.265,8.335,8.335,0,0,1-1,.814A.87.87,0,0,1,263.028,264.979Zm2.764-3.6a.875.875,0,0,1-.823-1.168,6.512,6.512,0,0,0,.265-.981.874.874,0,1,1,1.718.324,8.269,8.269,0,0,1-.337,1.245A.874.874,0,0,1,265.792,261.375Zm.141-4.54a.874.874,0,0,1-.84-.633,6.505,6.505,0,0,0-.356-.952.874.874,0,1,1,1.584-.739,8.248,8.248,0,0,1,.452,1.209.875.875,0,0,1-.841,1.115Zm-2.535-3.77a.87.87,0,0,1-.541-.188,6.571,6.571,0,0,0-.845-.566.874.874,0,1,1,.858-1.523,8.339,8.339,0,0,1,1.07.717.874.874,0,0,1-.542,1.56Zm-4.254-1.584H259.1q-.146-.006-.295-.007h-.821a.874.874,0,0,1,0-1.748h.821c.123,0,.248,0,.372.008a.874.874,0,0,1-.038,1.747Zm-4.618-.007h-1.154a.874.874,0,0,1,0-1.748h1.154a.874.874,0,1,1,0,1.748Zm-4.617,0h-1.154a.874.874,0,0,1,0-1.748h1.154a.874.874,0,1,1,0,1.748Zm-4.618,0h-1.154a.874.874,0,0,1,0-1.748h1.154a.874.874,0,0,1,0,1.748Zm-4.452-.869a.87.87,0,0,1-.465-.135,6.579,6.579,0,0,1-1.047-.82.874.874,0,0,1,1.212-1.26,4.812,4.812,0,0,0,.767.6.874.874,0,0,1-.467,1.613Zm-2.54-3.7a.874.874,0,0,1-.857-.707,6.58,6.58,0,0,1-.121-1.256v-.069a.874.874,0,0,1,.874-.864h.01a.874.874,0,0,1,.864.884v.049a4.828,4.828,0,0,0,.089.921.875.875,0,0,1-.859,1.041Zm.955-4.386a.874.874,0,0,1-.709-1.384,6.572,6.572,0,0,1,.881-1,.874.874,0,0,1,1.185,1.285,4.826,4.826,0,0,0-.646.73A.873.873,0,0,1,239.253,242.516ZM243.1,240.2a.874.874,0,0,1-.114-1.741,6.617,6.617,0,0,1,.868-.057h.4a.874.874,0,0,1,0,1.748h-.4a4.863,4.863,0,0,0-.638.042A.839.839,0,0,1,243.1,240.2Z" transform="translate(-207.191 -210.653)" fill="#fff"/>
    </g>
  </g>
</svg>
