<svg xmlns="http://www.w3.org/2000/svg" xmlns:xlink="http://www.w3.org/1999/xlink" width="85" height="91" viewBox="0 0 85 91">
  <defs>
    <clipPath id="clip-path">
      <rect id="Rect치ngulo_403728" data-name="Rect치ngulo 403728" width="67" height="71" transform="translate(189.051 1735)" fill="#56e9cc"/>
    </clipPath>
  </defs>
  <g id="Grupo_1103841" data-name="Grupo 1103841" transform="translate(-180.051 -1725)">
    <rect id="Rect치ngulo_403729" data-name="Rect치ngulo 403729" width="85" height="91" transform="translate(180.051 1725)" fill="#56e9cc"/>
    <g id="Enmascarar_grupo_1098684" data-name="Enmascarar grupo 1098684" clip-path="url(#clip-path)">
      <g id="Layer_49" transform="translate(189.051 1737)">
        <g id="Grupo_1103095" data-name="Grupo 1103095">
          <g id="Grupo_1103031" data-name="Grupo 1103031">
            <path id="Trazado_877944" data-name="Trazado 877944" d="M31.85,37.964a.786.786,0,0,1-.672-1.194l5.052-8.332H35.035a.786.786,0,0,1-.672-1.193L39,19.6H37.4a.786.786,0,0,1-.672-1.193l1.125-1.855L33.5,10.189a3.216,3.216,0,0,0-5.409.156L20.377,23.153a3.579,3.579,0,0,1,2.29,1.617.691.691,0,0,0,.526.322A2.574,2.574,0,0,1,25.517,27.7a2.611,2.611,0,0,1-2.63,2.529H8.893A6.63,6.63,0,0,0,6.266,31.9l-4.5,4.66A3.966,3.966,0,0,0,.654,39.31v6.36H8.076V42.563a4.776,4.776,0,0,1,4.078-4.71h0a4.925,4.925,0,0,1,.687-.055H25.159a4.956,4.956,0,0,1,.686.055h0a4.49,4.49,0,0,1,1.579.522,4.778,4.778,0,0,1,2.5,4.188v1.093h0V45.67h9.966V37.963H31.85Z" fill="#818182"/>
          </g>
          <g id="Grupo_1103032" data-name="Grupo 1103032">
            <path id="Trazado_877945" data-name="Trazado 877945" d="M57.292,18.979l-3.435,5.665a.63.63,0,0,0,.538.956h6.87a.63.63,0,0,0,.538-.956l-3.435-5.665a.63.63,0,0,0-1.077,0Z" fill="#b2e26d"/>
          </g>
          <g id="Grupo_1103033" data-name="Grupo 1103033">
            <path id="Trazado_877946" data-name="Trazado 877946" d="M66.254,39.355,62.206,32.68H53.455l-4.047,6.675a.63.63,0,0,0,.538.956H65.715A.63.63,0,0,0,66.254,39.355Z" fill="#57af12"/>
          </g>
          <g id="Grupo_1103034" data-name="Grupo 1103034">
            <path id="Trazado_877947" data-name="Trazado 877947" d="M63.7,31.724,59.988,25.6H55.673l-3.714,6.124a.63.63,0,0,0,.538.956H63.163a.63.63,0,0,0,.538-.956Z" fill="#87d147"/>
          </g>
          <g id="Grupo_1103035" data-name="Grupo 1103035">
            <path id="Trazado_877948" data-name="Trazado 877948" d="M41.02,11.334l-4.288,7.072A.786.786,0,0,0,37.4,19.6h8.577a.786.786,0,0,0,.672-1.193l-4.288-7.072a.786.786,0,0,0-1.344,0Z" fill="#b2e26d"/>
          </g>
          <g id="Grupo_1103036" data-name="Grupo 1103036">
            <path id="Trazado_877949" data-name="Trazado 877949" d="M49.022,27.245,44.386,19.6H39l-4.636,7.645a.786.786,0,0,0,.672,1.193H48.35a.786.786,0,0,0,.672-1.193Z" fill="#87d147"/>
          </g>
          <g id="Grupo_1103037" data-name="Grupo 1103037">
            <path id="Trazado_877950" data-name="Trazado 877950" d="M51.591,35.754l-4.436-7.316H36.23L31.178,36.77a.786.786,0,0,0,.672,1.194h18.4Z" fill="#57af12"/>
          </g>
          <g id="Grupo_1103039" data-name="Grupo 1103039">
            <g id="Grupo_1103038" data-name="Grupo 1103038">
              <path id="Trazado_877951" data-name="Trazado 877951" d="M59.1,49.6a5.509,5.509,0,0,0-4.349,2.127l-.355.457a5.509,5.509,0,0,1-4.349,2.127H42.667a5.509,5.509,0,0,0-4.408,2.2l-.62.827a5.508,5.508,0,0,1-4.22,2.2V64.6a1.748,1.748,0,0,1-1.743,1.743H65.3A1.043,1.043,0,0,0,66.346,65.3V49.6Z" fill="#c18e6b"/>
            </g>
          </g>
          <g id="Grupo_1103040" data-name="Grupo 1103040">
            <path id="Trazado_877952" data-name="Trazado 877952" d="M59.1,49.6h.18V40.311H56.386v10A5.509,5.509,0,0,1,59.1,49.6Z" fill="#a57453"/>
          </g>
          <g id="Grupo_1103041" data-name="Grupo 1103041">
            <path id="Trazado_877953" data-name="Trazado 877953" d="M42.667,54.307H43.5V37.964H39.889v17.1a5.506,5.506,0,0,1,2.778-.753Z" fill="#a57453"/>
          </g>
          <g id="Grupo_1103042" data-name="Grupo 1103042">
            <path id="Trazado_877954" data-name="Trazado 877954" d="M43.5,45.67v8.637h6.546a5.509,5.509,0,0,0,4.349-2.127l.355-.457a5.5,5.5,0,0,1,1.64-1.415V45.67H43.5Z" fill="#87d147"/>
          </g>
          <g id="Grupo_1103043" data-name="Grupo 1103043">
            <path id="Trazado_877955" data-name="Trazado 877955" d="M29.924,45.67V57.315h1.753a1.748,1.748,0,0,1,1.743,1.743v.474a5.6,5.6,0,0,0,4.22-2.195l.62-.827a5.5,5.5,0,0,1,1.63-1.451V45.67Z" fill="#87d147"/>
          </g>
          <g id="Grupo_1103044" data-name="Grupo 1103044">
            <path id="Trazado_877956" data-name="Trazado 877956" d="M39.585,46.324H30.229a.654.654,0,0,1,0-1.309h9.356a.654.654,0,0,1,0,1.309Z"/>
          </g>
          <g id="Grupo_1103045" data-name="Grupo 1103045">
            <path id="Trazado_877957" data-name="Trazado 877957" d="M.654,45.67V65.3A1.043,1.043,0,0,0,1.7,66.346H6.323A1.748,1.748,0,0,1,4.58,64.6V59.058a1.748,1.748,0,0,1,1.743-1.743H8.076V45.67Z" fill="#87d147"/>
          </g>
          <g id="Grupo_1103046" data-name="Grupo 1103046">
            <path id="Trazado_877958" data-name="Trazado 877958" d="M59.275,45.67V49.6h7.071V46.713A1.043,1.043,0,0,0,65.3,45.67Z" fill="#87d147"/>
          </g>
          <g id="Grupo_1103047" data-name="Grupo 1103047">
            <path id="Trazado_877959" data-name="Trazado 877959" d="M26.168,66.346H11.831a3.766,3.766,0,0,1-3.755-3.755V42.563A4.779,4.779,0,0,1,12.841,37.8H25.158a4.779,4.779,0,0,1,4.765,4.765V62.591A3.766,3.766,0,0,1,26.168,66.346Z" fill="#f5c84c"/>
          </g>
          <g id="Grupo_1103048" data-name="Grupo 1103048">
            <path id="Trazado_877960" data-name="Trazado 877960" d="M8.076,62.591V57.315H6.323A1.748,1.748,0,0,0,4.58,59.058V64.6a1.748,1.748,0,0,0,1.743,1.743h5.508a3.766,3.766,0,0,1-3.755-3.755Z" fill="#fc657e"/>
          </g>
          <g id="Grupo_1103049" data-name="Grupo 1103049">
            <path id="Trazado_877961" data-name="Trazado 877961" d="M31.677,57.315H29.924v5.275a3.766,3.766,0,0,1-3.755,3.755h5.508A1.748,1.748,0,0,0,33.419,64.6V59.058A1.748,1.748,0,0,0,31.677,57.315Z" fill="#fc657e"/>
          </g>
          <g id="Grupo_1103050" data-name="Grupo 1103050">
            <path id="Trazado_877962" data-name="Trazado 877962" d="M56.386,40.311h-6.44a.63.63,0,0,1-.538-.956l.844-1.391H43.5V45.67h12.89V40.311Z" fill="#818182"/>
          </g>
          <g id="Grupo_1103051" data-name="Grupo 1103051">
            <path id="Trazado_877963" data-name="Trazado 877963" d="M22.667,24.77a3.58,3.58,0,0,0-3.455-1.676.683.683,0,0,1-.679-.364,5.1,5.1,0,0,0-9.33.778.672.672,0,0,1-.7.446,3.145,3.145,0,0,0-3.378,3.094,3.2,3.2,0,0,0,3.206,3.18H22.887a2.611,2.611,0,0,0,2.63-2.529,2.574,2.574,0,0,0-2.324-2.608A.691.691,0,0,1,22.667,24.77Z" fill="#9be5f9"/>
          </g>
          <g id="Grupo_1103052" data-name="Grupo 1103052">
            <path id="Trazado_877964" data-name="Trazado 877964" d="M25.158,37.8H12.841a4.779,4.779,0,0,0-4.765,4.765v1.093a3.766,3.766,0,0,0,3.755,3.755H26.169a3.766,3.766,0,0,0,3.755-3.755V42.563A4.779,4.779,0,0,0,25.158,37.8Z" fill="#fcdd86"/>
          </g>
          <g id="Grupo_1103053" data-name="Grupo 1103053">
            <path id="Trazado_877965" data-name="Trazado 877965" d="M23.743,63.141H14.257a1.615,1.615,0,0,1-1.611-1.611V55.722a1.615,1.615,0,0,1,1.611-1.611h9.486a1.615,1.615,0,0,1,1.611,1.611v5.809A1.616,1.616,0,0,1,23.743,63.141Z" fill="#fc657e"/>
          </g>
          <g id="Grupo_1103054" data-name="Grupo 1103054">
            <path id="Trazado_877966" data-name="Trazado 877966" d="M25.845,37.854a4.724,4.724,0,0,0-.687-.056H22.641v9.613h3.2V37.854Z" fill="#fc657e"/>
          </g>
          <g id="Grupo_1103055" data-name="Grupo 1103055">
            <path id="Trazado_877967" data-name="Trazado 877967" d="M12.154,37.854v9.557h3.2V37.8H12.841a4.687,4.687,0,0,0-.687.055Z" fill="#fc657e"/>
          </g>
          <g id="Grupo_1103056" data-name="Grupo 1103056">
            <path id="Trazado_877968" data-name="Trazado 877968" d="M23.743,54.111H14.257a1.615,1.615,0,0,0-1.611,1.611v1.594H25.353V55.721A1.616,1.616,0,0,0,23.743,54.111Z" fill="#f98fa6"/>
          </g>
          <g id="Grupo_1103057" data-name="Grupo 1103057">
            <path id="Trazado_877969" data-name="Trazado 877969" d="M36.732,18.406l1.125-1.855L33.5,10.189a3.216,3.216,0,0,0-5.409.156l-4.411,7.321H27a1.808,1.808,0,0,1,1.412.679l1.008,1.26a1.808,1.808,0,0,0,1.412.679h1.959a1.808,1.808,0,0,1,1.378.637l2.349,2.764L39,19.6H37.4A.786.786,0,0,1,36.732,18.406Z" fill="#dae6f1"/>
          </g>
          <g id="Grupo_1103058" data-name="Grupo 1103058">
            <path id="Trazado_877970" data-name="Trazado 877970" d="M38.214,1.616A2.04,2.04,0,0,1,36.592.02c0-.026-.079-.026-.079,0a2.04,2.04,0,0,1-1.623,1.6c-.026,0-.026.052,0,.079a2.04,2.04,0,0,1,1.623,1.6c0,.026.079.026.079,0a2.04,2.04,0,0,1,1.623-1.6c.026-.026.026-.079,0-.079Z" fill="#fc657e"/>
          </g>
          <g id="Grupo_1103059" data-name="Grupo 1103059">
            <path id="Trazado_877971" data-name="Trazado 877971" d="M54.964,10.6h.6v.6a.827.827,0,0,0,.837.838.838.838,0,0,0,.837-.811V10.6h.6a.827.827,0,0,0,.837-.838.838.838,0,0,0-.811-.837h-.628v-.6a.827.827,0,0,0-.837-.837.838.838,0,0,0-.837.811v.628h-.6a.827.827,0,0,0-.837.837.811.811,0,0,0,.837.838h0Z" fill="#70d6f9"/>
          </g>
          <g id="Grupo_1103060" data-name="Grupo 1103060">
            <circle id="Elipse_11528" data-name="Elipse 11528" cx="0.89" cy="0.89" r="0.89" transform="translate(11.781 8.768)" fill="#87d147"/>
          </g>
          <g id="Grupo_1103061" data-name="Grupo 1103061">
            <circle id="Elipse_11529" data-name="Elipse 11529" cx="0.89" cy="0.89" r="0.89" transform="translate(62.031 15.441)" fill="#f5c84c"/>
          </g>
          <g id="Grupo_1103062" data-name="Grupo 1103062">
            <path id="Trazado_877972" data-name="Trazado 877972" d="M2.83,17.064a2.9,2.9,0,0,0,2.329-2.277c0-.052.1-.052.1,0a2.9,2.9,0,0,0,2.329,2.277c.052,0,.052.079,0,.1a2.9,2.9,0,0,0-2.329,2.277c0,.052-.1.052-.1,0A2.9,2.9,0,0,0,2.83,17.169C2.778,17.143,2.778,17.064,2.83,17.064Z" fill="#f5c84c"/>
          </g>
          <g id="Grupo_1103063" data-name="Grupo 1103063">
            <path id="Trazado_877973" data-name="Trazado 877973" d="M61.266,26.254H54.4a1.284,1.284,0,0,1-1.1-1.95l3.435-5.665a1.284,1.284,0,0,1,2.2,0L62.363,24.3a1.284,1.284,0,0,1-1.1,1.95Zm-6.826-1.309h6.782L57.83,19.353Zm2.853-5.967h0Z"/>
          </g>
          <g id="Grupo_1103064" data-name="Grupo 1103064">
            <path id="Trazado_877974" data-name="Trazado 877974" d="M65.715,40.965H49.946a1.284,1.284,0,0,1-1.1-1.95l3.894-6.421a.654.654,0,0,1,1.119.679L49.99,39.657H65.672L61.811,33.29a.654.654,0,0,1,1.119-.679l3.884,6.4a1.284,1.284,0,0,1-1.1,1.95Z"/>
          </g>
          <g id="Grupo_1103065" data-name="Grupo 1103065">
            <path id="Trazado_877975" data-name="Trazado 877975" d="M63.163,33.335H52.5a1.284,1.284,0,0,1-1.1-1.95L55,25.454a.654.654,0,0,1,1.119.679l-3.574,5.893H63.12l-3.566-5.881a.654.654,0,0,1,1.119-.679l3.589,5.919a1.284,1.284,0,0,1-1.1,1.95Z"/>
          </g>
          <g id="Grupo_1103066" data-name="Grupo 1103066">
            <path id="Trazado_877976" data-name="Trazado 877976" d="M45.981,20.254H37.4a1.44,1.44,0,0,1-1.232-2.187L40.461,11a1.43,1.43,0,0,1,1.232-.693h0A1.43,1.43,0,0,1,42.924,11l4.288,7.072a1.44,1.44,0,0,1-1.232,2.187Zm-4.4-8.58-4.288,7.072a.132.132,0,0,0,.113.2h8.577a.132.132,0,0,0,.113-.2L41.8,11.673a.131.131,0,0,0-.225,0Z"/>
          </g>
          <g id="Grupo_1103067" data-name="Grupo 1103067">
            <path id="Trazado_877977" data-name="Trazado 877977" d="M48.35,29.092H35.035A1.44,1.44,0,0,1,33.8,26.905l4.5-7.421a.654.654,0,0,1,1.119.679l-4.5,7.421a.132.132,0,0,0,.113.2H48.35a.132.132,0,0,0,.113-.2L43.986,20.2a.654.654,0,0,1,1.119-.679l4.476,7.382a1.44,1.44,0,0,1-1.232,2.187Z"/>
          </g>
          <g id="Grupo_1103068" data-name="Grupo 1103068">
            <path id="Trazado_877978" data-name="Trazado 877978" d="M51.508,36.27a.654.654,0,0,1-.56-.315l-4.225-6.968a.654.654,0,0,1,1.119-.679l4.225,6.968a.655.655,0,0,1-.559.994Z"/>
          </g>
          <g id="Grupo_1103069" data-name="Grupo 1103069">
            <path id="Trazado_877979" data-name="Trazado 877979" d="M50.075,38.618H31.85a1.44,1.44,0,0,1-1.232-2.187l4.923-8.119a.654.654,0,0,1,1.119.679L31.737,37.11a.132.132,0,0,0,.113.2H50.075a.654.654,0,1,1,0,1.308Z"/>
          </g>
          <g id="Grupo_1103071" data-name="Grupo 1103071">
            <g id="Grupo_1103070" data-name="Grupo 1103070">
              <path id="Trazado_877980" data-name="Trazado 877980" d="M65.3,67H31.677a.654.654,0,1,1,0-1.309H65.3a.389.389,0,0,0,.388-.389V50.25h-6.6a4.823,4.823,0,0,0-3.833,1.874l-.355.457a6.125,6.125,0,0,1-4.866,2.38H42.666A4.878,4.878,0,0,0,38.782,56.9l-.62.827a6.155,6.155,0,0,1-4.527,2.45.654.654,0,1,1-.085-1.306,4.848,4.848,0,0,0,3.566-1.929l.62-.827a6.193,6.193,0,0,1,4.931-2.466h7.375a4.823,4.823,0,0,0,3.833-1.874l.355-.457a6.124,6.124,0,0,1,4.866-2.38h7.251A.654.654,0,0,1,67,49.6V65.3A1.7,1.7,0,0,1,65.3,67Z"/>
            </g>
          </g>
          <g id="Grupo_1103072" data-name="Grupo 1103072">
            <path id="Trazado_877981" data-name="Trazado 877981" d="M56.386,50.749a.654.654,0,0,1-.654-.654V40.681a.654.654,0,0,1,1.309,0v9.413A.654.654,0,0,1,56.386,50.749Z"/>
          </g>
          <g id="Grupo_1103073" data-name="Grupo 1103073">
            <path id="Trazado_877982" data-name="Trazado 877982" d="M59.275,50a.654.654,0,0,1-.654-.654V40.681a.654.654,0,0,1,1.309,0V49.35A.654.654,0,0,1,59.275,50Z"/>
          </g>
          <g id="Grupo_1103074" data-name="Grupo 1103074">
            <path id="Trazado_877983" data-name="Trazado 877983" d="M43.5,54.765a.654.654,0,0,1-.654-.654V38.32a.654.654,0,0,1,1.309,0V54.11A.654.654,0,0,1,43.5,54.765Z"/>
          </g>
          <g id="Grupo_1103075" data-name="Grupo 1103075">
            <path id="Trazado_877984" data-name="Trazado 877984" d="M39.889,55.561a.654.654,0,0,1-.654-.654V38.276a.654.654,0,0,1,1.309,0v16.63a.654.654,0,0,1-.654.654Z"/>
          </g>
          <g id="Grupo_1103076" data-name="Grupo 1103076">
            <path id="Trazado_877985" data-name="Trazado 877985" d="M6.322,67H1.7A1.7,1.7,0,0,1,0,65.3V45.67a.654.654,0,0,1,.654-.654H7.841a.654.654,0,0,1,0,1.309H1.309V65.3a.389.389,0,0,0,.388.389H6.322a.654.654,0,0,1,0,1.309Z"/>
          </g>
          <g id="Grupo_1103077" data-name="Grupo 1103077">
            <path id="Trazado_877986" data-name="Trazado 877986" d="M66.346,50.25a.654.654,0,0,1-.654-.654V46.713a.389.389,0,0,0-.388-.389H59.628a.654.654,0,0,1,0-1.309H65.3a1.7,1.7,0,0,1,1.7,1.7V49.6A.654.654,0,0,1,66.346,50.25Z"/>
          </g>
          <g id="Grupo_1103078" data-name="Grupo 1103078">
            <path id="Trazado_877987" data-name="Trazado 877987" d="M26.168,67H11.831a4.414,4.414,0,0,1-4.409-4.409V42.563a5.426,5.426,0,0,1,5.419-5.419H25.158a5.426,5.426,0,0,1,5.419,5.419V62.591A4.414,4.414,0,0,1,26.168,67ZM12.841,38.452A4.115,4.115,0,0,0,8.73,42.563V62.591a3.1,3.1,0,0,0,3.1,3.1H26.168a3.1,3.1,0,0,0,3.1-3.1V42.563a4.115,4.115,0,0,0-4.111-4.111Z"/>
          </g>
          <g id="Grupo_1103079" data-name="Grupo 1103079">
            <path id="Trazado_877988" data-name="Trazado 877988" d="M22.06,51.561h-6.12a.654.654,0,0,1,0-1.309h6.12a.654.654,0,0,1,0,1.309Z"/>
          </g>
          <g id="Grupo_1103080" data-name="Grupo 1103080">
            <path id="Trazado_877989" data-name="Trazado 877989" d="M11.831,67H6.322a2.4,2.4,0,0,1-2.4-2.4V59.058a2.4,2.4,0,0,1,2.4-2.4H7.884a.654.654,0,1,1,0,1.309H6.322a1.089,1.089,0,0,0-1.088,1.088V64.6a1.089,1.089,0,0,0,1.088,1.088h5.508a.654.654,0,1,1,0,1.309Z"/>
          </g>
          <g id="Grupo_1103081" data-name="Grupo 1103081">
            <path id="Trazado_877990" data-name="Trazado 877990" d="M31.677,67H26.168a.654.654,0,0,1,0-1.309h5.508A1.089,1.089,0,0,0,32.765,64.6V59.058a1.089,1.089,0,0,0-1.088-1.088h-1.47a.654.654,0,0,1,0-1.309h1.47a2.4,2.4,0,0,1,2.4,2.4V64.6A2.4,2.4,0,0,1,31.677,67Z"/>
          </g>
          <g id="Grupo_1103082" data-name="Grupo 1103082">
            <path id="Trazado_877991" data-name="Trazado 877991" d="M22.679,38.452H15.32a.654.654,0,0,1-.653-.689,4.338,4.338,0,0,1,8.666,0,.654.654,0,0,1-.654.689ZM16.09,37.144h5.82a3.03,3.03,0,0,0-5.82,0Z"/>
          </g>
          <g id="Grupo_1103083" data-name="Grupo 1103083">
            <path id="Trazado_877992" data-name="Trazado 877992" d="M56.052,46.324H43.838a.654.654,0,0,1,0-1.309H56.052a.654.654,0,0,1,0,1.309Z"/>
          </g>
          <g id="Grupo_1103084" data-name="Grupo 1103084">
            <path id="Trazado_877993" data-name="Trazado 877993" d="M.654,46.324A.654.654,0,0,1,0,45.67V39.31A4.6,4.6,0,0,1,1.3,36.1l4.5-4.66a7.325,7.325,0,0,1,2.8-1.8.654.654,0,0,1,.438,1.233,6.01,6.01,0,0,0-2.3,1.479l-4.5,4.66a3.3,3.3,0,0,0-.929,2.3v6.36a.654.654,0,0,1-.654.654Z"/>
          </g>
          <g id="Grupo_1103085" data-name="Grupo 1103085">
            <path id="Trazado_877994" data-name="Trazado 877994" d="M20.442,23.7a.655.655,0,0,1-.56-.992l7.652-12.7a3.871,3.871,0,0,1,6.51-.188L38.3,16.033a.654.654,0,1,1-1.08.739l-4.252-6.214a2.562,2.562,0,0,0-4.309.124L21,23.383a.654.654,0,0,1-.561.317Z"/>
          </g>
          <g id="Grupo_1103086" data-name="Grupo 1103086">
            <path id="Trazado_877995" data-name="Trazado 877995" d="M22.887,30.883H8.334a3.914,3.914,0,0,1-2.764-1.16,3.756,3.756,0,0,1,.137-5.434,3.806,3.806,0,0,1,2.85-.986.045.045,0,0,0,.029-.006,5.751,5.751,0,0,1,10.525-.874.042.042,0,0,0,.027.022,4.247,4.247,0,0,1,4.088,1.982.042.042,0,0,0,.032.014,3.229,3.229,0,0,1-.368,6.443ZM8.267,24.6a2.5,2.5,0,0,0-1.678.655,2.459,2.459,0,0,0-.807,1.8A2.431,2.431,0,0,0,6.5,28.8a2.6,2.6,0,0,0,1.833.772H22.887a1.958,1.958,0,0,0,1.976-1.886,1.927,1.927,0,0,0-1.732-1.945,1.335,1.335,0,0,1-1.02-.629h0a2.933,2.933,0,0,0-2.823-1.369,1.331,1.331,0,0,1-1.331-.705,4.444,4.444,0,0,0-8.133.677,1.324,1.324,0,0,1-1.369.89c-.063,0-.125-.007-.187-.007Z"/>
          </g>
          <g id="Grupo_1103087" data-name="Grupo 1103087">
            <path id="Trazado_877996" data-name="Trazado 877996" d="M26.168,48.065H11.831a4.414,4.414,0,0,1-4.409-4.409.654.654,0,0,1,1.309,0,3.1,3.1,0,0,0,3.1,3.1H26.168a3.1,3.1,0,0,0,3.1-3.1.654.654,0,0,1,1.309,0,4.414,4.414,0,0,1-4.409,4.409Z"/>
          </g>
          <g id="Grupo_1103088" data-name="Grupo 1103088">
            <path id="Trazado_877997" data-name="Trazado 877997" d="M23.743,63.8H14.257a2.267,2.267,0,0,1-2.265-2.265V55.721a2.267,2.267,0,0,1,2.265-2.265h9.486a2.267,2.267,0,0,1,2.265,2.265v5.809A2.267,2.267,0,0,1,23.743,63.8Zm-9.486-9.03a.957.957,0,0,0-.956.956v5.809a.958.958,0,0,0,.956.956h9.486a.957.957,0,0,0,.956-.956V55.721a.957.957,0,0,0-.956-.956Z"/>
          </g>
          <g id="Grupo_1103089" data-name="Grupo 1103089">
            <path id="Trazado_877998" data-name="Trazado 877998" d="M25.845,47.785a.654.654,0,0,1-.654-.654V38.167a.654.654,0,0,1,1.309,0v8.964A.654.654,0,0,1,25.845,47.785Z"/>
          </g>
          <g id="Grupo_1103090" data-name="Grupo 1103090">
            <path id="Trazado_877999" data-name="Trazado 877999" d="M22.641,47.785a.654.654,0,0,1-.654-.654V38.167a.654.654,0,0,1,1.309,0v8.964A.654.654,0,0,1,22.641,47.785Z"/>
          </g>
          <g id="Grupo_1103091" data-name="Grupo 1103091">
            <path id="Trazado_878000" data-name="Trazado 878000" d="M15.358,47.785a.654.654,0,0,1-.654-.654V38.189a.654.654,0,1,1,1.309,0v8.942A.654.654,0,0,1,15.358,47.785Z"/>
          </g>
          <g id="Grupo_1103092" data-name="Grupo 1103092">
            <path id="Trazado_878001" data-name="Trazado 878001" d="M12.154,47.785a.654.654,0,0,1-.654-.654V38.167a.654.654,0,0,1,1.309,0v8.964A.654.654,0,0,1,12.154,47.785Z"/>
          </g>
          <g id="Grupo_1103093" data-name="Grupo 1103093">
            <path id="Trazado_878002" data-name="Trazado 878002" d="M25.038,57.97H12.966a.654.654,0,1,1,0-1.309H25.038a.654.654,0,0,1,0,1.309Z"/>
          </g>
          <g id="Grupo_1103094" data-name="Grupo 1103094">
            <path id="Trazado_878003" data-name="Trazado 878003" d="M36.429,24.229a.653.653,0,0,1-.5-.231l-2.256-2.654a1.152,1.152,0,0,0-.879-.406H30.836a2.45,2.45,0,0,1-1.923-.924L27.9,18.753a1.148,1.148,0,0,0-.9-.433h-3.22a.654.654,0,0,1,0-1.309H27a2.45,2.45,0,0,1,1.923.924l1.008,1.26a1.148,1.148,0,0,0,.9.433h1.959a2.458,2.458,0,0,1,1.876.868l2.256,2.654a.655.655,0,0,1-.5,1.078Z"/>
          </g>
        </g>
      </g>
    </g>
  </g>
</svg>
