<svg xmlns="http://www.w3.org/2000/svg" xmlns:xlink="http://www.w3.org/1999/xlink" width="97.92" height="107" viewBox="0 0 97.92 107">
  <defs>
    <clipPath id="clip-path">
      <rect id="Rectángulo_403805" data-name="Rectángulo 403805" width="70" height="70" transform="translate(345.19 873)" fill="#fff" stroke="#707070" stroke-width="1"/>
    </clipPath>
  </defs>
  <g id="Grupo_1103320" data-name="Grupo 1103320" transform="translate(-331.19 -859.501)">
    <path id="Trazado_876162" data-name="Trazado 876162" d="M-17834.732-9565.178v97.92h81.432l25.568-50.035-25.568-47.885Z" transform="translate(-9136.067 18694.234) rotate(90)" fill="#ffa06f"/>
    <g id="Enmascarar_grupo_1098694" data-name="Enmascarar grupo 1098694" clip-path="url(#clip-path)">
      <g id="estadio" transform="translate(345.19 873)">
        <g id="Grupo_1103329" data-name="Grupo 1103329">
          <path id="Trazado_878640" data-name="Trazado 878640" d="M18.61,14.208l-7.748-2.75v6.1l7.748-2.75A.321.321,0,0,0,18.61,14.208Z" fill="#ff4f6d"/>
          <path id="Trazado_878641" data-name="Trazado 878641" d="M66.9,14.208l-7.748-2.75v6.1l7.748-2.75A.321.321,0,0,0,66.9,14.208Z" fill="#ff4f6d"/>
          <path id="Trazado_878642" data-name="Trazado 878642" d="M42.748,11.708,35,8.958v6.1l7.748-2.75A.321.321,0,0,0,42.748,11.708Z" fill="#ff4f6d"/>
        </g>
        <ellipse id="Elipse_11554" data-name="Elipse 11554" cx="33.872" cy="7.699" rx="33.872" ry="7.699" transform="translate(1.128 45.644)" fill="#2ecca6"/>
        <path id="Trazado_878643" data-name="Trazado 878643" d="M35,45.643q-1.528,0-3.021.031c17.291.348,30.85,3.648,30.85,7.669s-13.559,7.321-30.85,7.669q1.493.03,3.021.031c18.707,0,33.872-3.447,33.872-7.7S53.707,45.643,35,45.643Z" fill="#2ca888"/>
        <path id="Trazado_878644" data-name="Trazado 878644" d="M68.976,29.023H1.024L6.414,52.4h.014C6.854,54.661,21.292,56.879,35,56.879S63.692,54.661,64.118,52.4h.014Z" fill="#e8e7d9"/>
        <path id="Trazado_878645" data-name="Trazado 878645" d="M62.765,29.023,57.456,54.989c3.915-.758,6.489-1.668,6.662-2.585h.014l4.844-23.381Z" fill="#d1cfbd"/>
        <ellipse id="Elipse_11555" data-name="Elipse 11555" cx="33.976" cy="8.439" rx="33.976" ry="8.439" transform="translate(1.024 20.584)" fill="#f9c861"/>
        <path id="Trazado_878646" data-name="Trazado 878646" d="M35,20.584q-1.527,0-3.02.033c17.349.38,30.956,4,30.956,8.405S49.329,37.048,31.98,37.428q1.493.033,3.02.033c18.765,0,33.976-3.778,33.976-8.439S53.765,20.584,35,20.584Z" fill="#f3a656"/>
        <path id="Trazado_878647" data-name="Trazado 878647" d="M35,32.13c-9.33,0-16.894,1.879-16.894,4.2,0,.007,0,.013,0,.02A121.491,121.491,0,0,0,35,37.461a121.491,121.491,0,0,0,16.892-1.115c0-.007,0-.013,0-.02C51.893,34.009,44.33,32.13,35,32.13Z" fill="#2ecca6"/>
        <path id="Trazado_878648" data-name="Trazado 878648" d="M40.049,47.705h-10.1a1.458,1.458,0,0,0-1.458,1.458v7.558c1.927.092,3.887.146,5.837.157l.67,0h0l.671,0c1.94-.01,3.9-.064,5.836-.155v-7.56A1.458,1.458,0,0,0,40.049,47.705Z" fill="#f3a656"/>
        <path id="Trazado_878649" data-name="Trazado 878649" d="M22.706,43.694c1.259.12,2.56.223,3.865.305l.065,0a1.024,1.024,0,0,0,.063-2.046c-1.283-.081-2.561-.182-3.8-.3a1.024,1.024,0,1,0-.195,2.038Z"/>
        <path id="Trazado_878650" data-name="Trazado 878650" d="M43.364,44l.065,0c1.306-.082,2.606-.185,3.865-.305a1.024,1.024,0,1,0-.195-2.038c-1.237.118-2.515.219-3.8.3A1.024,1.024,0,0,0,43.364,44Z"/>
        <path id="Trazado_878651" data-name="Trazado 878651" d="M33.064,44.245c.641.009,1.293.013,1.936.013s1.295,0,1.936-.013a1.024,1.024,0,0,0-.028-2.048c-1.263.018-2.552.018-3.816,0a1.024,1.024,0,0,0-.028,2.048Z"/>
        <path id="Trazado_878652" data-name="Trazado 878652" d="M53.591,42.884a1.038,1.038,0,0,0,.166-.013c1.336-.217,2.624-.461,3.83-.723a1.024,1.024,0,1,0-.435-2c-1.171.255-2.424.491-3.724.7a1.024,1.024,0,0,0,.163,2.035Z"/>
        <path id="Trazado_878653" data-name="Trazado 878653" d="M12.414,42.148c1.2.262,2.493.505,3.83.723a1.023,1.023,0,0,0,1.175-.846,1.024,1.024,0,0,0-.846-1.175c-1.3-.212-2.554-.448-3.724-.7a1.024,1.024,0,0,0-.435,2Z"/>
        <path id="Trazado_878654" data-name="Trazado 878654" d="M43.571,50.721a1.024,1.024,0,0,0,1.021.96l.065,0c1.306-.082,2.606-.185,3.865-.305a1.024,1.024,0,1,0-.195-2.038c-1.237.118-2.515.219-3.8.3A1.024,1.024,0,0,0,43.571,50.721Z"/>
        <path id="Trazado_878655" data-name="Trazado 878655" d="M21.477,51.374c1.259.12,2.56.223,3.865.305l.065,0a1.024,1.024,0,0,0,.063-2.046c-1.283-.081-2.561-.182-3.8-.3a1.024,1.024,0,1,0-.195,2.038Z"/>
        <path id="Trazado_878656" data-name="Trazado 878656" d="M54.656,48.529a1.024,1.024,0,0,0,.163,2.035,1.038,1.038,0,0,0,.166-.013c1.336-.217,2.624-.461,3.83-.723a1.024,1.024,0,1,0-.435-2C57.21,48.082,55.957,48.318,54.656,48.529Z"/>
        <path id="Trazado_878657" data-name="Trazado 878657" d="M11.185,49.828c1.2.262,2.493.505,3.83.723A1.023,1.023,0,0,0,16.19,49.7a1.024,1.024,0,0,0-.846-1.175c-1.3-.212-2.554-.448-3.724-.7a1.024,1.024,0,0,0-.435,2Z"/>
        <path id="Trazado_878658" data-name="Trazado 878658" d="M65.875,49.037l3.9-18.839A3.267,3.267,0,0,0,70,29.023c0-1.528-1.068-2.93-3.175-4.168a20.939,20.939,0,0,0-3.458-1.57l-.035-.013q-1.436-.517-3.162-.979h0V18.286l7.066-2.508a1.345,1.345,0,0,0,0-2.535l-7.748-2.75a1.024,1.024,0,0,0-1.366.965V21.79h0a107.1,107.1,0,0,0-22.1-2.226V15.786l7.066-2.508a1.345,1.345,0,0,0,0-2.535h0l-7.748-2.75a1.024,1.024,0,0,0-1.366.965V19.564h0a107.1,107.1,0,0,0-22.1,2.225l.009,0v-3.5l7.066-2.508a1.345,1.345,0,0,0,0-2.535L11.2,10.493a1.024,1.024,0,0,0-1.366.965V22.291h0a27.46,27.46,0,0,0-6.663,2.563C1.068,26.092,0,27.494,0,29.023a3.289,3.289,0,0,0,.272,1.3L4.544,48.849C1.6,50.136.1,51.645.1,53.343.1,56,3.71,58.169,10.822,59.786A114.39,114.39,0,0,0,35,62.066a114.4,114.4,0,0,0,24.178-2.28C66.289,58.169,69.9,56,69.9,53.343,69.9,51.727,68.543,50.28,65.875,49.037Zm-5.7-36.129,4.515,1.6-4.515,1.6Zm-24.149-2.5,4.515,1.6-4.515,1.6Zm-24.138,2.5,4.515,1.6-4.515,1.6ZM58.778,24.049q.985.245,1.884.51l-3.49,2.258a1.024,1.024,0,1,0,1.112,1.719l4.863-3.146a17.918,17.918,0,0,1,2.641,1.23c1.4.82,2.165,1.673,2.165,2.4a1.393,1.393,0,0,1-.2.678,6.216,6.216,0,0,1-2.65,2.1A30.716,30.716,0,0,1,58.778,34c-.172.043-.346.084-.52.126l-.177.042-.333.077-.147.034c-1.557.351-3.231.662-5,.932a4.729,4.729,0,0,0-2.042-1.673l3.7-2.4a1.024,1.024,0,0,0-1.112-1.719l-4.971,3.216q-.472-.138-.99-.267a37.411,37.411,0,0,0-3.864-.724l6.516-9.183A75.416,75.416,0,0,1,58.778,24.049ZM36.024,21.612c4,.029,7.875.231,11.492.59l-6.509,9.174c-1.586-.147-3.261-.235-4.983-.26ZM35,33.154a50.88,50.88,0,0,1,11.7,1.2,13.062,13.062,0,0,1,3.324,1.209l-.042.005q-.4.049-.8.095l-.17.019-.665.074-.208.022-.692.071-.137.014q-1.328.129-2.7.23H44.6q-1.849.136-3.755.219l-.038,0q-.466.02-.935.037h-.01q-.941.034-1.891.055l-.147,0-.746.013-.252,0-.672.007-.256,0q-.45,0-.9,0t-.9,0l-.258,0-.664-.007-.261,0-.73-.013-.163,0q-.932-.021-1.857-.054l-.1,0-.832-.033-.113,0q-1.39-.061-2.753-.15l-.113-.008-.78-.054-.145-.011q-.421-.031-.838-.065l-.037,0q-.434-.035-.864-.074l-.2-.018-.611-.057-.321-.031-.484-.049-.359-.038-.456-.05-.682-.079-.364-.043-.136-.017A13.061,13.061,0,0,1,23.3,34.353,50.874,50.874,0,0,1,35,33.154ZM33.976,21.612v9.5c-1.725.025-3.4.114-4.992.261L22.475,22.2C26.094,21.843,29.974,21.641,33.976,21.612ZM2.315,29.81c-.018-.029-.037-.058-.054-.086l-.009-.017c-.027-.048-.052-.1-.074-.143a1.3,1.3,0,0,1-.13-.54c0-.729.769-1.582,2.165-2.4A17.919,17.919,0,0,1,6.854,25.39l4.864,3.147a1.024,1.024,0,0,0,1.112-1.719L9.34,24.559q.9-.264,1.882-.51a75.405,75.405,0,0,1,8.924-1.589l6.516,9.183a37.344,37.344,0,0,0-3.855.723q-.517.129-.988.267l-4.97-3.215a1.024,1.024,0,0,0-1.112,1.719l3.7,2.4A4.732,4.732,0,0,0,17.4,35.206c-1.719-.262-3.351-.564-4.872-.9L12,34.183l-.01,0-.509-.121-.011,0a31.831,31.831,0,0,1-6.51-2.226l-.1-.051-.047-.025c-.211-.109-.412-.219-.6-.33A5.63,5.63,0,0,1,2.315,29.81Zm2.214,9.86c.478.224.995.443,1.544.654a1.024,1.024,0,0,0,.735-1.911c-.677-.26-1.3-.532-1.843-.807a1.021,1.021,0,0,0-.912,0l-1.04-4.51c.055.033.107.067.163.1a29.257,29.257,0,0,0,7.553,2.793l.187.045h0q.289.071.583.139l.015,0A103.964,103.964,0,0,0,32.62,38.465h.2l.579.008.209,0h.148l.2,0,.238,0h1.615l.235,0,.2,0h.163l.2,0,.569-.008H37.4a104.758,104.758,0,0,0,20.8-2.225l.363-.084.193-.046c.176-.042.351-.084.522-.127h0c.189-.047.374-.094.556-.142l.063-.016q.568-.148,1.1-.3l.03-.009q.256-.074.5-.148l.086-.026.409-.127.158-.05.3-.1.242-.081h0a22.269,22.269,0,0,0,4.11-1.8c.1-.056.186-.113.277-.17l-.973,4.694a1.023,1.023,0,0,0-1.094-.11c-.546.276-1.167.547-1.844.807a1.024,1.024,0,1,0,.735,1.911c.66-.254,1.27-.519,1.826-.791l-2.051,9.9h0l-.539,2.6q-.016.041-.028.084c-.4.453-2.823,1.509-9.45,2.462-3.417.491-7.265.855-11.153,1.065V49.163a2.485,2.485,0,0,0-2.482-2.482h-10.1a2.485,2.485,0,0,0-2.482,2.482v6.479c-3.824-.212-7.584-.574-10.9-1.063-6.431-.948-8.776-2-9.153-2.452a1.028,1.028,0,0,0-.039-.113l-.3-1.319Zm35.954,9.494v6.578l-.316.012-.681.024-.547.017-.652.018-.558.012-.637.012-.556.008-.513.005V48.729h4.025A.435.435,0,0,1,40.483,49.163Zm-6.507-.434V55.85l-.5,0-.574-.008-.594-.011-.615-.014-.56-.015-.656-.02-.523-.019-.433-.017V49.163a.435.435,0,0,1,.434-.434Zm31.749,6.709a29.326,29.326,0,0,1-7,2.351A112.332,112.332,0,0,1,35,60.018a112.331,112.331,0,0,1-23.724-2.23,29.32,29.32,0,0,1-7-2.351c-1.349-.725-2.123-1.489-2.123-2.1,0-.943,1.627-1.881,2.861-2.457l.4,1.748a1.031,1.031,0,0,0,.031.106c0,.009.007.017.011.026.009.025.019.05.03.074l0,.007c.31.862,1.358,1.543,3.339,2.183a45.918,45.918,0,0,0,6.746,1.47,130.764,130.764,0,0,0,17.265,1.385H32.9q.712.011,1.419.015h0l.673,0,.676,0,.23,0q.467,0,.936-.01l.412-.006q.627-.01,1.256-.027l.092,0A134.643,134.643,0,0,0,54.693,56.5a49.41,49.41,0,0,0,6.929-1.468c2.073-.649,3.127-1.315,3.435-2.19l.006-.015c.01-.023.02-.046.028-.07s.009-.023.013-.035a1.048,1.048,0,0,0,.03-.111l.313-1.509c2.208,1.113,2.4,1.976,2.4,2.24C67.848,53.949,67.074,54.713,65.725,55.438Z"/>
      </g>
    </g>
  </g>
</svg>
