<svg xmlns="http://www.w3.org/2000/svg" xmlns:xlink="http://www.w3.org/1999/xlink" width="97.92" height="107" viewBox="0 0 97.92 107">
  <defs>
    <clipPath id="clip-path">
      <rect id="Rectángulo_403805" data-name="Rectángulo 403805" width="70" height="70" transform="translate(345.19 873)" fill="#fff" stroke="#707070" stroke-width="1"/>
    </clipPath>
    <clipPath id="clip-path-2">
      <path id="path9169" d="M0-70H70V0H0Z"/>
    </clipPath>
  </defs>
  <g id="Grupo_1103321" data-name="Grupo 1103321" transform="translate(-331.19 -859.502)">
    <path id="Trazado_876162" data-name="Trazado 876162" d="M-17834.732-9565.178v97.92h81.432l25.568-50.035-25.568-47.885Z" transform="translate(-9136.067 18694.234) rotate(90)" fill="#ffa06f"/>
    <g id="Enmascarar_grupo_1098695" data-name="Enmascarar grupo 1098695" clip-path="url(#clip-path)">
      <g id="g9159" transform="translate(345.19 943)">
        <path id="path9161" d="M17.531-13.6H9.467V-40.614h8.064Z" fill="#ffdfcf"/>
        <path id="path9163" d="M14.47-13.6h3.061V-40.614H14.47Z" fill="#ffcebf"/>
        <g id="g9165">
          <g id="g9167" clip-path="url(#clip-path-2)">
            <g id="g9173" transform="translate(18.078 -13.602)">
              <path id="path9175" d="M0,0H-9.158A1.039,1.039,0,0,0-10.2,1.039V4.268H1.039V1.039A1.039,1.039,0,0,0,0,0" fill="#fccd7f"/>
            </g>
            <g id="g9177" transform="translate(18.078 -13.602)">
              <path id="path9179" d="M0,0H-3.185A1.039,1.039,0,0,1-2.147,1.039V4.268H1.039V1.039A1.039,1.039,0,0,0,0,0" fill="#f0b95f"/>
            </g>
            <path id="path9181" d="M17.531-44.881H9.467v4.268h8.064Z" fill="#9dc9eb"/>
            <path id="path9183" d="M14.47-40.614h3.061v-4.268H14.47Z" fill="#7ebae6"/>
            <g id="g9185" transform="translate(7.245 -44.881)">
              <path id="path9187" d="M0,0H2.222V4.3A2.194,2.194,0,0,1,.027,6.5H0A2.194,2.194,0,0,1-2.194,4.3V2.194A2.194,2.194,0,0,1,0,0" fill="#ffcebf"/>
            </g>
            <g id="g9189" transform="translate(19.753 -44.881)">
              <path id="path9191" d="M0,0H-2.222V4.3A2.194,2.194,0,0,0-.027,6.5H0A2.194,2.194,0,0,0,2.194,4.3V2.194A2.194,2.194,0,0,0,0,0" fill="#ffaf9e"/>
            </g>
            <path id="path9193" d="M39.052-13.6H30.988V-40.614h8.064Z" fill="#ffdfcf"/>
            <path id="path9195" d="M35.991-13.6h3.061V-40.614H35.991Z" fill="#ffcebf"/>
            <g id="g9197" transform="translate(39.599 -13.602)">
              <path id="path9199" d="M0,0H-9.158A1.039,1.039,0,0,0-10.2,1.039V4.268H1.039V1.039A1.039,1.039,0,0,0,0,0" fill="#fccd7f"/>
            </g>
            <g id="g9201" transform="translate(39.599 -13.602)">
              <path id="path9203" d="M0,0H-3.185A1.039,1.039,0,0,1-2.147,1.039V4.268H1.039V1.039A1.039,1.039,0,0,0,0,0" fill="#f0b95f"/>
            </g>
            <path id="path9205" d="M39.052-44.881H30.988v4.268h8.064Z" fill="#9dc9eb"/>
            <path id="path9207" d="M39.052-40.614H35.991v-4.267h3.061Z" fill="#7ebae6"/>
            <g id="g9209" transform="translate(28.766 -44.881)">
              <path id="path9211" d="M0,0H2.222V4.3A2.194,2.194,0,0,1,.027,6.5H0A2.194,2.194,0,0,1-2.194,4.3V2.194A2.194,2.194,0,0,1,0,0" fill="#ffcebf"/>
            </g>
            <g id="g9213" transform="translate(41.274 -44.881)">
              <path id="path9215" d="M0,0H-2.222V4.3A2.194,2.194,0,0,0-.027,6.5H0A2.194,2.194,0,0,0,2.194,4.3V2.194A2.194,2.194,0,0,0,0,0" fill="#ffaf9e"/>
            </g>
            <path id="path9217" d="M60.573-13.6H52.509V-40.614h8.064Z" fill="#ffdfcf"/>
            <path id="path9219" d="M57.512-13.6h3.061V-40.614H57.512Z" fill="#ffcebf"/>
            <g id="g9221" transform="translate(61.12 -13.602)">
              <path id="path9223" d="M0,0H-9.158A1.039,1.039,0,0,0-10.2,1.039V4.268H1.039V1.039A1.039,1.039,0,0,0,0,0" fill="#fccd7f"/>
            </g>
            <g id="g9225" transform="translate(61.12 -13.602)">
              <path id="path9227" d="M0,0H-3.185A1.039,1.039,0,0,1-2.147,1.039V4.268H1.039V1.039A1.039,1.039,0,0,0,0,0" fill="#f0b95f"/>
            </g>
            <path id="path9229" d="M60.573-44.881H52.509v4.268h8.064Z" fill="#9dc9eb"/>
            <path id="path9231" d="M57.512-40.614h3.061v-4.268H57.512Z" fill="#7ebae6"/>
            <g id="g9233" transform="translate(50.287 -44.881)">
              <path id="path9235" d="M0,0H2.222V4.3A2.194,2.194,0,0,1,.027,6.5H0A2.194,2.194,0,0,1-2.194,4.3V2.194A2.194,2.194,0,0,1,0,0" fill="#ffcebf"/>
            </g>
            <g id="g9237" transform="translate(62.795 -44.881)">
              <path id="path9239" d="M0,0H-2.222V4.3A2.194,2.194,0,0,0-.027,6.5H0A2.194,2.194,0,0,0,2.194,4.3V2.194A2.194,2.194,0,0,0,0,0" fill="#ffaf9e"/>
            </g>
            <g id="g9241" transform="translate(65.657 -5.337)">
              <path id="path9243" d="M0,0H-61.321V-2.711A1.287,1.287,0,0,1-60.034-4H-1.287A1.287,1.287,0,0,1,0-2.711Z" fill="#ffcebf"/>
            </g>
            <g id="g9245" transform="translate(64.371 -9.335)">
              <path id="path9247" d="M0,0H-3.185A1.287,1.287,0,0,1-1.9,1.287V4H1.287V1.287A1.287,1.287,0,0,0,0,0" fill="#ffaf9e"/>
            </g>
            <g id="g9249" transform="translate(67.891 -5.337)">
              <path id="path9251" d="M0,0H-65.782a1.083,1.083,0,0,0-1.083,1.083V3.042a1.083,1.083,0,0,0,1.083,1.083H0A1.083,1.083,0,0,0,1.083,3.042V1.083A1.083,1.083,0,0,0,0,0" fill="#ffdfcf"/>
            </g>
            <g id="g9253" transform="translate(67.891 -5.337)">
              <path id="path9255" d="M0,0H-3.185A1.083,1.083,0,0,1-2.1,1.083V3.042A1.083,1.083,0,0,1-3.185,4.125H0A1.083,1.083,0,0,0,1.083,3.042V1.083A1.083,1.083,0,0,0,0,0" fill="#ffcebf"/>
            </g>
            <g id="g9257" transform="translate(65.658 -48.88)">
              <path id="path9259" d="M0,0V1.932A2.067,2.067,0,0,1-2.066,4H-59.255a2.066,2.066,0,0,1-2.066-2.067V0Z" fill="#ffcebf"/>
            </g>
            <g id="g9261" transform="translate(38.7 -48.88)">
              <path id="path9263" d="M0,0A7.977,7.977,0,0,1-6.906,3.98,7.976,7.976,0,0,1-13.811,0Z" fill="#ffaf9e"/>
            </g>
            <g id="g9265" transform="translate(62.472 -48.879)">
              <path id="path9267" d="M0,0V1.932A2.066,2.066,0,0,1-2.066,4H1.119A2.066,2.066,0,0,0,3.185,1.932V0Z" fill="#ffaf9e"/>
            </g>
            <g id="g9269" transform="translate(68.975 -53.004)">
              <path id="path9271" d="M0,0V2.708A1.416,1.416,0,0,1-1.416,4.125H-66.533a1.416,1.416,0,0,1-1.416-1.416V0Z" fill="#ffdfcf"/>
            </g>
            <g id="g9273" transform="translate(39.772 -52.877)">
              <path id="path9275" d="M0,0A7.938,7.938,0,0,1-1.072,4H-14.883a7.935,7.935,0,0,1-1.072-4c0-.043,0-.085,0-.127H0C0-.085,0-.043,0,0" fill="#ffcebf"/>
            </g>
            <g id="g9277" transform="translate(65.789 -53.004)">
              <path id="path9279" d="M0,0V2.708A1.417,1.417,0,0,1-1.416,4.125H1.769A1.417,1.417,0,0,0,3.185,2.708V0Z" fill="#ffcebf"/>
            </g>
            <g id="g9281" transform="translate(68.975 -54.949)">
              <path id="path9283" d="M0,0V1.945H-67.949V0a3.038,3.038,0,0,1,1.957-2.839l25.943-9.882a17.06,17.06,0,0,1,12.142,0l25.95,9.884A3.038,3.038,0,0,1,0,0" fill="#ffdfcf"/>
            </g>
            <g id="g9285" transform="translate(67.018 -57.788)">
              <path id="path9287" d="M0,0-25.95-9.884a17.056,17.056,0,0,0-7.662-1.041,17.055,17.055,0,0,1,4.477,1.041L-3.185,0A3.038,3.038,0,0,1-1.229,2.839V4.784H1.957V2.839A3.038,3.038,0,0,0,0,0" fill="#ffcebf"/>
            </g>
            <g id="g9289" transform="translate(68.975 -53.003)">
              <path id="path9291" d="M0,0H-67.949l27.9-10.38a17.06,17.06,0,0,1,12.142,0Z" fill="#a3847e"/>
            </g>
            <g id="g9293" transform="translate(39.77 -53.003)">
              <path id="path9295" d="M0,0H-15.952A7.977,7.977,0,0,1-7.976-7.852,7.978,7.978,0,0,1,0,0" fill="#8e746e"/>
            </g>
            <g id="g9297" transform="translate(41.068 -63.383)">
              <path id="path9299" d="M0,0A17.062,17.062,0,0,0-8.372-.96,17.05,17.05,0,0,1-4.6,0L23.3,10.38h4.6Z" fill="#8e746e"/>
            </g>
            <g id="g9301" transform="translate(42.956 -52.877)">
              <path id="path9303" d="M0,0A7.977,7.977,0,0,1-7.977,7.978,7.977,7.977,0,0,1-15.955,0,7.977,7.977,0,0,1-7.977-7.978,7.977,7.977,0,0,1,0,0" fill="#fccd7f"/>
            </g>
            <g id="g9305" transform="translate(34.979 -60.854)">
              <path id="path9307" d="M0,0A8.012,8.012,0,0,0-1.593.159,7.98,7.98,0,0,1,4.792,7.978,7.98,7.98,0,0,1-1.593,15.8,8.012,8.012,0,0,0,0,15.955,7.977,7.977,0,0,0,7.977,7.978,7.977,7.977,0,0,0,0,0" fill="#f0b95f"/>
            </g>
            <path id="path9309" d="M17.531-13.6H9.467V-40.614h8.064Z" fill="none" stroke="#000" stroke-linecap="round" stroke-linejoin="round" stroke-miterlimit="10" stroke-width="2.051"/>
            <g id="g9311" transform="translate(18.078 -13.602)">
              <path id="path9313" d="M0,0H-9.158A1.039,1.039,0,0,0-10.2,1.039V4.268H1.039V1.039A1.039,1.039,0,0,0,0,0Z" fill="none" stroke="#000" stroke-linecap="round" stroke-linejoin="round" stroke-miterlimit="10" stroke-width="2.051"/>
            </g>
            <path id="path9315" d="M17.531-44.881H9.467v4.268h8.064Z" fill="none" stroke="#000" stroke-linecap="round" stroke-linejoin="round" stroke-miterlimit="10" stroke-width="2.051"/>
            <g id="g9317" transform="translate(7.245 -44.881)">
              <path id="path9319" d="M0,0H2.222V4.3A2.194,2.194,0,0,1,.027,6.5H0A2.194,2.194,0,0,1-2.194,4.3V2.194A2.194,2.194,0,0,1,0,0Z" fill="none" stroke="#000" stroke-linecap="round" stroke-linejoin="round" stroke-miterlimit="10" stroke-width="2.051"/>
            </g>
            <g id="g9321" transform="translate(19.753 -44.881)">
              <path id="path9323" d="M0,0H-2.222V4.3A2.194,2.194,0,0,0-.027,6.5H0A2.194,2.194,0,0,0,2.194,4.3V2.194A2.194,2.194,0,0,0,0,0Z" fill="none" stroke="#000" stroke-linecap="round" stroke-linejoin="round" stroke-miterlimit="10" stroke-width="2.051"/>
            </g>
            <g id="g9325" transform="translate(13.499 -40.614)">
              <path id="path9327" d="M0,0V27.012" fill="none" stroke="#000" stroke-linecap="round" stroke-linejoin="round" stroke-miterlimit="10" stroke-width="2.051"/>
            </g>
            <path id="path9329" d="M39.052-13.6H30.988V-40.614h8.064Z" fill="none" stroke="#000" stroke-linecap="round" stroke-linejoin="round" stroke-miterlimit="10" stroke-width="2.051"/>
            <g id="g9331" transform="translate(39.599 -13.602)">
              <path id="path9333" d="M0,0H-9.158A1.039,1.039,0,0,0-10.2,1.039V4.268H1.039V1.039A1.039,1.039,0,0,0,0,0Z" fill="none" stroke="#000" stroke-linecap="round" stroke-linejoin="round" stroke-miterlimit="10" stroke-width="2.051"/>
            </g>
            <g id="g9335" transform="translate(28.766 -44.881)">
              <path id="path9337" d="M0,0H2.222V4.3A2.194,2.194,0,0,1,.027,6.5H0A2.194,2.194,0,0,1-2.194,4.3V2.194A2.194,2.194,0,0,1,0,0Z" fill="none" stroke="#000" stroke-linecap="round" stroke-linejoin="round" stroke-miterlimit="10" stroke-width="2.051"/>
            </g>
            <g id="g9339" transform="translate(41.274 -44.881)">
              <path id="path9341" d="M0,0H-2.222V4.3A2.194,2.194,0,0,0-.027,6.5H0A2.194,2.194,0,0,0,2.194,4.3V2.194A2.194,2.194,0,0,0,0,0Z" fill="none" stroke="#000" stroke-linecap="round" stroke-linejoin="round" stroke-miterlimit="10" stroke-width="2.051"/>
            </g>
            <g id="g9343" transform="translate(35.02 -20.423)">
              <path id="path9345" d="M0,0V6.821" fill="none" stroke="#000" stroke-linecap="round" stroke-linejoin="round" stroke-miterlimit="10" stroke-width="2.051"/>
            </g>
            <g id="g9347" transform="translate(35.02 -40.614)">
              <path id="path9349" d="M0,0V15.328" fill="none" stroke="#000" stroke-linecap="round" stroke-linejoin="round" stroke-miterlimit="10" stroke-width="2.051"/>
            </g>
            <g id="g9351" transform="translate(60.573 -34.341)">
              <path id="path9353" d="M0,0V20.739H-8.064V-6.273H0" fill="none" stroke="#000" stroke-linecap="round" stroke-linejoin="round" stroke-miterlimit="10" stroke-width="2.051"/>
            </g>
            <g id="g9355" transform="translate(61.12 -13.602)">
              <path id="path9357" d="M0,0H-9.158A1.039,1.039,0,0,0-10.2,1.039V4.268H1.039V1.039A1.039,1.039,0,0,0,0,0Z" fill="none" stroke="#000" stroke-linecap="round" stroke-linejoin="round" stroke-miterlimit="10" stroke-width="2.051"/>
            </g>
            <path id="path9359" d="M60.573-44.881H52.509v4.268h8.064Z" fill="none" stroke="#000" stroke-linecap="round" stroke-linejoin="round" stroke-miterlimit="10" stroke-width="2.051"/>
            <g id="g9361" transform="translate(50.287 -44.881)">
              <path id="path9363" d="M0,0H2.222V4.3A2.194,2.194,0,0,1,.027,6.5H0A2.194,2.194,0,0,1-2.194,4.3V2.194A2.194,2.194,0,0,1,0,0Z" fill="none" stroke="#000" stroke-linecap="round" stroke-linejoin="round" stroke-miterlimit="10" stroke-width="2.051"/>
            </g>
            <g id="g9365" transform="translate(62.795 -44.881)">
              <path id="path9367" d="M0,0H-2.222V4.3A2.194,2.194,0,0,0-.027,6.5H0A2.194,2.194,0,0,0,2.194,4.3V2.194A2.194,2.194,0,0,0,0,0Z" fill="none" stroke="#000" stroke-linecap="round" stroke-linejoin="round" stroke-miterlimit="10" stroke-width="2.051"/>
            </g>
            <g id="g9369" transform="translate(56.541 -40.614)">
              <path id="path9371" d="M0,0V27.012" fill="none" stroke="#000" stroke-linecap="round" stroke-linejoin="round" stroke-miterlimit="10" stroke-width="2.051"/>
            </g>
            <g id="g9373" transform="translate(65.657 -5.337)">
              <path id="path9375" d="M0,0H-61.321V-2.711A1.287,1.287,0,0,1-60.034-4H-1.287A1.287,1.287,0,0,1,0-2.711Z" fill="none" stroke="#000" stroke-linecap="round" stroke-linejoin="round" stroke-miterlimit="10" stroke-width="2.051"/>
            </g>
            <g id="g9377" transform="translate(67.891 -5.337)">
              <path id="path9379" d="M0,0H-65.782a1.083,1.083,0,0,0-1.083,1.083V3.042a1.083,1.083,0,0,0,1.083,1.083H0A1.083,1.083,0,0,0,1.083,3.042V1.083A1.083,1.083,0,0,0,0,0Z" fill="none" stroke="#000" stroke-linecap="round" stroke-linejoin="round" stroke-miterlimit="10" stroke-width="2.051"/>
            </g>
            <g id="g9381" transform="translate(4.337 -48.879)">
              <path id="path9383" d="M0,0V1.932A2.066,2.066,0,0,0,2.066,4H59.255a2.066,2.066,0,0,0,2.066-2.066V0" fill="none" stroke="#000" stroke-linecap="round" stroke-linejoin="round" stroke-miterlimit="10" stroke-width="2.051"/>
            </g>
            <g id="g9385" transform="translate(23.027 -48.88)">
              <path id="path9387" d="M0,0H-20.585A1.416,1.416,0,0,1-22-1.416V-4.125H3.977" fill="none" stroke="#000" stroke-linecap="round" stroke-linejoin="round" stroke-miterlimit="10" stroke-width="2.051"/>
            </g>
            <g id="g9389" transform="translate(42.954 -53.005)">
              <path id="path9391" d="M0,0H26.02V2.709A1.416,1.416,0,0,1,24.6,4.125H-1.071" fill="none" stroke="#000" stroke-linecap="round" stroke-linejoin="round" stroke-miterlimit="10" stroke-width="2.051"/>
            </g>
            <g id="g9393" transform="translate(1.025 -53.003)">
              <path id="path9395" d="M0,0V-1.946A3.038,3.038,0,0,1,1.957-4.784L27.9-14.667a17.058,17.058,0,0,1,12.142,0l25.95,9.884a3.038,3.038,0,0,1,1.957,2.839V0" fill="none" stroke="#000" stroke-linecap="round" stroke-linejoin="round" stroke-miterlimit="10" stroke-width="2.051"/>
            </g>
            <g id="g9397" transform="translate(42.954 -53.003)">
              <path id="path9399" d="M0,0H26.02l0,0L-1.887-10.38a17.06,17.06,0,0,0-12.142,0L-41.925,0l0,0h25.978" fill="none" stroke="#000" stroke-linecap="round" stroke-linejoin="round" stroke-miterlimit="10" stroke-width="2.051"/>
            </g>
            <g id="g9401" transform="translate(31.951 -50.626)">
              <path id="path9403" d="M0,0,1.023-5.67a.132.132,0,0,1,.254-.017L2.942-.044a.131.131,0,0,0,.25,0L4.8-5.686a.132.132,0,0,1,.254.014L6.137,0" fill="none" stroke="#000" stroke-linecap="round" stroke-linejoin="round" stroke-miterlimit="10" stroke-width="2.051"/>
            </g>
            <g id="g9405" transform="translate(42.956 -52.877)">
              <path id="path9407" d="M0,0A7.977,7.977,0,0,1-7.977,7.978,7.977,7.977,0,0,1-15.955,0,7.977,7.977,0,0,1-7.977-7.978,7.977,7.977,0,0,1,0,0Z" fill="none" stroke="#000" stroke-linecap="round" stroke-linejoin="round" stroke-miterlimit="10" stroke-width="2.051"/>
            </g>
          </g>
        </g>
      </g>
    </g>
  </g>
</svg>
