<svg xmlns="http://www.w3.org/2000/svg" xmlns:xlink="http://www.w3.org/1999/xlink" width="105.096" height="97.705" viewBox="0 0 105.096 97.705">
  <defs>
    <filter id="Trazado_876162" x="0" y="0" width="105.096" height="97.705" filterUnits="userSpaceOnUse">
      <feOffset dy="3" input="SourceAlpha"/>
      <feGaussianBlur stdDeviation="3" result="blur"/>
      <feFlood flood-opacity="0.161"/>
      <feComposite operator="in" in2="blur"/>
      <feComposite in="SourceGraphic"/>
    </filter>
  </defs>
  <g id="Grupo_1103833" data-name="Grupo 1103833" transform="translate(9 6)">
    <g transform="matrix(1, 0, 0, 1, -9, -6)" filter="url(#Trazado_876162)">
      <path id="Trazado_876162-2" data-name="Trazado 876162" d="M0,0V79.7H66.282L87.095,38.977,66.282,0Z" transform="translate(96.09 85.7) rotate(180)" fill="#ffa06f"/>
    </g>
    <g id="folleto_1_" data-name="folleto (1)" transform="translate(22.482 12.851)">
      <g id="Grupo_1102942" data-name="Grupo 1102942" transform="translate(0.821 0.821)">
        <path id="Trazado_876556" data-name="Trazado 876556" d="M61.924,18.989V55.97a2.049,2.049,0,0,1-2.049,2.049H43.022a3.477,3.477,0,0,0-2.147.748L39.2,60.095,28.549,68.547A3.469,3.469,0,0,1,26.4,69.3H9.549A2.049,2.049,0,0,1,7.5,67.248V30.267a2.049,2.049,0,0,1,2.049-2.049H26.4a3.477,3.477,0,0,0,2.147-.748l2.33-1.85,8.321-6.6,1.674-1.328a3.469,3.469,0,0,1,2.147-.749H59.875a2.049,2.049,0,0,1,2.049,2.049Z" transform="translate(-7.5 -16.94)" fill="#ccd5e3"/>
        <g id="Grupo_1102940" data-name="Grupo 1102940" transform="translate(16.284 41.079)">
          <path id="Trazado_876558" data-name="Trazado 876558" d="M171.626,392.288a3.441,3.441,0,0,0-.943.53L158.357,402.6a3.468,3.468,0,0,1-2.147.749h2.617a3.468,3.468,0,0,0,2.147-.749l12.326-9.781a3.477,3.477,0,0,1,2.147-.748h-2.617A3.427,3.427,0,0,0,171.626,392.288Z" transform="translate(-156.21 -392.07)" fill="#08a9f1"/>
        </g>
        <path id="Trazado_876560" data-name="Trazado 876560" d="M168.154,477.416a3.418,3.418,0,0,1-.943.531v.218h1.413a3.43,3.43,0,0,0,1.2-.218v-1.86Z" transform="translate(-149.722 -425.808)" fill="#739ad6"/>
        <path id="Trazado_876561" data-name="Trazado 876561" d="M205.322,18.93V60.009a3.442,3.442,0,0,0-.943.53L192.053,70.32a3.418,3.418,0,0,1-.943.531V29.772a3.442,3.442,0,0,0,.943-.53l12.326-9.781A3.418,3.418,0,0,1,205.322,18.93Z" transform="translate(-171.004 -18.712)" fill="#8ca7b8"/>
        <path id="Trazado_876563" data-name="Trazado 876563" d="M27.606,117.94v24.287A18.492,18.492,0,0,1,7.5,142.189V120.207a2.049,2.049,0,0,1,2.049-2.049H26.4a3.43,3.43,0,0,0,1.2-.218Z" transform="translate(-7.5 -106.88)" fill="#fcf3e3"/>
        <path id="Trazado_876564" data-name="Trazado 876564" d="M97.76,118.158H96.347v24.069a18.372,18.372,0,0,1-8.714,2.906q.648.045,1.308.046a18.391,18.391,0,0,0,10.023-2.952V117.94A3.428,3.428,0,0,1,97.76,118.158Z" transform="translate(-78.858 -106.88)" fill="#fee8c7"/>
        <path id="Trazado_876565" data-name="Trazado 876565" d="M66.455,212.472l.747.266a1.445,1.445,0,0,0,1.929-1.4l-.022-.793a1.446,1.446,0,0,1,.3-.921l.484-.629a1.445,1.445,0,0,0-.737-2.268l-.761-.224a1.445,1.445,0,0,1-.783-.569l-.448-.654a1.445,1.445,0,0,0-2.384,0l-.448.654a1.445,1.445,0,0,1-.784.569l-.761.224a1.445,1.445,0,0,0-.737,2.268l.484.629a1.445,1.445,0,0,1,.3.921l-.022.793a1.445,1.445,0,0,0,1.929,1.4l.747-.266A1.445,1.445,0,0,1,66.455,212.472Z" transform="translate(-55.808 -184.095)" fill="#56e9cc"/>
        <path id="Trazado_876567" data-name="Trazado 876567" d="M372.964,71.725H364.49a1.175,1.175,0,0,1-1.174-1.174V67.009a1.174,1.174,0,0,1,1.174-1.174h8.474a1.174,1.174,0,0,1,1.174,1.174V70.55A1.174,1.174,0,0,1,372.964,71.725Z" transform="translate(-324.352 -60.481)" fill="#56e9cc"/>
        <path id="Trazado_876569" data-name="Trazado 876569" d="M372.964,162.121H364.49a1.175,1.175,0,0,1-1.174-1.174v-3.541a1.174,1.174,0,0,1,1.174-1.174h8.474a1.174,1.174,0,0,1,1.174,1.174v3.541A1.175,1.175,0,0,1,372.964,162.121Z" transform="translate(-324.352 -140.978)" fill="#56e9cc"/>
      </g>
      <g id="Grupo_1102943" data-name="Grupo 1102943" transform="translate(0 0)">
        <path id="Trazado_876571" data-name="Trazado 876571" d="M53.2,9.44H36.344a4.4,4.4,0,0,0-2.658.927l-12.325,9.78a2.738,2.738,0,0,1-1.638.571H2.871A2.874,2.874,0,0,0,0,23.589v36.98a2.874,2.874,0,0,0,2.871,2.871H19.723a4.29,4.29,0,0,0,2.658-.927l12.325-9.78a2.62,2.62,0,0,1,.718-.4.831.831,0,0,0,.537-.77V11.113a2.626,2.626,0,0,1,.383-.03H53.2a1.229,1.229,0,0,1,1.228,1.228V49.29A1.229,1.229,0,0,1,53.2,50.519H39.065a.821.821,0,0,0,0,1.643H53.2a2.874,2.874,0,0,0,2.871-2.871V12.311A2.874,2.874,0,0,0,53.2,9.44ZM2.871,61.8a1.229,1.229,0,0,1-1.228-1.228V47.018a19.242,19.242,0,0,0,2.369,1.1.86.86,0,0,0,1.06-.474A.821.821,0,0,0,4.6,46.58a17.615,17.615,0,0,1-2.956-1.462V23.589A1.229,1.229,0,0,1,2.871,22.36H19.723q.193,0,.383-.017V45.152a17.591,17.591,0,0,1-9.2,2.587,17.877,17.877,0,0,1-2.466-.171A.821.821,0,1,0,8.212,49.2a19.531,19.531,0,0,0,2.693.186,19.239,19.239,0,0,0,9.2-2.332V61.766a2.626,2.626,0,0,1-.383.03Zm18.878-.88V21.85a3.723,3.723,0,0,0,.632-.415l11.937-9.472V51.029a3.725,3.725,0,0,0-.632.415Z" transform="translate(0 -9.44)"/>
        <path id="Trazado_876572" data-name="Trazado 876572" d="M55.341,203.65c.174.114.115.929.107,1.19a2.3,2.3,0,0,0,3.025,2.2,1.974,1.974,0,0,1,1.913,0,2.262,2.262,0,0,0,.76.131,2.321,2.321,0,0,0,2.265-2.329A1.974,1.974,0,0,1,64,203.021a2.3,2.3,0,0,0-1.156-3.556,1.974,1.974,0,0,1-1.547-1.124,2.3,2.3,0,0,0-3.739,0,1.975,1.975,0,0,1-1.547,1.124,2.3,2.3,0,0,0-1.155,3.556Zm.719-2.2a.619.619,0,0,1,.417-.406,3.348,3.348,0,0,0,2.438-1.771c.31-.3.555-.426,1.029,0a3.347,3.347,0,0,0,2.438,1.771c.385.2.576.4.318.979a3.359,3.359,0,0,0-.931,2.866c-.072.428-.2.671-.833.605a3.359,3.359,0,0,0-3.013,0c-.43.064-.7.018-.833-.605a3.36,3.36,0,0,0-.931-2.866A.619.619,0,0,1,56.061,201.447Z" transform="translate(-48.446 -176.801)"/>
        <path id="Trazado_876573" data-name="Trazado 876573" d="M69.643,409.143h5.033a.821.821,0,1,0,0-1.643H69.643a.821.821,0,1,0,0,1.643Z" transform="translate(-61.286 -363.911)"/>
        <path id="Trazado_876574" data-name="Trazado 876574" d="M51.582,438.8H40.072a.821.821,0,1,0,0,1.643h11.51a.821.821,0,0,0,0-1.643Z" transform="translate(-34.953 -391.779)"/>
        <path id="Trazado_876575" data-name="Trazado 876575" d="M229.307,116.033l-6.147,4.878a.821.821,0,0,0,1.021,1.287l6.147-4.878a.821.821,0,1,0-1.021-1.287Z" transform="translate(-198.446 -104.202)"/>
        <path id="Trazado_876576" data-name="Trazado 876576" d="M229.307,157.529l-6.147,4.878a.821.821,0,1,0,1.021,1.287l6.147-4.878a.821.821,0,1,0-1.021-1.287Z" transform="translate(-198.446 -141.154)"/>
        <path id="Trazado_876577" data-name="Trazado 876577" d="M229.307,199.026,223.16,203.9a.821.821,0,1,0,1.021,1.287l6.147-4.878a.821.821,0,1,0-1.021-1.287Z" transform="translate(-198.446 -178.107)"/>
        <path id="Trazado_876578" data-name="Trazado 876578" d="M229.307,285.944l-6.147,4.878a.821.821,0,1,0,1.021,1.287l6.147-4.878a.821.821,0,1,0-1.021-1.287Z" transform="translate(-198.446 -255.507)"/>
        <path id="Trazado_876579" data-name="Trazado 876579" d="M229.307,327.44l-6.147,4.878a.821.821,0,0,0,1.021,1.287l6.147-4.878a.821.821,0,1,0-1.021-1.287Z" transform="translate(-198.446 -292.459)"/>
        <path id="Trazado_876580" data-name="Trazado 876580" d="M357.811,65.867h8.474a2,2,0,0,0,2-2V60.33a2,2,0,0,0-2-2h-8.474a2,2,0,0,0-2,2v3.541A2,2,0,0,0,357.811,65.867Zm-.353-5.537a.354.354,0,0,1,.353-.353h8.474a.354.354,0,0,1,.353.353v3.541a.354.354,0,0,1-.353.353h-8.474a.354.354,0,0,1-.353-.353Z" transform="translate(-316.851 -52.98)"/>
        <path id="Trazado_876581" data-name="Trazado 876581" d="M355.815,154.267a2,2,0,0,0,2,2h8.474a2,2,0,0,0,2-2v-3.541a2,2,0,0,0-2-2h-8.474a2,2,0,0,0-2,2Zm1.643-3.541a.354.354,0,0,1,.353-.353h8.474a.354.354,0,0,1,.353.353v3.541a.354.354,0,0,1-.353.353h-8.474a.354.354,0,0,1-.353-.353Z" transform="translate(-316.852 -133.477)"/>
        <path id="Trazado_876582" data-name="Trazado 876582" d="M364.119,263.958a.8.8,0,1,0,.8.8A.8.8,0,0,0,364.119,263.958Z" transform="translate(-323.53 -236.087)"/>
        <path id="Trazado_876583" data-name="Trazado 876583" d="M405.856,263.8h-6.1a.821.821,0,0,0,0,1.643h6.1a.821.821,0,0,0,0-1.643Z" transform="translate(-355.248 -235.943)"/>
        <path id="Trazado_876584" data-name="Trazado 876584" d="M364.119,304.2a.8.8,0,1,0,.8.8A.8.8,0,0,0,364.119,304.2Z" transform="translate(-323.53 -271.923)"/>
        <path id="Trazado_876585" data-name="Trazado 876585" d="M405.856,304.038h-6.1a.821.821,0,1,0,0,1.643h6.1a.821.821,0,1,0,0-1.643Z" transform="translate(-355.248 -271.778)"/>
      </g>
    </g>
  </g>
</svg>
